<svg aria-hidden="true" xmlns="http://www.w3.org/2000/svg" xmlns:xlink="http://www.w3.org/1999/xlink"><symbol viewBox="0 0 10 4" fill="none" id="icon-arrow" xmlns="http://www.w3.org/2000/svg">
<path d="M9.49971 0.250828L0.499712 0.250828C0.408592 0.25097 0.319274 0.263536 0.241374 0.287172C0.163474 0.310808 0.0999416 0.344619 0.0576146 0.384966C0.0152877 0.425313 -0.00423114 0.470668 0.00116093 0.516148C0.00655204 0.561629 0.036649 0.605513 0.0882123 0.643078L4.58821 3.89308C4.77471 4.02783 5.22371 4.02783 5.41071 3.89308L9.91071 0.643079C9.9628 0.605593 9.99335 0.561686 9.99903 0.51613C10.0047 0.470573 9.98532 0.425109 9.94296 0.384677C9.90059 0.344244 9.83688 0.31039 9.75873 0.286792C9.68059 0.263195 9.591 0.250756 9.49971 0.250828Z" fill="currentColor"/>
</symbol><symbol viewBox="0 0 38 20" fill="none" id="icon-arrow-line" xmlns="http://www.w3.org/2000/svg">
<path d="M0.253593 9.39101L8.88976 0.754771C9.19999 0.392515 9.74519 0.350286 10.1074 0.660589C10.4697 0.970818 10.5119 1.51602 10.2016 1.87827C10.1727 1.91204 10.1412 1.94359 10.1074 1.97246L2.94806 9.14053H37.1388C37.6158 9.14053 38.0024 9.5272 38.0024 10.0042C38.0024 10.4812 37.6158 10.8678 37.1388 10.8678H2.94806L10.1074 18.0272C10.4697 18.3374 10.5119 18.8826 10.2016 19.2449C9.89132 19.6071 9.34619 19.6493 8.98394 19.339C8.95017 19.3101 8.91863 19.2786 8.88976 19.2449L0.253517 10.6086C-0.0812759 10.2719 -0.0812759 9.72788 0.253593 9.39101Z" fill="currentColor" fill-opacity="0.72"/>
</symbol><symbol viewBox="0 0 30 30" fill="none" id="icon-arrow-rotate" xmlns="http://www.w3.org/2000/svg">
<path d="M23.4375 8.4375V18.75C23.4375 18.9158 23.3717 19.0747 23.2544 19.1919C23.1372 19.3092 22.9783 19.375 22.8125 19.375C22.6467 19.375 22.4878 19.3092 22.3706 19.1919C22.2533 19.0747 22.1875 18.9158 22.1875 18.75V8.69631L7.62937 23.2544C7.5115 23.3682 7.35362 23.4312 7.18975 23.4298C7.02588 23.4284 6.86912 23.3626 6.75324 23.2468C6.63736 23.1309 6.57163 22.9741 6.5702 22.8103C6.56878 22.6464 6.63178 22.4885 6.74562 22.3706L21.3037 7.8125H11.25C11.0842 7.8125 10.9253 7.74665 10.8081 7.62944C10.6908 7.51223 10.625 7.35326 10.625 7.1875C10.625 7.02174 10.6908 6.86277 10.8081 6.74556C10.9253 6.62835 11.0842 6.5625 11.25 6.5625H21.5625C22.0596 6.56305 22.5362 6.76077 22.8877 7.11228C23.2392 7.46379 23.437 7.94039 23.4375 8.4375Z" fill="currentColor"/>
</symbol><symbol viewBox="0 0 27 27" fill="none" id="icon-click" xmlns="http://www.w3.org/2000/svg">
  <g clip-path="url(#dclip0_10_8236)">
    <path d="M5.90661 7.45718C5.90661 5.79378 7.25999 4.4404 8.92359 4.4404C10.587 4.4404 11.9406 5.79378 11.9406 7.45718V9.88852C12.7786 9.63226 13.3902 8.85175 13.3902 7.93076V2.04675C13.3902 0.918114 12.4718 0 11.3432 0H6.50399C5.37535 0 4.45703 0.918114 4.45703 2.04675V7.93076C4.45703 8.85175 5.06842 9.63226 5.90661 9.88852V7.45718Z" fill="currentColor"/>
    <path d="M21.3744 0H16.535C15.4064 0 14.4883 0.918114 14.4883 2.04675V7.93076C14.4883 9.05939 15.4064 9.97751 16.535 9.97751H21.3744C22.5031 9.97751 23.4214 9.05939 23.4214 7.93076V2.04675C23.4214 0.918114 22.5031 0 21.3744 0Z" fill="currentColor"/>
    <path d="M17.6244 12.7166C16.8233 12.7166 16.1742 13.3659 16.1742 14.1668V13.4281C16.1742 12.6272 15.525 11.9779 14.7238 11.9779C13.9229 11.9779 13.2736 12.627 13.2736 13.4281V12.8068C13.2736 12.045 12.6864 11.4211 11.94 11.3616C11.9015 11.3587 11.8628 11.3566 11.8235 11.3566C11.2388 11.3566 10.7354 11.7029 10.5059 12.2012C10.421 12.3856 10.3733 12.5905 10.3733 12.8068V7.45715C10.3733 6.65625 9.72397 6.00696 8.92306 6.00696C8.12216 6.00696 7.47287 6.65625 7.47287 7.45715V19.9074L7.41004 19.8994L6.51664 16.0753C6.33434 15.2954 5.55424 14.8107 4.77435 14.993C3.95532 14.993 3.43766 15.6456 3.62388 16.4432L4.65982 20.8768C5.20158 24.3458 8.00577 27 8.00577 27H16.8165C18.2888 24.7608 19.0734 22.1398 19.0738 19.4598L19.0746 14.1668C19.0746 13.3659 18.4253 12.7166 17.6244 12.7166Z" fill="currentColor"/>
  </g>
  <defs>
    <clipPath id="dclip0_10_8236">
      <rect width="27" height="27" fill="currentColor"/>
    </clipPath>
  </defs>
</symbol><symbol viewBox="0 0 42 42" fill="none" id="icon-close" xmlns="http://www.w3.org/2000/svg">
<path d="M21 2.625C10.7625 2.625 2.625 10.7625 2.625 21C2.625 31.2375 10.7625 39.375 21 39.375C31.2375 39.375 39.375 31.2375 39.375 21C39.375 10.7625 31.2375 2.625 21 2.625ZM28.0875 30.1875L21 23.1L13.9125 30.1875L11.8125 28.0875L18.9 21L11.8125 13.9125L13.9125 11.8125L21 18.9L28.0875 11.8125L30.1875 13.9125L23.1 21L30.1875 28.0875L28.0875 30.1875Z" fill="currentColor"/>
</symbol><symbol viewBox="0 0 30 30" fill="none" id="icon-dzen" xmlns="http://www.w3.org/2000/svg">
<path d="M15 30C15 21.7158 21.7158 15 30 15C21.7158 15 15 8.28571 15 0C15 8.28423 8.28423 15 0 15C8.28423 15 15 21.7143 15 30Z" fill="currentColor"/>
</symbol><symbol viewBox="0 0 28 29" fill="none" id="icon-file" xmlns="http://www.w3.org/2000/svg">
<g clip-path="url(#gclip0_1_209)">
<path d="M25.325 8.97382L22.422 6.07178V3.62462C22.422 2.33322 21.3704 1.28491 20.0815 1.28491H3.99741C2.70558 1.28491 1.65692 2.33327 1.65692 3.62462V23.3795C1.65692 24.6681 2.70563 25.7192 3.99741 25.7192H4.66453V26.324C4.66453 27.5532 5.66515 28.5535 6.89479 28.5535H23.1992C24.0275 28.5535 24.7822 28.0986 25.1694 27.3667C25.2599 27.1943 25.1949 26.9823 25.0224 26.8891C24.8528 26.7987 24.6352 26.8636 24.5447 27.036C24.2818 27.5362 23.7645 27.8471 23.1992 27.8471H6.89479C6.05242 27.8471 5.37121 27.1632 5.37121 26.324V6.34869C5.37121 5.5066 6.05242 4.82561 6.89479 4.82561H19.9683V8.19396C19.9683 8.95689 20.5902 9.57855 21.3535 9.57855H24.7229V17.3239C24.7229 17.5189 24.8812 17.6772 25.0762 17.6772C25.2712 17.6772 25.4296 17.5189 25.4296 17.3239V9.22533C25.4296 9.14617 25.39 9.03883 25.325 8.97382ZM21.7153 5.36533L20.5704 4.22088C20.5083 4.15871 20.3952 4.11916 20.3217 4.11916H6.89479C5.6652 4.11916 4.66453 5.11951 4.66453 6.34869V25.0129H3.99741C3.0957 25.0129 2.3636 24.2782 2.3636 23.3796V3.62462C2.3636 2.72321 3.0957 1.99136 3.99741 1.99136H20.0814C20.9803 1.99136 21.7152 2.72321 21.7152 3.62462V5.36533H21.7153Z" fill="currentColor"/>
<path d="M13.4716 6.84824C13.4716 6.65295 13.3134 6.49463 13.1182 6.49463H7.8336C7.63846 6.49463 7.48026 6.65295 7.48026 6.84824C7.48026 7.04353 7.63846 7.20185 7.8336 7.20185H13.1182C13.3134 7.20185 13.4716 7.04358 13.4716 6.84824Z" fill="currentColor"/>
<path d="M7.83366 8.35059C7.63852 8.35059 7.48032 8.50891 7.48032 8.7042C7.48032 8.89948 7.63852 9.05781 7.83366 9.05781H10.476C10.6711 9.05781 10.8293 8.89948 10.8293 8.7042C10.8293 8.50891 10.6711 8.35059 10.476 8.35059H7.83366Z" fill="currentColor"/>
<path d="M25.3589 18.3835H13.1475C12.6161 18.3835 12.1836 18.813 12.1836 19.3443V25.1767C12.1836 25.7108 12.6161 26.1402 13.1475 26.1402H25.3589C25.8903 26.1402 26.3228 25.7108 26.3228 25.1767V19.3443C26.3228 18.8131 25.8903 18.3835 25.3589 18.3835ZM15.6209 23.1252L15.1262 23.1365V23.8655C15.1262 24.0605 14.9679 24.2188 14.7729 24.2188C14.5779 24.2188 14.4195 24.0605 14.4195 23.8655V22.7889C14.4195 22.7889 14.4195 22.7889 14.4195 22.7861V20.6583C14.4195 20.4633 14.5779 20.3051 14.7729 20.3051H15.5955C16.3728 20.3051 17.006 20.938 17.006 21.7151C17.0059 22.4809 16.3841 23.1111 15.6209 23.1252ZM18.945 24.2159H18.1055C17.9105 24.2159 17.7522 24.0577 17.7522 23.8627V20.6583C17.7522 20.4633 17.9105 20.3051 18.1055 20.3051H18.945C20.0249 20.3051 20.9012 21.1839 20.9012 22.2605C20.9012 23.3399 20.0249 24.2159 18.945 24.2159ZM23.7307 21.0115H22.3795V22.0684H23.4508C23.6459 22.0684 23.8042 22.2266 23.8042 22.4216C23.8042 22.6165 23.6459 22.7748 23.4508 22.7748H22.3795V23.8655C22.3795 24.0605 22.2212 24.2188 22.0262 24.2188C21.8311 24.2188 21.6728 24.0605 21.6728 23.8655V20.6583C21.6728 20.4633 21.8311 20.3051 22.0262 20.3051H23.7307C23.9257 20.3051 24.084 20.4633 24.084 20.6583C24.084 20.8533 23.9258 21.0115 23.7307 21.0115Z" fill="currentColor"/>
<path d="M16.3001 21.7151C16.3001 22.0966 15.989 22.4131 15.6071 22.4187L15.1262 22.4272V21.0115H15.5958C15.9833 21.0115 16.3001 21.328 16.3001 21.7151Z" fill="currentColor"/>
<path d="M20.1945 22.2604C20.1945 22.9499 19.6348 23.5094 18.945 23.5094H18.4589V21.0115H18.945C19.6348 21.0115 20.1945 21.5738 20.1945 22.2604Z" fill="currentColor"/>
</g>
<defs>
<clipPath id="gclip0_1_209">
<rect width="27.9787" height="27.9694" fill="currentColor" transform="translate(0.000488281 0.93457)"/>
</clipPath>
</defs>
</symbol><symbol viewBox="0 0 201 96" fill="none" id="icon-logo" xmlns="http://www.w3.org/2000/svg">
<g clip-path="url(#hclip0_4031_109)">
<mask id="hpath-1-inside-1_4031_109" fill="currentColor">
<path d="M0 0L201 0V96H0L0 0Z"/>
</mask>
<path d="M165.312 2.30937C165.591 1.87385 166.206 1.16016 164.961 1.15735C159.277 1.15173 153.593 1.16297 147.909 1.16297C147.527 1.16297 147.279 1.23321 147.031 1.63502C144.926 5.04051 142.773 8.41791 140.631 11.8037C137.298 17.0693 133.967 22.3349 130.63 27.6005C127.572 32.425 124.511 37.2494 121.442 42.0654C120.855 42.9899 120.679 42.9871 120.091 42.0514C117.017 37.1539 113.959 32.248 110.87 27.3589C110.514 26.7941 110.564 26.3642 110.909 25.8416C113.282 22.2506 115.641 18.6541 117.997 15.0519C120.838 10.7079 123.665 6.3527 126.517 2.01434C126.959 1.3428 126.851 1.13206 126.051 1.13487C120.403 1.15454 114.755 1.15735 109.11 1.14892C108.575 1.14892 108.266 1.30346 107.965 1.79237C106.074 4.85226 104.13 7.87843 102.209 10.9186C101.512 12.0201 101.331 12.0285 100.657 10.9524C98.7469 7.90371 96.8224 4.86068 94.9369 1.79518C94.6696 1.36246 94.4133 1.16016 93.9009 1.16016C87.9576 1.16859 82.0143 1.16016 76.0738 1.1433C75.2912 1.1433 75.2856 1.41585 75.6672 1.99467C77.6418 5.00118 79.5997 8.01892 81.5603 11.0367C84.8578 16.1056 88.1498 21.1745 91.4528 26.2406C91.8121 26.7913 91.8594 27.2465 91.464 27.859C88.3948 32.6273 85.3619 37.4236 82.3346 42.22C81.9168 42.8803 81.6216 42.9843 81.1648 42.2453C78.8895 38.5504 76.589 34.8695 74.2913 31.1887C71.4227 26.5946 68.5486 22.0062 65.68 17.4121C62.4382 12.2224 59.188 7.03548 55.9824 1.82327C55.6789 1.32875 55.3697 1.15735 54.8489 1.15735C48.9418 1.16016 43.0375 1.15735 37.1304 1.15173C36.4843 1.15173 36.2058 1.26131 36.6765 1.97781C39.2554 5.91437 41.7898 9.88182 44.3548 13.8324C49.1368 21.1998 53.9326 28.5587 58.7146 35.9232C63.3405 43.0461 67.9414 50.183 72.598 57.2834C73.1383 58.1067 73.3946 58.8991 73.3918 59.8713C73.3751 71.4533 73.3918 83.0326 73.3611 94.6146C73.3611 95.5981 73.6201 95.8818 74.6005 95.8734C79.2877 95.8257 83.975 95.8313 88.6622 95.8734C89.6342 95.8818 89.8988 95.5784 89.8904 94.6006C89.8431 88.6803 89.8681 82.76 89.8681 76.8397H89.8737C89.8737 70.9925 89.8848 65.1481 89.8626 59.3009C89.8598 58.486 90.038 57.8145 90.4948 57.1204C93.77 52.178 97.0006 47.2074 100.245 42.2425C100.98 41.1185 101.075 41.1101 101.788 42.2059C105.105 47.2973 108.417 52.3887 111.72 57.4857C112.096 58.0673 112.419 58.6462 112.416 59.4273C112.385 71.1583 112.402 82.8865 112.363 94.6174C112.36 95.629 112.675 95.8762 113.619 95.8678C118.27 95.8285 122.921 95.8144 127.569 95.8734C128.642 95.8875 128.839 95.5222 128.837 94.5247C128.803 82.7572 128.82 70.9897 128.803 59.2222C128.803 58.5197 128.948 57.9128 129.332 57.334C130.212 56.0049 131.067 54.659 131.939 53.3272C136.924 45.7294 141.921 38.1401 146.895 30.5368C151.582 23.3717 156.247 16.1927 160.923 9.02202C162.382 6.78541 163.867 4.56284 165.307 2.31218L165.312 2.30937Z" fill="currentColor"/>
<path d="M-1.60959 1.13206C-27.7835 1.13206 -49 22.3377 -49 48.4999C-49 74.6621 -27.7835 95.8678 -1.60959 95.8678C24.5643 95.8678 45.7808 74.6593 45.7808 48.4999C45.7808 22.3406 24.5615 1.13206 -1.60959 1.13206ZM-1.79898 80.3155C-18.8769 80.3155 -32.7214 65.8955 -32.7214 48.1094C-32.7214 30.3232 -18.8769 15.9033 -1.79898 15.9033C15.2789 15.9033 29.1234 30.3232 29.1234 48.1094C29.1234 65.8955 15.2789 80.3155 -1.79898 80.3155Z" fill="currentColor"/>
<path d="M203.612 1C177.439 1 156.222 22.2085 156.222 48.3679C156.222 74.5273 177.439 95.7357 203.612 95.7357C229.786 95.7357 251.003 74.5273 251.003 48.3679C251.003 22.2085 229.784 1 203.612 1ZM203.423 80.1834C186.345 80.1834 172.501 65.7634 172.501 47.9773C172.501 30.1912 186.345 15.7712 203.423 15.7712C220.501 15.7712 234.345 30.1912 234.345 47.9773C234.345 65.7634 220.501 80.1834 203.423 80.1834Z" fill="currentColor"/>
</g>
<path d="M1 96V0L-1 0V96H1Z" fill="currentColor" mask="url(#hpath-1-inside-1_4031_109)"/>
<defs>
<clipPath id="hclip0_4031_109">
<path d="M0 0L201 0V96H0L0 0Z" fill="currentColor"/>
</clipPath>
</defs>
</symbol><symbol viewBox="0 0 20 20" fill="none" id="icon-mail" xmlns="http://www.w3.org/2000/svg">
<path fill-rule="evenodd" clip-rule="evenodd" d="M2.45953 3.8432L7.86266 9.24867C9.04109 10.4248 10.9674 10.4259 12.1468 9.24867L17.55 3.8432C17.6044 3.78879 17.5964 3.69918 17.5333 3.65516C16.9822 3.27082 16.3117 3.04297 15.5895 3.04297H4.42008C3.69777 3.04297 3.02727 3.27086 2.47617 3.65516C2.41305 3.69918 2.40512 3.78879 2.45953 3.8432ZM1.01562 6.44738C1.01562 5.87941 1.15645 5.34277 1.40449 4.87109C1.44328 4.7973 1.5416 4.78238 1.60055 4.84133L6.93527 10.1761C8.62461 11.8679 11.3839 11.8688 13.0743 10.1761L18.409 4.84133C18.4679 4.78238 18.5662 4.7973 18.605 4.87109C18.853 5.34277 18.9939 5.87945 18.9939 6.44738V13.5543C18.9939 15.4329 17.4657 16.9588 15.5895 16.9588H4.42008C2.54383 16.9588 1.01562 15.4329 1.01562 13.5543V6.44738Z" fill="currentColor"/>
</symbol><symbol viewBox="0 0 26 26" fill="none" id="icon-menu" xmlns="http://www.w3.org/2000/svg">
<path d="M1.08342 9.83207C1.0613 9.83207 1.04008 9.82328 1.02443 9.80764C1.00879 9.79199 1 9.77077 1 9.74865V1.08342C1 1.0613 1.00879 1.04008 1.02443 1.02443L0.317328 0.317328L1.02443 1.02443C1.04008 1.00879 1.0613 1 1.08342 1H9.75081C9.77294 1 9.79416 1.00879 9.8098 1.02443C9.82545 1.04008 9.83424 1.0613 9.83424 1.08342V9.74865C9.83424 9.77077 9.82545 9.79199 9.8098 9.80764C9.79416 9.82328 9.77294 9.83207 9.75081 9.83207H1.08342ZM16.2514 9.83207C16.2292 9.83207 16.208 9.82328 16.1924 9.80764C16.1767 9.79199 16.1679 9.77077 16.1679 9.74865V1.08342C16.1679 1.0613 16.1767 1.04008 16.1924 1.02443C16.208 1.00879 16.2292 1 16.2514 1H24.9166C24.9387 1 24.9599 1.00879 24.9756 1.02444C24.9912 1.04008 25 1.0613 25 1.08342V9.74865C25 9.77077 24.9912 9.79199 24.9756 9.80764C24.9599 9.82328 24.9387 9.83207 24.9166 9.83207H16.2514ZM1.08342 25C1.0613 25 1.04008 24.9912 1.02444 24.9756L0.320262 25.6797L1.02443 24.9756C1.00879 24.9599 1 24.9387 1 24.9166V16.2492C1 16.2271 1.00879 16.2058 1.02443 16.1902C1.04008 16.1746 1.0613 16.1658 1.08342 16.1658H9.75081C9.77294 16.1658 9.79416 16.1746 9.8098 16.1902C9.82545 16.2058 9.83424 16.2271 9.83424 16.2492V24.9166C9.83424 24.9387 9.82545 24.9599 9.8098 24.9756C9.79416 24.9912 9.77294 25 9.75081 25H1.08342ZM16.2514 25C16.2292 25 16.208 24.9912 16.1924 24.9756C16.1767 24.9599 16.1679 24.9387 16.1679 24.9166V16.2492C16.1679 16.2271 16.1767 16.2058 16.1924 16.1902C16.208 16.1746 16.2292 16.1658 16.2514 16.1658H24.9166C24.9387 16.1658 24.9599 16.1746 24.9756 16.1902C24.9912 16.2058 25 16.2271 25 16.2492V24.9166C25 24.9387 24.9912 24.9599 24.9756 24.9756C24.9599 24.9912 24.9387 25 24.9166 25H16.2514Z" stroke="currentColor" stroke-width="2"/>
</symbol><symbol viewBox="0 0 25 38" fill="none" id="icon-mouse" xmlns="http://www.w3.org/2000/svg">
<rect x="0.502197" y="0.5" width="24" height="37" rx="12" stroke="currentColor"/>
<rect x="11.0022" y="7" width="3" height="7" rx="1.5" fill="currentColor"/>
</symbol><symbol viewBox="0 0 20 20" fill="none" id="icon-paper-clip" xmlns="http://www.w3.org/2000/svg">
<g clip-path="url(#lclip0_4158_109)">
<path d="M12.8286 14.2425L10.0002 17.0709C9.02199 18.0491 7.84325 18.5382 6.46392 18.5382C5.08459 18.5382 3.90631 18.0491 2.92909 17.0709C1.95092 16.0928 1.46184 14.914 1.46184 13.5347C1.46184 12.1554 1.95092 10.9771 2.92909 9.99987L5.75752 7.17144L7.17173 8.58565L4.3433 11.4141C3.75405 12.0033 3.45942 12.7104 3.45942 13.5354C3.45942 14.3604 3.75405 15.0675 4.3433 15.6567C4.93256 16.246 5.63967 16.5406 6.46462 16.5406C7.28958 16.5406 7.99669 16.246 8.58594 15.6567L11.4144 12.8283L12.8286 14.2425ZM7.87884 13.5354L6.46462 12.1212L12.1215 6.46433L13.5357 7.87855L7.87884 13.5354ZM14.2428 12.8283L12.8286 11.4141L15.657 8.58565C16.2463 7.9964 16.5409 7.28929 16.5409 6.46433C16.5409 5.63938 16.2463 4.93227 15.657 4.34301C15.0678 3.75376 14.3606 3.45913 13.5357 3.45913C12.7107 3.45913 12.0036 3.75376 11.4144 4.34301L8.58594 7.17144L7.17173 5.75723L10.0002 2.9288C10.9783 1.95063 12.1571 1.46155 13.5364 1.46155C14.9157 1.46155 16.094 1.95063 17.0712 2.9288C18.0494 3.90696 18.5385 5.08571 18.5385 6.46504C18.5385 7.84437 18.0494 9.02264 17.0712 9.99987L14.2428 12.8283Z" fill="currentColor"/>
</g>
<defs>
<clipPath id="lclip0_4158_109">
<rect width="20" height="20" fill="currentColor"/>
</clipPath>
</defs>
</symbol><symbol viewBox="0 0 29 36" fill="none" id="icon-play" xmlns="http://www.w3.org/2000/svg">
<path d="M27.679 17.1568C28.295 17.5499 28.295 18.4496 27.679 18.8427L2.03793 35.2049C1.37226 35.6297 0.5 35.1516 0.5 34.3619L0.5 1.6376C0.5 0.847948 1.37226 0.369834 2.03793 0.794614L27.679 17.1568Z" fill="currentColor"/>
</symbol><symbol viewBox="0 0 24 24" fill="none" id="icon-plus" xmlns="http://www.w3.org/2000/svg">
<rect y="11" width="24" height="2" fill="currentColor"/>
<rect x="11" y="24" width="24" height="2" transform="rotate(-90 11 24)" fill="currentColor"/>
</symbol><symbol viewBox="0 0 24 24" fill="none" id="icon-tel" xmlns="http://www.w3.org/2000/svg">
<path d="M6.9207 21.1856C8.42876 22.021 10.1608 22.5 12.0051 22.5C17.8028 22.5 22.5001 17.7926 22.5001 11.9949C22.5001 6.19721 17.8028 1.5 12.0051 1.5C6.20745 1.5 1.5 6.19721 1.5 11.9949C1.5 13.8595 1.98912 15.5917 2.83479 17.1099L1.5 22.5L6.9207 21.1856ZM7.50151 7.35878C7.746 7.12441 8.10269 7.03272 8.42876 7.10408L8.76494 7.1754C9.10121 7.24667 9.37633 7.47088 9.5088 7.77653L10.1711 9.2438C10.3341 9.6004 10.273 10.0284 10.008 10.3238L9.60044 10.8028C9.46802 10.9556 9.43748 11.1899 9.53933 11.3734C10.7417 13.5335 12.321 14.2365 13.024 14.4504C13.2278 14.5218 13.4622 14.4301 13.5743 14.2466L13.8698 13.7882C14.1551 13.3501 14.7155 13.1972 15.337 13.5029L16.5597 14.1143C17.0284 14.3384 17.2424 14.8886 17.0692 15.3777C16.4477 17.1811 14.8581 16.957 14.8581 16.957C11.3327 16.8653 8.57134 13.6149 7.37924 11.944C6.82901 11.1594 6.49277 10.2118 6.59463 9.24379C6.69658 8.28598 7.14491 7.68485 7.50151 7.35878Z" fill="currentColor"/>
</symbol><symbol viewBox="0 0 24 24" fill="none" id="icon-tg" xmlns="http://www.w3.org/2000/svg">
<path d="M21.466 2.7404C18.4581 3.986 5.56125 9.32816 1.99773 10.7842C-0.392192 11.7169 1.00677 12.5912 1.00677 12.5912C1.00677 12.5912 3.04677 13.2906 4.79541 13.8152C6.54405 14.3398 7.47669 13.7569 7.47669 13.7569L15.6952 8.21936C18.6096 6.23768 17.9102 7.86968 17.2108 8.56904C15.6952 10.0846 13.1889 12.4743 11.0906 14.3979C10.158 15.2139 10.6243 15.9135 11.0323 16.2632C12.5479 17.5455 16.6862 20.1685 16.9195 20.3434C18.1509 21.2151 20.573 22.4701 20.9414 19.8188L22.3987 10.6676C22.865 7.57833 23.3313 4.72208 23.3896 3.90608C23.5644 1.9244 21.466 2.7404 21.466 2.7404Z" fill="currentColor"/>
</symbol><symbol viewBox="0 0 18 18" fill="none" id="icon-wh" xmlns="http://www.w3.org/2000/svg">
<g clip-path="url(#qclip0_10_4928)">
<path d="M9.00225 0H8.99775C4.03538 0 0 4.0365 0 9C0 10.9688 0.6345 12.7935 1.71337 14.2751L0.59175 17.6186L4.05113 16.5128C5.47425 17.4555 7.17188 18 9.00225 18C13.9646 18 18 13.9624 18 9C18 4.03763 13.9646 0 9.00225 0ZM14.2391 12.7091C14.022 13.3223 13.1602 13.8307 12.4729 13.9792C12.0026 14.0794 11.3884 14.1593 9.32063 13.302C6.67575 12.2063 4.9725 9.51862 4.83975 9.34425C4.71263 9.16988 3.771 7.92112 3.771 6.62963C3.771 5.33813 4.42688 4.70925 4.69125 4.43925C4.90838 4.21763 5.26725 4.11637 5.6115 4.11637C5.72288 4.11637 5.823 4.122 5.913 4.1265C6.17737 4.13775 6.31012 4.1535 6.4845 4.57088C6.70162 5.094 7.23037 6.3855 7.29338 6.51825C7.3575 6.651 7.42163 6.831 7.33162 7.00538C7.24725 7.18538 7.173 7.26525 7.04025 7.41825C6.9075 7.57125 6.7815 7.68825 6.64875 7.8525C6.52725 7.99538 6.39 8.14838 6.543 8.41275C6.696 8.6715 7.22475 9.53437 8.00325 10.2274C9.00787 11.1217 9.82237 11.4075 10.1137 11.529C10.3309 11.619 10.5896 11.5976 10.7483 11.4289C10.9496 11.2118 11.1982 10.8518 11.4514 10.4974C11.6314 10.2431 11.8586 10.2116 12.0971 10.3016C12.3401 10.386 13.626 11.0216 13.8904 11.1532C14.1547 11.286 14.3291 11.349 14.3932 11.4604C14.4562 11.5718 14.4562 12.0949 14.2391 12.7091Z" fill="currentColor"/>
</g>
<defs>
<clipPath id="qclip0_10_4928">
<rect width="18" height="18" fill="currentColor"/>
</clipPath>
</defs>
</symbol><symbol viewBox="0 0 24 24" id="icon-yt" xmlns="http://www.w3.org/2000/svg">
<g clip-path="url(#rclip0_13_252)">
<path fill-rule="evenodd" clip-rule="evenodd" d="M22.5958 4.6904C22.111 4.25032 21.4972 3.96176 20.8258 3.8876C19.3666 3.72428 17.8941 3.64206 16.4167 3.60081C14.9489 3.55984 13.4747 3.55984 12.0038 3.56078C10.5332 3.55984 9.05918 3.55984 7.59102 3.60081C6.11349 3.64206 4.64064 3.72428 3.18064 3.8876C2.50984 3.96176 1.89633 4.25042 1.412 4.69068C0.930866 5.12803 0.577326 5.71548 0.422635 6.39069C0.213849 7.29577 0.108284 8.24004 0.0549388 9.19032C0.00131253 10.1444 0 11.0865 0 12.0012C0 12.9145 0 13.8555 0.05222 14.8102C0.104346 15.76 0.208692 16.7043 0.417572 17.6095C0.573107 18.285 0.926928 18.8727 1.40797 19.3099C1.89201 19.7499 2.50497 20.0384 3.17548 20.1126C4.63577 20.2759 6.10861 20.3582 7.58615 20.3993C9.05421 20.4403 10.5283 20.4403 11.9992 20.4394C13.4707 20.4403 14.9448 20.4403 16.4126 20.3993C17.8899 20.3582 19.3624 20.2759 20.8224 20.1126C21.4929 20.0384 22.1057 19.7499 22.5899 19.3101C23.0712 18.8729 23.4255 18.2852 23.5821 17.6095C23.7901 16.7043 23.8943 15.76 23.9467 14.8102C23.9982 13.8737 23.9986 12.9235 23.9986 12.0012H23.9995V11.9549H23.9986C23.9986 10.1221 23.9986 8.18117 23.5871 6.39069C23.4316 5.71511 23.0775 5.12766 22.5958 4.6904Z"/>
<path fill-rule="evenodd" clip-rule="evenodd" d="M16.5535 11.5494C15.1861 10.8354 13.8281 10.1268 12.4716 9.41902C11.344 8.83054 10.2174 8.24271 9.08755 7.65282L8.7146 7.45801V7.87821V15.6452V16.0644L9.08661 15.8717C10.3345 15.2253 11.577 14.5813 12.8194 13.937L16.5525 12.0012L16.987 11.7759L16.5535 11.5494Z" fill="currentColor"/>
</g>
<defs>
<clipPath id="rclip0_13_252">
<rect width="24" height="24"/>
</clipPath>
</defs>
</symbol></svg>