<svg width="40" height="40" viewBox="0 0 40 40" fill="none" xmlns="http://www.w3.org/2000/svg">
<path d="M16.6899 15.7974L16.9466 16.8042C17.2499 17.9922 18.2276 18.8711 19.4211 19.0899C19.3966 17.4808 18.2346 16.1374 16.6899 15.7974Z" fill="white"/>
<path d="M15.3358 3.14258C15.0138 3.14258 14.7524 3.39801 14.7524 3.71401V6.57115H25.2524V3.71401C25.2524 3.39801 24.9911 3.14258 24.6691 3.14258H15.3358Z" fill="white"/>
<path d="M26.0061 9.62611C25.3498 9.16268 24.8791 8.48497 24.7356 7.71411H15.2803C15.1368 8.4844 14.6661 9.16154 14.0098 9.62554C13.0024 10.4153 12.4243 11.593 12.4243 12.857V35.1427C12.4243 36.0878 13.2095 36.857 14.1743 36.857H25.841C26.8058 36.857 27.591 36.0878 27.591 35.1427V12.857C27.591 11.593 27.0129 10.4153 26.0061 9.62611ZM24.6568 15.281L24.1977 17.0804C23.7643 18.7793 22.3223 20.0067 20.591 20.237V21.9998C20.591 22.3158 20.3296 22.5713 20.0076 22.5713C19.6856 22.5713 19.4243 22.3158 19.4243 21.9998V20.2375C17.693 20.0073 16.251 18.7798 15.8176 17.081L15.3585 15.2815C15.2768 14.7438 15.7446 14.5713 15.9243 14.5713C17.6801 14.5713 19.2114 15.5273 20.0076 16.9347C20.8039 15.5273 22.3352 14.5713 24.091 14.5713C24.4585 14.5621 24.7554 14.933 24.6568 15.281Z" fill="white"/>
<path d="M20.5962 19.0894C21.7897 18.8706 22.7674 17.9917 23.0707 16.8037L23.3274 15.7969C21.7833 16.1374 20.6213 17.4809 20.5962 19.0894Z" fill="white"/>
</svg>
