<svg width="40" height="40" viewBox="0 0 40 40" fill="none" xmlns="http://www.w3.org/2000/svg">
<path d="M10.3853 2.18726H16.6049V5.50257H10.3853V2.18726Z" fill="white"/>
<path d="M18.5406 5.50269H8.45869L7.49463 13.5324L18.5406 5.50269Z" fill="white" fill-opacity="0.37"/>
<path d="M30.6274 3.43726H22.1937C21.6659 3.43751 21.1518 3.60477 20.7249 3.91507L7.02494 13.8729C6.78568 14.0468 6.59096 14.2749 6.4567 14.5385C6.32244 14.802 6.25245 15.0936 6.25244 15.3894V36.2498C6.25244 36.6642 6.41706 37.0616 6.71009 37.3546C7.00311 37.6476 7.40054 37.8123 7.81494 37.8123H32.1899C32.6043 37.8123 33.0018 37.6476 33.2948 37.3546C33.5878 37.0616 33.7524 36.6642 33.7524 36.2498V6.56226C33.7524 5.73345 33.4232 4.9386 32.8372 4.35255C32.2511 3.7665 31.4562 3.43726 30.6274 3.43726ZM31.0915 14.4344H25.5549L19.5781 8.04069L22.2468 6.09819H30.1531C30.4017 6.09819 30.6402 6.19697 30.816 6.37278C30.9918 6.5486 31.0906 6.78705 31.0906 7.03569L31.0915 14.4344Z" fill="white"/>
<path d="M16.1456 24.8762C16.0738 24.8763 16.0026 24.8623 15.9363 24.8348C15.87 24.8074 15.8097 24.767 15.759 24.7162L10.8021 19.759C10.7499 19.7085 10.7083 19.6482 10.6796 19.5815C10.651 19.5147 10.6359 19.443 10.6353 19.3704C10.6347 19.2977 10.6485 19.2257 10.676 19.1585C10.7035 19.0913 10.7442 19.0303 10.7955 18.9789C10.8469 18.9276 10.9079 18.887 10.9751 18.8595C11.0424 18.832 11.1144 18.8182 11.187 18.8189C11.2596 18.8195 11.3314 18.8346 11.3981 18.8633C11.4648 18.892 11.5251 18.9336 11.5756 18.9859L16.5318 23.9428C16.6082 24.0192 16.6603 24.1167 16.6814 24.2227C16.7024 24.3288 16.6916 24.4387 16.6502 24.5386C16.6089 24.6385 16.5388 24.7238 16.4489 24.7839C16.3591 24.844 16.2534 24.8761 16.1453 24.8762H16.1456Z" fill="white" fill-opacity="0.37"/>
<path d="M28.8114 33.4209C28.7396 33.421 28.6684 33.4068 28.6021 33.3793C28.5358 33.3518 28.4755 33.3115 28.4248 33.2606L23.4676 28.3037C23.3684 28.2006 23.3136 28.0626 23.315 27.9195C23.3163 27.7763 23.3738 27.6395 23.475 27.5383C23.5762 27.437 23.7131 27.3796 23.8562 27.3782C23.9994 27.3768 24.1373 27.4316 24.2405 27.5309L29.1973 32.4878C29.2738 32.5642 29.3258 32.6617 29.3469 32.7677C29.368 32.8738 29.3571 32.9837 29.3158 33.0836C29.2744 33.1835 29.2043 33.2688 29.1145 33.3289C29.0246 33.389 28.9189 33.4211 28.8108 33.4212L28.8114 33.4209Z" fill="white" fill-opacity="0.37"/>
<path d="M23.8534 24.8761C23.7453 24.876 23.6397 24.8439 23.5499 24.7837C23.46 24.7236 23.39 24.6382 23.3487 24.5383C23.3074 24.4385 23.2965 24.3286 23.3176 24.2225C23.3387 24.1165 23.3908 24.0191 23.4672 23.9427L28.4237 18.9858C28.5263 18.8833 28.6653 18.8257 28.8103 18.8257C28.9553 18.8257 29.0943 18.8833 29.1969 18.9858C29.2994 19.0883 29.357 19.2274 29.357 19.3724C29.357 19.5174 29.2994 19.6564 29.1969 19.7589L24.24 24.7161C24.1893 24.767 24.129 24.8073 24.0627 24.8347C23.9963 24.8622 23.9252 24.8763 23.8534 24.8761Z" fill="white" fill-opacity="0.37"/>
<path d="M11.1897 33.4209C11.0815 33.4208 10.9759 33.3887 10.886 33.3286C10.7961 33.2685 10.726 33.1831 10.6847 33.0832C10.6433 32.9834 10.6325 32.8734 10.6536 32.7674C10.6746 32.6613 10.7267 32.5639 10.8031 32.4874L15.7606 27.5309C15.8637 27.4316 16.0017 27.3768 16.1448 27.3782C16.288 27.3796 16.4248 27.437 16.526 27.5383C16.6273 27.6395 16.6847 27.7763 16.6861 27.9195C16.6875 28.0626 16.6327 28.2006 16.5334 28.3037L11.5772 33.2606C11.5264 33.3115 11.466 33.3519 11.3994 33.3795C11.3329 33.407 11.2616 33.4211 11.1897 33.4209Z" fill="white" fill-opacity="0.37"/>
<path d="M14.3462 22.5271H25.6609V29.7193H14.3462V22.5271Z" fill="white" fill-opacity="0.37"/>
</svg>
