<svg width="95" height="20" viewBox="0 0 95 20" fill="none" xmlns="http://www.w3.org/2000/svg">
<g clip-path="url(#clip0_10_2750)">
<path fill-rule="evenodd" clip-rule="evenodd" d="M68.9371 9.2079C69.5954 9.2079 70.2937 8.80196 70.8024 8.30691L71.4307 9.10889H72.2287L71.2612 7.86137C71.6203 7.50493 71.8397 7.2277 71.9993 7.00988L71.5305 6.62374C71.3609 6.85147 71.1814 7.04949 70.8722 7.37622L69.6653 5.84156C70.0343 5.53463 69.9844 5.60394 70.1341 5.47523C70.5929 5.07919 70.6727 4.70295 70.6727 4.43562C70.6727 3.86137 70.2538 3.28711 69.4558 3.28711C68.6279 3.28711 68.199 3.90097 68.199 4.49503C68.199 4.88117 68.3785 5.2277 68.7676 5.72275C68.6479 5.80196 68.0993 6.13859 67.8 6.43562C67.6105 6.62374 67.2814 6.99998 67.2814 7.62374C67.2714 8.53463 67.9895 9.2079 68.9371 9.2079ZM69.4358 3.83166C69.7351 3.83166 70.0642 4.01978 70.0642 4.42572C70.0642 4.62374 70.0044 4.83166 69.6752 5.08909L69.2962 5.38612L69.0369 5.02968C68.9271 4.87127 68.8075 4.71285 68.8075 4.46533C68.7875 4.08909 69.0768 3.83166 69.4358 3.83166ZM68.3187 6.78216C68.4883 6.63364 68.7077 6.44552 69.1366 6.1881L70.4233 7.83166C70.2039 8.03958 69.5555 8.62374 68.9371 8.62374C68.3387 8.62374 67.9197 8.1782 67.9197 7.61384C67.9097 7.1683 68.1491 6.93067 68.3187 6.78216Z" fill="#E30613"/>
<path fill-rule="evenodd" clip-rule="evenodd" d="M60.0955 4.62373C60.3349 4.62373 60.5344 4.42571 60.5344 4.18809C60.5344 3.95046 60.3349 3.75244 60.0955 3.75244C59.8561 3.75244 59.6566 3.95046 59.6566 4.18809C59.6466 4.42571 59.8461 4.62373 60.0955 4.62373Z" fill="#E30613"/>
<path d="M60.4018 5.53467H59.7734V9.09902H60.4018V5.53467Z" fill="#E30613"/>
<path fill-rule="evenodd" clip-rule="evenodd" d="M52.0446 7.62378C52.0446 7.8713 52.0446 8.16833 51.8751 8.38615C51.7753 8.50496 51.5858 8.66338 51.2467 8.66338C50.8976 8.66338 50.708 8.50496 50.6183 8.38615C50.4487 8.15843 50.4487 7.8713 50.4487 7.62378V5.54457H49.8203V7.69308C49.8203 8.12873 49.8602 8.45546 50.1495 8.77229C50.4687 9.10892 50.8976 9.21784 51.2467 9.21784C51.6057 9.21784 52.0247 9.10892 52.3439 8.77229C52.6331 8.46536 52.673 8.13863 52.673 7.69308V5.53467H52.0446V7.62378Z" fill="#E30613"/>
<path fill-rule="evenodd" clip-rule="evenodd" d="M57.4424 5.45557C57.203 5.45557 56.6943 5.48527 56.3552 6.02982C56.2853 5.91101 56.016 5.45557 55.3677 5.45557C54.9887 5.45557 54.6795 5.62388 54.48 5.92091V5.53477H53.8516V9.09913H54.48V7.15854C54.48 6.73279 54.5598 6.00012 55.2679 6.00012C55.9263 6.00012 55.9263 6.7427 55.9263 6.99022V9.10903H56.5547V7.11893C56.5547 6.69319 56.6345 6.00012 57.3626 6.00012C57.9511 6.00012 58.001 6.53477 58.001 6.94071V9.10903H58.6293V6.85161C58.6094 6.33675 58.5097 5.45557 57.4424 5.45557Z" fill="#E30613"/>
<path fill-rule="evenodd" clip-rule="evenodd" d="M44.8749 6.30691H47.8373V9.10889H48.4757V3.37622H47.8373V5.70295H44.8749V3.37622H44.2266V9.10889H44.8749V6.30691Z" fill="#E30613"/>
<path fill-rule="evenodd" clip-rule="evenodd" d="M61.9977 7.33665C61.9977 6.46536 62.6062 6.00001 63.2745 6.00001C63.5937 6.00001 64.0724 6.11882 64.4016 6.53467V5.79209C64.232 5.67328 63.853 5.44556 63.2845 5.44556C62.1773 5.44556 61.3594 6.24754 61.3594 7.33665C61.3594 8.41585 62.1673 9.19803 63.2845 9.19803C63.6236 9.19803 64.0425 9.10892 64.4315 8.8317V8.08912C64.1024 8.48516 63.6435 8.64358 63.2745 8.64358C62.6162 8.66338 61.9977 8.20793 61.9977 7.33665Z" fill="#E30613"/>
<path fill-rule="evenodd" clip-rule="evenodd" d="M87.531 5.53467H86.8328L85.7655 7.95051L84.6882 5.53467H84L85.7655 9.33665L87.531 5.53467Z" fill="#E30613"/>
<path d="M88.8159 5.53467H88.1875V9.09902H88.8159V5.53467Z" fill="#E30613"/>
<path fill-rule="evenodd" clip-rule="evenodd" d="M91.6886 9.20793C92.0278 9.20793 92.4467 9.11882 92.8357 8.8416V8.09902C92.5065 8.49506 92.0477 8.65348 91.6787 8.65348C91.0403 8.65348 90.4119 8.19803 90.4119 7.32674C90.4119 6.45546 91.0203 5.99011 91.6886 5.99011C92.0078 5.99011 92.4866 6.10892 92.8157 6.52476V5.79209C92.6462 5.67328 92.2672 5.44556 91.6986 5.44556C90.5914 5.44556 89.7735 6.24754 89.7735 7.33665C89.7636 8.41585 90.5715 9.20793 91.6886 9.20793Z" fill="#E30613"/>
<path fill-rule="evenodd" clip-rule="evenodd" d="M88.4936 4.62373C88.7329 4.62373 88.9324 4.42571 88.9324 4.18809C88.9324 3.95046 88.7329 3.75244 88.4936 3.75244C88.2542 3.75244 88.0547 3.95046 88.0547 4.18809C88.0547 4.42571 88.2542 4.62373 88.4936 4.62373Z" fill="#E30613"/>
<path fill-rule="evenodd" clip-rule="evenodd" d="M75.7165 6.26731H77.6416V5.66335H75.7165V3.97028H77.7114V3.37622H75.0781V9.10889H75.7165V6.26731Z" fill="#E30613"/>
<path d="M83.3393 2.8418H82.7109V9.10912H83.3393V2.8418Z" fill="#E30613"/>
<path fill-rule="evenodd" clip-rule="evenodd" d="M81.5324 7.69308V5.53467H80.904V7.61388C80.904 7.8614 80.904 8.15843 80.7344 8.37625C80.6347 8.49506 80.4452 8.65348 80.106 8.65348C79.7569 8.65348 79.5674 8.49506 79.4777 8.37625C79.3081 8.14853 79.3081 7.8614 79.3081 7.61388V5.53467H78.6797V7.68318C78.6797 8.11883 78.7196 8.44556 79.0088 8.76239C79.328 9.09902 79.7569 9.20794 80.106 9.20794C80.4651 9.20794 80.8841 9.09902 81.2032 8.76239C81.4925 8.45546 81.5324 8.12873 81.5324 7.69308Z" fill="#E30613"/>
<path fill-rule="evenodd" clip-rule="evenodd" d="M53.5717 11.3665C53.3323 11.3665 53.1328 11.5645 53.1328 11.8021C53.1328 12.0397 53.3323 12.2377 53.5717 12.2377C53.8111 12.2377 54.0106 12.0397 54.0106 11.8021C54.0106 11.5645 53.8111 11.3665 53.5717 11.3665Z" fill="#E30613"/>
<path fill-rule="evenodd" clip-rule="evenodd" d="M78.4033 13.0693C78.1639 13.0693 77.6552 13.099 77.3161 13.6436C77.2463 13.5248 76.977 13.0693 76.3286 13.0693C75.9496 13.0693 75.6404 13.2377 75.4409 13.5347V13.1584H74.8125V16.7228H75.4409V14.7822C75.4409 14.3565 75.5207 13.6238 76.2289 13.6238C76.8872 13.6238 76.8872 14.3664 76.8872 14.6139V16.7327H77.5156V14.7426C77.5156 14.3169 77.5954 13.6238 78.3235 13.6238C78.912 13.6238 78.9619 14.1584 78.9619 14.5644V16.7327H79.5903V14.4753C79.5803 13.9604 79.4706 13.0693 78.4033 13.0693Z" fill="#E30613"/>
<path fill-rule="evenodd" clip-rule="evenodd" d="M71.952 13.0693C70.8548 13.0693 70.0469 13.8713 70.0469 14.9505C70.0469 16.0297 70.8648 16.8218 71.952 16.8218C73.0392 16.8218 73.8571 16.0297 73.8571 14.9505C73.8571 13.8713 73.0592 13.0693 71.952 13.0693ZM71.952 16.2773C71.3136 16.2773 70.6853 15.8317 70.6853 14.9505C70.6853 14.0792 71.2937 13.6139 71.952 13.6139C72.6103 13.6139 73.2188 14.0693 73.2188 14.9505C73.2188 15.8218 72.6004 16.2773 71.952 16.2773Z" fill="#E30613"/>
<path fill-rule="evenodd" clip-rule="evenodd" d="M82.6053 13.0693C82.3459 13.0693 81.7973 13.1287 81.3784 13.6535V13.1584H80.75V18.7426H81.3784V16.2278C81.6477 16.5743 82.0567 16.8317 82.6352 16.8317C83.7224 16.8317 84.3608 15.9505 84.3608 14.9703C84.3508 14 83.7324 13.0693 82.6053 13.0693ZM82.5454 16.2773C81.8073 16.2773 81.3385 15.6832 81.3385 14.9505C81.3385 14.0891 81.9569 13.6139 82.5354 13.6139C83.114 13.6139 83.7124 14.0792 83.7124 14.9505C83.7124 15.6832 83.2736 16.2773 82.5454 16.2773Z" fill="#E30613"/>
<path fill-rule="evenodd" clip-rule="evenodd" d="M64.5156 13.881C64.5156 15.5444 65.7924 16.8315 67.508 16.8315C67.9369 16.8315 68.6052 16.7325 69.2535 16.2771V15.485C69.1538 15.584 68.9144 15.8018 68.5852 15.9701C68.286 16.1286 67.897 16.2375 67.508 16.2375C66.4507 16.2375 65.1739 15.4553 65.1739 13.9008C65.1739 12.5741 66.1614 11.5147 67.498 11.5147C67.8371 11.5147 68.1862 11.6038 68.4954 11.7424C68.7947 11.881 69.064 12.0989 69.2535 12.2771V11.485C68.5653 10.9602 67.897 10.9206 67.5479 10.9206C65.8123 10.9008 64.5156 12.1682 64.5156 13.881Z" fill="#E30613"/>
<path fill-rule="evenodd" clip-rule="evenodd" d="M89.9849 13.7228C89.7654 13.4159 89.3266 13.0693 88.6284 13.0693C87.5411 13.0693 86.8828 13.8911 86.8828 14.9604C86.8828 16.2872 87.7905 16.8218 88.6583 16.8218C89.1171 16.8218 89.5261 16.6733 89.8552 16.3862C90.0348 16.2179 90.1943 16.0099 90.2941 15.8119L89.7754 15.5248C89.6956 15.6931 89.566 15.8812 89.4064 16.0198C89.1969 16.1881 88.9675 16.2773 88.6682 16.2773C88.0399 16.2773 87.5312 15.802 87.5212 15.0693H90.324C90.334 14.5941 90.2043 14.0495 89.9849 13.7228ZM87.5611 14.5545C87.6608 14.0198 88.0897 13.6238 88.6184 13.6238C89.147 13.6238 89.5759 13.9901 89.6757 14.5545H87.5611Z" fill="#E30613"/>
<path fill-rule="evenodd" clip-rule="evenodd" d="M93.0541 14.8317L94.3707 13.1584H93.6127L92.6651 14.3763L91.7375 13.1584H90.9794L92.2861 14.8218L90.75 16.7327H91.5081L92.6452 15.2773L93.7822 16.7327H94.5403L93.0541 14.8317Z" fill="#E30613"/>
<path d="M85.9331 10.4556H85.3047V16.7229H85.9331V10.4556Z" fill="#E30613"/>
<path fill-rule="evenodd" clip-rule="evenodd" d="M60.7445 14.5347C60.3356 14.3664 60.166 14.2872 60.166 14.0297C60.166 13.7525 60.3755 13.6238 60.5949 13.6238C60.8243 13.6238 61.0138 13.7822 61.0936 13.9802L61.6023 13.7129C61.3131 13.099 60.8044 13.0693 60.6148 13.0693C60.0064 13.0693 59.5675 13.4357 59.5675 14.0693C59.5675 14.2476 59.5974 14.4258 59.7271 14.5941C59.8967 14.7921 60.166 14.9307 60.6049 15.1188C60.944 15.2674 61.1834 15.3763 61.1834 15.7129C61.1834 15.9802 61.0038 16.2773 60.5949 16.2773C60.146 16.2773 59.9366 15.8812 59.8667 15.6931L59.3281 15.9208C59.6274 16.8119 60.4353 16.8317 60.5849 16.8317C61.2732 16.8317 61.8218 16.406 61.8218 15.6634C61.8218 15.4654 61.7918 15.2773 61.6322 15.0891C61.5026 14.9109 61.2632 14.7525 60.7445 14.5347Z" fill="#E30613"/>
<path fill-rule="evenodd" clip-rule="evenodd" d="M43.5547 16.7326H44.2629L44.9511 15.1187H47.4148L48.0931 16.7326H48.8013L46.2079 10.7227L43.5547 16.7326ZM45.2005 14.5048L46.188 12.2078L47.1555 14.5048H45.2005Z" fill="#E30613"/>
<path fill-rule="evenodd" clip-rule="evenodd" d="M49.8727 14.9604C49.8727 14.0891 50.4812 13.6238 51.1495 13.6238C51.4687 13.6238 51.9474 13.7426 52.2766 14.1584V13.4159C52.107 13.2971 51.728 13.0693 51.1594 13.0693C50.0523 13.0693 49.2344 13.8713 49.2344 14.9604C49.2344 16.0396 50.0423 16.8218 51.1594 16.8218C51.4986 16.8218 51.9175 16.7327 52.3065 16.4555V15.7129C51.9774 16.1089 51.5185 16.2674 51.1495 16.2674C50.4912 16.2773 49.8727 15.8218 49.8727 14.9604Z" fill="#E30613"/>
<path fill-rule="evenodd" clip-rule="evenodd" d="M57.8083 13.6635C57.6488 13.4457 57.2697 13.0694 56.5815 13.0694C55.6638 13.0694 54.8359 13.7031 54.8359 14.9308C54.8359 16.1882 55.6738 16.8219 56.5815 16.8219C57.2099 16.8219 57.5989 16.4853 57.8083 16.2179V16.713H58.4367V10.4556H57.8083V13.6635ZM56.6513 16.2773C55.9032 16.2773 55.4743 15.7031 55.4743 14.9407C55.4743 14.0694 56.0329 13.6239 56.6513 13.6239C57.2099 13.6239 57.8482 14.0298 57.8482 14.9506C57.8482 15.6536 57.4094 16.2773 56.6513 16.2773Z" fill="#E30613"/>
<path d="M53.8784 13.1584H53.25V16.7228H53.8784V13.1584Z" fill="#E30613"/>
<path fill-rule="evenodd" clip-rule="evenodd" d="M19.3672 16.9702H22.16L23.6562 13.6831H28.4041L29.8604 16.9702H32.6732L26.0202 2.79199L19.3672 16.9702ZM26.2695 8.8712L27.4166 11.4158H24.6636L25.8107 8.8811V8.8712C25.8905 8.67318 25.9603 8.46526 26.0302 8.26724C26.1199 8.47516 26.1897 8.67318 26.2695 8.8712Z" fill="#E30613"/>
<path fill-rule="evenodd" clip-rule="evenodd" d="M22.0133 8.61407H15.8989V5.9705H21.5445L22.7813 3.66357H13.2656V16.9705H15.8989V10.9705H20.8861L22.0133 8.61407Z" fill="#E30613"/>
<path fill-rule="evenodd" clip-rule="evenodd" d="M8.88158 8.3762H3.08639V3.66333H0.453125V16.9703H3.08639V10.7722H8.88158V16.9703H11.5049V3.66333H8.88158V8.3762Z" fill="#E30613"/>
<path d="M38.9093 0.831787H38.3906V19.307H38.9093V0.831787Z" fill="#E30613"/>
<path fill-rule="evenodd" clip-rule="evenodd" d="M31.9148 0.802002H30.7976V3.11883H28.5234V4.19804H30.7976V6.52477H31.9148V4.19804H34.189V3.11883H31.9148V0.802002Z" fill="#E30613"/>
</g>
<defs>
<clipPath id="clip0_10_2750">
<rect width="95" height="20" fill="white"/>
</clipPath>
</defs>
</svg>
