<svg width="95" height="20" viewBox="0 0 95 20" fill="none" xmlns="http://www.w3.org/2000/svg">
<path fill-rule="evenodd" clip-rule="evenodd" d="M69.1601 9.34011C69.8201 9.34011 70.5201 8.93011 71.0301 8.43011L71.6601 9.24011H72.4601L71.4901 7.98011C71.8501 7.62011 72.0701 7.34011 72.2301 7.12011L71.7601 6.73011C71.5901 6.96011 71.4101 7.16011 71.1001 7.49011L69.8901 5.94011C70.2601 5.63011 70.2101 5.70011 70.3601 5.57011C70.8201 5.17011 70.9001 4.79011 70.9001 4.52011C70.9001 3.94011 70.4801 3.36011 69.6801 3.36011C68.8501 3.36011 68.4201 3.98011 68.4201 4.58011C68.4201 4.97011 68.6001 5.32011 68.9901 5.82011C68.8701 5.90011 68.3201 6.24011 68.0201 6.54011C67.8301 6.73011 67.5001 7.11011 67.5001 7.74011C67.4901 8.66011 68.2101 9.34011 69.1601 9.34011ZM69.6601 3.91011C69.9601 3.91011 70.2901 4.10011 70.2901 4.51011C70.2901 4.71011 70.2301 4.92011 69.9001 5.18011L69.5201 5.48011L69.2601 5.12011C69.1501 4.96011 69.0301 4.80011 69.0301 4.55011C69.0101 4.17011 69.3001 3.91011 69.6601 3.91011ZM68.5401 6.89011C68.7101 6.74011 68.9301 6.55011 69.3601 6.29011L70.6501 7.95011C70.4301 8.16011 69.7801 8.75011 69.1601 8.75011C68.5601 8.75011 68.1401 8.30011 68.1401 7.73011C68.1301 7.28011 68.3701 7.04011 68.5401 6.89011Z" fill="white"/>
<path fill-rule="evenodd" clip-rule="evenodd" d="M60.2919 4.71008C60.5319 4.71008 60.7319 4.51008 60.7319 4.27008C60.7319 4.03008 60.5319 3.83008 60.2919 3.83008C60.0519 3.83008 59.8519 4.03008 59.8519 4.27008C59.8419 4.51008 60.0419 4.71008 60.2919 4.71008Z" fill="white"/>
<path d="M60.5987 5.63013H59.9688V9.23013H60.5987V5.63013Z" fill="white"/>
<path fill-rule="evenodd" clip-rule="evenodd" d="M52.2183 7.74013C52.2183 7.99013 52.2183 8.29013 52.0483 8.51013C51.9483 8.63013 51.7583 8.79013 51.4183 8.79013C51.0683 8.79013 50.8783 8.63013 50.7883 8.51013C50.6183 8.28013 50.6183 7.99013 50.6183 7.74013V5.64013H49.9883V7.81013C49.9883 8.25013 50.0283 8.58013 50.3183 8.90013C50.6383 9.24013 51.0683 9.35013 51.4183 9.35013C51.7783 9.35013 52.1983 9.24013 52.5183 8.90013C52.8083 8.59013 52.8483 8.26013 52.8483 7.81013V5.63013H52.2183V7.74013Z" fill="white"/>
<path fill-rule="evenodd" clip-rule="evenodd" d="M57.6312 5.55005C57.3912 5.55005 56.8813 5.58005 56.5413 6.13005C56.4713 6.01005 56.2013 5.55005 55.5513 5.55005C55.1713 5.55005 54.8613 5.72005 54.6613 6.02005V5.63005H54.0312V9.23005H54.6613V7.27005C54.6613 6.84005 54.7412 6.10005 55.4512 6.10005C56.1112 6.10005 56.1113 6.85005 56.1113 7.10005V9.24005H56.7412V7.23005C56.7412 6.80005 56.8213 6.10005 57.5513 6.10005C58.1413 6.10005 58.1913 6.64005 58.1913 7.05005V9.24005H58.8213V6.96005C58.8013 6.44005 58.7012 5.55005 57.6312 5.55005Z" fill="white"/>
<path fill-rule="evenodd" clip-rule="evenodd" d="M45.0289 6.4102H47.9989V9.2402H48.6389V3.4502H47.9989V5.8002H45.0289V3.4502H44.3789V9.2402H45.0289V6.4102Z" fill="white"/>
<path fill-rule="evenodd" clip-rule="evenodd" d="M62.1986 7.45004C62.1986 6.57004 62.8086 6.10004 63.4786 6.10004C63.7986 6.10004 64.2786 6.22004 64.6086 6.64004V5.89004C64.4386 5.77004 64.0586 5.54004 63.4886 5.54004C62.3786 5.54004 61.5586 6.35004 61.5586 7.45004C61.5586 8.54004 62.3686 9.33004 63.4886 9.33004C63.8286 9.33004 64.2486 9.24004 64.6386 8.96004V8.21004C64.3086 8.61004 63.8486 8.77004 63.4786 8.77004C62.8186 8.79004 62.1986 8.33004 62.1986 7.45004Z" fill="white"/>
<path fill-rule="evenodd" clip-rule="evenodd" d="M87.8017 5.63013H87.1017L86.0317 8.07013L84.9517 5.63013H84.2617L86.0317 9.47013L87.8017 5.63013Z" fill="white"/>
<path d="M89.0909 5.63013H88.4609V9.23013H89.0909V5.63013Z" fill="white"/>
<path fill-rule="evenodd" clip-rule="evenodd" d="M91.9709 9.34004C92.3109 9.34004 92.7309 9.25004 93.1209 8.97004V8.22004C92.7909 8.62004 92.3309 8.78004 91.9609 8.78004C91.3209 8.78004 90.6909 8.32004 90.6909 7.44004C90.6909 6.56004 91.3009 6.09004 91.9709 6.09004C92.2909 6.09004 92.7709 6.21004 93.1009 6.63004V5.89004C92.9309 5.77004 92.5509 5.54004 91.9809 5.54004C90.8709 5.54004 90.0509 6.35004 90.0509 7.45004C90.0409 8.54004 90.8509 9.34004 91.9709 9.34004Z" fill="white"/>
<path fill-rule="evenodd" clip-rule="evenodd" d="M88.7681 4.71008C89.0081 4.71008 89.2081 4.51008 89.2081 4.27008C89.2081 4.03008 89.0081 3.83008 88.7681 3.83008C88.5281 3.83008 88.3281 4.03008 88.3281 4.27008C88.3281 4.51008 88.5281 4.71008 88.7681 4.71008Z" fill="white"/>
<path fill-rule="evenodd" clip-rule="evenodd" d="M75.9486 6.3702H77.8786V5.7602H75.9486V4.0502H77.9486V3.4502H75.3086V9.2402H75.9486V6.3702Z" fill="white"/>
<path d="M83.5987 2.91016H82.9688V9.24016H83.5987V2.91016Z" fill="white"/>
<path fill-rule="evenodd" clip-rule="evenodd" d="M81.7897 7.81013V5.63013H81.1597V7.73013C81.1597 7.98013 81.1597 8.28013 80.9897 8.50013C80.8897 8.62013 80.6997 8.78013 80.3597 8.78013C80.0097 8.78013 79.8197 8.62013 79.7297 8.50013C79.5597 8.27013 79.5597 7.98013 79.5597 7.73013V5.63013H78.9297V7.80013C78.9297 8.24013 78.9697 8.57013 79.2597 8.89013C79.5797 9.23013 80.0097 9.34013 80.3597 9.34013C80.7197 9.34013 81.1397 9.23013 81.4597 8.89013C81.7497 8.58013 81.7897 8.25013 81.7897 7.81013Z" fill="white"/>
<path fill-rule="evenodd" clip-rule="evenodd" d="M53.7486 11.52C53.5086 11.52 53.3086 11.72 53.3086 11.96C53.3086 12.2 53.5086 12.4 53.7486 12.4C53.9886 12.4 54.1886 12.2 54.1886 11.96C54.1886 11.72 53.9886 11.52 53.7486 11.52Z" fill="white"/>
<path fill-rule="evenodd" clip-rule="evenodd" d="M78.6508 13.2402C78.4108 13.2402 77.9008 13.2702 77.5608 13.8202C77.4908 13.7002 77.2208 13.2402 76.5708 13.2402C76.1908 13.2402 75.8808 13.4102 75.6808 13.7102V13.3302H75.0508V16.9302H75.6808V14.9702C75.6808 14.5402 75.7608 13.8002 76.4708 13.8002C77.1308 13.8002 77.1308 14.5502 77.1308 14.8002V16.9402H77.7608V14.9302C77.7608 14.5002 77.8408 13.8002 78.5708 13.8002C79.1608 13.8002 79.2108 14.3402 79.2108 14.7502V16.9402H79.8408V14.6602C79.8308 14.1402 79.7208 13.2402 78.6508 13.2402Z" fill="white"/>
<path fill-rule="evenodd" clip-rule="evenodd" d="M72.1795 13.2402C71.0795 13.2402 70.2695 14.0502 70.2695 15.1402C70.2695 16.2302 71.0895 17.0302 72.1795 17.0302C73.2695 17.0302 74.0895 16.2302 74.0895 15.1402C74.0895 14.0502 73.2895 13.2402 72.1795 13.2402ZM72.1795 16.4802C71.5395 16.4802 70.9095 16.0302 70.9095 15.1402C70.9095 14.2602 71.5195 13.7902 72.1795 13.7902C72.8395 13.7902 73.4495 14.2502 73.4495 15.1402C73.4495 16.0202 72.8295 16.4802 72.1795 16.4802Z" fill="white"/>
<path fill-rule="evenodd" clip-rule="evenodd" d="M82.86 13.24C82.6 13.24 82.05 13.3 81.63 13.83V13.33H81V18.97H81.63V16.43C81.9 16.78 82.31 17.04 82.89 17.04C83.98 17.04 84.62 16.15 84.62 15.16C84.61 14.18 83.99 13.24 82.86 13.24ZM82.8 16.48C82.06 16.48 81.59 15.88 81.59 15.14C81.59 14.27 82.21 13.79 82.79 13.79C83.37 13.79 83.97 14.26 83.97 15.14C83.97 15.88 83.53 16.48 82.8 16.48Z" fill="white"/>
<path fill-rule="evenodd" clip-rule="evenodd" d="M64.7305 14.0601C64.7305 15.7401 66.0105 17.0401 67.7305 17.0401C68.1605 17.0401 68.8305 16.9401 69.4805 16.4801V15.6801C69.3805 15.7801 69.1405 16.0001 68.8105 16.1701C68.5105 16.3301 68.1205 16.4401 67.7305 16.4401C66.6705 16.4401 65.3905 15.6501 65.3905 14.0801C65.3905 12.7401 66.3805 11.6701 67.7205 11.6701C68.0605 11.6701 68.4105 11.7601 68.7205 11.9001C69.0205 12.0401 69.2905 12.2601 69.4805 12.4401V11.6401C68.7905 11.1101 68.1205 11.0701 67.7705 11.0701C66.0305 11.0501 64.7305 12.3301 64.7305 14.0601Z" fill="white"/>
<path fill-rule="evenodd" clip-rule="evenodd" d="M90.2584 13.9002C90.0384 13.5902 89.5984 13.2402 88.8984 13.2402C87.8084 13.2402 87.1484 14.0702 87.1484 15.1502C87.1484 16.4902 88.0584 17.0302 88.9284 17.0302C89.3884 17.0302 89.7984 16.8802 90.1284 16.5902C90.3084 16.4202 90.4684 16.2102 90.5684 16.0102L90.0484 15.7202C89.9684 15.8902 89.8384 16.0802 89.6784 16.2202C89.4684 16.3902 89.2384 16.4802 88.9384 16.4802C88.3084 16.4802 87.7984 16.0002 87.7884 15.2602H90.5984C90.6084 14.7802 90.4784 14.2302 90.2584 13.9002ZM87.8284 14.7402C87.9284 14.2002 88.3584 13.8002 88.8884 13.8002C89.4184 13.8002 89.8484 14.1702 89.9484 14.7402H87.8284Z" fill="white"/>
<path fill-rule="evenodd" clip-rule="evenodd" d="M93.3412 15.0201L94.6613 13.3301H93.9013L92.9512 14.5601L92.0212 13.3301H91.2613L92.5713 15.0101L91.0312 16.9401H91.7913L92.9313 15.4701L94.0713 16.9401H94.8313L93.3412 15.0201Z" fill="white"/>
<path d="M86.2003 10.6001H85.5703V16.9301H86.2003V10.6001Z" fill="white"/>
<path fill-rule="evenodd" clip-rule="evenodd" d="M60.9395 14.7202C60.5295 14.5502 60.3595 14.4702 60.3595 14.2102C60.3595 13.9302 60.5695 13.8002 60.7895 13.8002C61.0195 13.8002 61.2095 13.9602 61.2895 14.1602L61.7995 13.8902C61.5095 13.2702 60.9995 13.2402 60.8095 13.2402C60.1995 13.2402 59.7595 13.6102 59.7595 14.2502C59.7595 14.4302 59.7895 14.6102 59.9195 14.7802C60.0895 14.9802 60.3595 15.1202 60.7995 15.3102C61.1395 15.4602 61.3795 15.5702 61.3795 15.9102C61.3795 16.1802 61.1995 16.4802 60.7895 16.4802C60.3395 16.4802 60.1295 16.0802 60.0595 15.8902L59.5195 16.1202C59.8195 17.0202 60.6295 17.0402 60.7795 17.0402C61.4695 17.0402 62.0195 16.6102 62.0195 15.8602C62.0195 15.6602 61.9895 15.4702 61.8295 15.2802C61.6995 15.1002 61.4595 14.9402 60.9395 14.7202Z" fill="white"/>
<path fill-rule="evenodd" clip-rule="evenodd" d="M43.7109 16.9401H44.4209L45.1109 15.3101H47.5809L48.2609 16.9401H48.9709L46.3709 10.8701L43.7109 16.9401ZM45.3609 14.6901L46.3509 12.3701L47.3209 14.6901H45.3609Z" fill="white"/>
<path fill-rule="evenodd" clip-rule="evenodd" d="M50.0499 15.15C50.0499 14.27 50.6599 13.8 51.3299 13.8C51.6499 13.8 52.1299 13.92 52.4599 14.34V13.59C52.2899 13.47 51.9099 13.24 51.3399 13.24C50.2299 13.24 49.4099 14.05 49.4099 15.15C49.4099 16.24 50.2199 17.03 51.3399 17.03C51.6799 17.03 52.0999 16.94 52.4899 16.66V15.91C52.1599 16.31 51.6999 16.47 51.3299 16.47C50.6699 16.48 50.0499 16.02 50.0499 15.15Z" fill="white"/>
<path fill-rule="evenodd" clip-rule="evenodd" d="M57.9995 13.8402C57.8395 13.6202 57.4595 13.2402 56.7695 13.2402C55.8495 13.2402 55.0195 13.8802 55.0195 15.1202C55.0195 16.3902 55.8595 17.0302 56.7695 17.0302C57.3995 17.0302 57.7895 16.6902 57.9995 16.4202V16.9202H58.6295C58.6295 16.9202 61.0855 10.845 58.6295 10.6002C58.3847 10.5758 57.9995 10.6002 57.9995 10.6002V13.8402ZM56.8395 16.4802C56.0895 16.4802 55.6595 15.9002 55.6595 15.1302C55.6595 14.2502 56.2195 13.8002 56.8395 13.8002C57.3995 13.8002 58.0395 14.2102 58.0395 15.1402C58.0395 15.8502 57.5995 16.4802 56.8395 16.4802Z" fill="white"/>
<path d="M54.0597 13.3301H53.4297V16.9301H54.0597V13.3301Z" fill="white"/>
<path fill-rule="evenodd" clip-rule="evenodd" d="M19.4609 17.1801H22.2609L23.7609 13.8601H28.5209L29.9809 17.1801H32.8009L26.1309 2.86011L19.4609 17.1801ZM26.3809 9.00011L27.5309 11.5701H24.7709L25.9209 9.01011V9.00011C26.0009 8.80011 26.0709 8.59011 26.1409 8.39011C26.2309 8.60011 26.3009 8.80011 26.3809 9.00011Z" fill="white"/>
<path fill-rule="evenodd" clip-rule="evenodd" d="M22.1101 8.73999H15.9801V6.06999H21.6401L22.8801 3.73999H13.3401V17.18H15.9801V11.12H20.9801L22.1101 8.73999Z" fill="white"/>
<path fill-rule="evenodd" clip-rule="evenodd" d="M8.95 8.49999H3.14V3.73999H0.5V17.18H3.14V10.92H8.95V17.18H11.58V3.73999H8.95V8.49999Z" fill="white"/>
<path d="M39.0513 0.880127H38.5312V19.5401H39.0513V0.880127Z" fill="white"/>
<path fill-rule="evenodd" clip-rule="evenodd" d="M32.0406 0.850098H30.9206V3.1901H28.6406V4.2801H30.9206V6.6301H32.0406V4.2801H34.3206V3.1901H32.0406V0.850098Z" fill="white"/>
</svg>
