<svg width="97" height="25" viewBox="0 0 97 25" fill="none" xmlns="http://www.w3.org/2000/svg">
<g clip-path="url(#clip0_10_7529)">
<path d="M23.7323 18.4367C23.7323 18.9412 23.5758 19.3608 23.2629 19.6963C22.8981 20.0881 22.3769 20.2835 21.6993 20.2835H20.6924V16.6001H21.6751C22.4273 16.6001 22.9791 16.8127 23.331 17.2375C23.599 17.5593 23.7327 17.9592 23.7327 18.4372L23.7323 18.4367ZM23.3739 18.4367C23.3739 18.052 23.2624 17.7267 23.0398 17.4608C22.7427 17.1091 22.2876 16.933 21.6746 16.933H21.0502V19.9495H21.6988C22.2506 19.9495 22.6785 19.7887 22.9815 19.4669C23.2431 19.1883 23.3739 18.8447 23.3739 18.4367Z" fill="#A9A9A9"/>
<path d="M24.7001 17.2274H24.3418V16.6001H24.7001V17.2274ZM24.7001 20.284H24.3418V17.5613H24.7001V20.284Z" fill="#A9A9A9"/>
<path d="M28.0597 19.8955C28.0597 20.3867 27.926 20.7597 27.6579 21.0155C27.4255 21.2378 27.1175 21.3489 26.7335 21.3489C26.4043 21.3489 26.121 21.2586 25.8841 21.0774C25.6467 20.8968 25.4828 20.6537 25.3925 20.3482H25.7508C25.8382 20.5639 25.9749 20.7313 26.1624 20.8511C26.3332 20.9607 26.5223 21.0155 26.7291 21.0155C27.1293 21.0155 27.4067 20.8678 27.5617 20.5725C27.6555 20.3933 27.7019 20.1675 27.7019 19.8955V19.7463C27.6081 19.9356 27.4748 20.0833 27.3026 20.1893C27.1298 20.2954 26.9255 20.3487 26.6901 20.3487C26.2962 20.3487 25.968 20.2101 25.7049 19.933C25.4418 19.656 25.3105 19.3215 25.3105 18.9302C25.3105 18.539 25.4404 18.1893 25.7005 17.9122C25.9601 17.6351 26.2839 17.4966 26.6713 17.4966C26.9132 17.4966 27.1224 17.5473 27.2981 17.6483C27.4738 17.7498 27.612 17.8965 27.7122 18.0888L27.7221 17.561H28.0612V19.8955H28.0597ZM27.7206 18.9247C27.7206 18.6095 27.6199 18.3482 27.4181 18.1406C27.2162 17.933 26.9684 17.8295 26.6748 17.8295C26.3811 17.8295 26.1476 17.933 25.9556 18.1406C25.7636 18.3482 25.6674 18.6044 25.6674 18.9094C25.6674 19.2144 25.7641 19.4753 25.9581 19.691C26.1516 19.9067 26.3969 20.0148 26.694 20.0148C26.9911 20.0148 27.232 19.9092 27.4275 19.6986C27.6229 19.488 27.7201 19.2297 27.7201 18.9247H27.7206Z" fill="#A9A9A9"/>
<path d="M29.1293 17.2274H28.771V16.6001H29.1293V17.2274ZM29.1293 20.284H28.771V17.5613H29.1293V20.284Z" fill="#A9A9A9"/>
<path d="M31.1194 17.8942H30.5044V20.2835H30.146V17.8942H29.5942V17.5608H30.146V16.6001H30.5044V17.5608H31.1194V17.8942Z" fill="#A9A9A9"/>
<path d="M34.2809 20.2837H33.9419V19.7762C33.7997 19.9853 33.6334 20.1365 33.4434 20.2294C33.282 20.3091 33.1013 20.3487 32.9009 20.3487C32.5007 20.3487 32.164 20.2137 31.8916 19.9432C31.6186 19.6727 31.4824 19.3266 31.4824 18.9054C31.4824 18.5435 31.5984 18.2284 31.8309 17.9594C32.0954 17.6509 32.4488 17.4966 32.8911 17.4966C33.1393 17.4966 33.3471 17.5423 33.513 17.6336C33.6793 17.725 33.8185 17.8584 33.9315 18.0345L33.9414 17.5615H34.2804V20.2842L34.2809 20.2837ZM33.9419 18.9399C33.9419 18.6313 33.8417 18.369 33.6418 18.1533C33.4414 17.9376 33.1916 17.8295 32.8916 17.8295C32.5915 17.8295 32.3536 17.9351 32.1482 18.1457C31.9434 18.3563 31.8408 18.6192 31.8408 18.9348C31.8408 19.2505 31.9449 19.4966 32.1532 19.7037C32.3615 19.9112 32.6107 20.0148 32.9009 20.0148C33.1911 20.0148 33.4335 19.9102 33.6368 19.7011C33.8402 19.492 33.9419 19.2383 33.9419 18.9394V18.9399Z" fill="#A9A9A9"/>
<path d="M35.351 20.2835H34.9927V16.6001H35.351V20.2835Z" fill="#A9A9A9"/>
<path d="M37.2197 18.9545H35.9028V18.6211H37.2197V18.9545Z" fill="#A9A9A9"/>
<path d="M40.4675 20.2837H40.1284V19.7762C39.9862 19.9853 39.8199 20.1365 39.6299 20.2294C39.4685 20.3091 39.2878 20.3487 39.0875 20.3487C38.6872 20.3487 38.3506 20.2137 38.0781 19.9432C37.8052 19.6727 37.6689 19.3266 37.6689 18.9054C37.6689 18.5435 37.7849 18.2284 38.0174 17.9594C38.282 17.6509 38.6353 17.4966 39.0776 17.4966C39.3258 17.4966 39.5336 17.5423 39.6995 17.6336C39.8658 17.725 40.005 17.8584 40.118 18.0345L40.1279 17.5615H40.467V20.2842L40.4675 20.2837ZM40.1284 18.9399C40.1284 18.6313 40.0282 18.369 39.8283 18.1533C39.6279 17.9376 39.3782 17.8295 39.0781 17.8295C38.778 17.8295 38.5401 17.9351 38.3348 18.1457C38.1299 18.3563 38.0273 18.6192 38.0273 18.9348C38.0273 19.2505 38.1314 19.4966 38.3397 19.7037C38.548 19.9112 38.7972 20.0148 39.0875 20.0148C39.3777 20.0148 39.62 19.9102 39.8234 19.7011C40.0267 19.492 40.1284 19.2383 40.1284 18.9394V18.9399Z" fill="#A9A9A9"/>
<path d="M42.5592 17.8945H41.5375V20.2837H41.1792V17.561H42.5587V17.8945H42.5592Z" fill="#A9A9A9"/>
<path d="M45.6626 19.0536H43.2955C43.2955 19.3226 43.3937 19.5499 43.5907 19.7357C43.7876 19.9214 44.0245 20.0143 44.3024 20.0143C44.5057 20.0143 44.6898 19.959 44.8542 19.8473C45.0185 19.7362 45.1429 19.586 45.2268 19.3967H45.5995C45.4929 19.692 45.325 19.9245 45.096 20.0935C44.867 20.2625 44.6025 20.3472 44.3019 20.3472C43.908 20.3472 43.5798 20.2122 43.3167 19.9417C43.0537 19.6712 42.9224 19.3317 42.9224 18.9237C42.9224 18.5553 43.0384 18.2335 43.2708 17.9579C43.5324 17.6494 43.8759 17.4951 44.3019 17.4951C44.7634 17.4951 45.1153 17.6661 45.3571 18.0077C45.5605 18.2929 45.6621 18.6415 45.6621 19.0531L45.6626 19.0536ZM45.2752 18.7202C45.2268 18.4482 45.1123 18.2315 44.9317 18.0706C44.751 17.9097 44.5413 17.829 44.3024 17.829C44.0472 17.829 43.8271 17.9113 43.6415 18.0757C43.4559 18.2401 43.3404 18.4548 43.2955 18.7202H45.2757H45.2752Z" fill="#A9A9A9"/>
<path d="M48.4703 20.2837H48.112V19.0541H46.6308V20.2837H46.2725V17.561H46.6308V18.7207H48.112V17.561H48.4703V20.2837Z" fill="#A9A9A9"/>
<path d="M51.7868 18.3872H51.385C51.2977 18.2116 51.1753 18.0746 51.0168 17.9767C50.8589 17.8787 50.6842 17.83 50.4941 17.83C50.1876 17.83 49.9349 17.9335 49.7365 18.1411C49.5381 18.3487 49.4389 18.6065 49.4389 18.915C49.4389 19.2236 49.542 19.4844 49.7489 19.6966C49.9552 19.9092 50.2039 20.0153 50.4946 20.0153C50.6787 20.0153 50.8495 19.9696 51.0079 19.8782C51.1659 19.7869 51.2917 19.657 51.3855 19.4875H51.7823C51.6728 19.7295 51.5272 19.9239 51.3465 20.0701C51.1111 20.2558 50.8268 20.3487 50.4946 20.3487C50.0652 20.3487 49.7168 20.1995 49.4488 19.9006C49.2035 19.6285 49.0811 19.3017 49.0811 18.9201C49.0811 18.5583 49.2005 18.2401 49.4394 17.9645C49.7104 17.6524 50.0623 17.4966 50.4946 17.4966C50.7947 17.4966 51.0588 17.5763 51.2863 17.7356C51.5138 17.895 51.6807 18.1122 51.7873 18.3877L51.7868 18.3872Z" fill="#A9A9A9"/>
<path d="M53.892 17.8945H53.2094V20.2837H52.8511V17.8945H52.1685V17.561H53.892V17.8945Z" fill="#A9A9A9"/>
<path d="M56.1871 19.4971C56.1871 19.7229 56.116 19.9072 55.9738 20.0498C55.8189 20.2056 55.6061 20.2837 55.3347 20.2837H54.3569V17.561H55.3056C55.5864 17.561 55.7947 17.6407 55.9299 17.8001C56.0365 17.9264 56.0898 18.0888 56.0898 18.2878C56.0898 18.4141 56.0583 18.5268 55.9956 18.6263C55.9329 18.7257 55.846 18.8003 55.7364 18.8501C55.8722 18.8866 55.9808 18.9637 56.0632 19.0815C56.1456 19.1992 56.1866 19.3378 56.1866 19.4971H56.1871ZM55.732 18.2878C55.732 18.1553 55.694 18.0563 55.6185 17.9914C55.5425 17.9269 55.4304 17.8945 55.2819 17.8945H54.7153V18.7207H55.2819C55.424 18.7207 55.5346 18.6816 55.6136 18.6034C55.6925 18.5253 55.732 18.4202 55.732 18.2873V18.2878ZM55.8287 19.5022C55.8287 19.356 55.7819 19.2449 55.6886 19.1688C55.5948 19.0926 55.464 19.0541 55.2967 19.0541H54.7158V19.9503H55.2967C55.4872 19.9503 55.6274 19.9006 55.7177 19.8011C55.7917 19.7214 55.8292 19.622 55.8292 19.5022H55.8287Z" fill="#A9A9A9"/>
<path d="M59.4501 18.9242C59.4501 19.3292 59.3178 19.6677 59.0532 19.9397C58.7887 20.2117 58.4595 20.3477 58.0656 20.3477C57.6717 20.3477 57.3504 20.2117 57.0829 19.9397C56.8149 19.6677 56.6812 19.3292 56.6812 18.9242C56.6812 18.5192 56.8124 18.1802 57.0755 17.9062C57.3386 17.6326 57.6688 17.4956 58.0656 17.4956C58.4624 17.4956 58.7887 17.6316 59.0532 17.9036C59.3178 18.1756 59.4501 18.5157 59.4501 18.9242ZM59.0917 18.9242C59.0917 18.6156 58.994 18.3558 58.799 18.1452C58.6036 17.9346 58.3593 17.829 58.0656 17.829C57.7719 17.829 57.5232 17.9336 57.3297 18.1427C57.1362 18.3517 57.039 18.6121 57.039 18.9242C57.039 19.2363 57.1357 19.4916 57.3297 19.7007C57.5232 19.9097 57.7685 20.0143 58.0656 20.0143C58.3627 20.0143 58.6036 19.9108 58.799 19.7032C58.9945 19.4956 59.0917 19.2363 59.0917 18.9242Z" fill="#A9A9A9"/>
<path d="M63.4825 20.2837H63.1242V17.8945H61.643V20.2837H61.2847V17.561H63.4825V20.2837Z" fill="#A9A9A9"/>
<path d="M66.8622 18.9242C66.8622 19.3292 66.7299 19.6677 66.4653 19.9397C66.2008 20.2117 65.8716 20.3477 65.4777 20.3477C65.0839 20.3477 64.7625 20.2117 64.495 19.9397C64.227 19.6677 64.0933 19.3292 64.0933 18.9242C64.0933 18.5192 64.2246 18.1802 64.4876 17.9062C64.7507 17.6326 65.0809 17.4956 65.4777 17.4956C65.8745 17.4956 66.2008 17.6316 66.4653 17.9036C66.7299 18.1756 66.8622 18.5157 66.8622 18.9242ZM66.5038 18.9242C66.5038 18.6156 66.4061 18.3558 66.2112 18.1452C66.0157 17.9346 65.7714 17.829 65.4777 17.829C65.184 17.829 64.9353 17.9336 64.7418 18.1427C64.5483 18.3517 64.4511 18.6121 64.4511 18.9242C64.4511 19.2363 64.5478 19.4916 64.7418 19.7007C64.9353 19.9097 65.1806 20.0143 65.4777 20.0143C65.7748 20.0143 66.0157 19.9108 66.2112 19.7032C66.4066 19.4956 66.5038 19.2363 66.5038 18.9242Z" fill="#A9A9A9"/>
<path d="M69.8344 20.2837H69.4469L68.5175 18.0289L67.5881 20.2837H67.2007L68.3334 17.561H68.7061L69.8339 20.2837H69.8344Z" fill="#A9A9A9"/>
<path d="M72.4776 20.2837H72.1193V19.0541H70.6381V20.2837H70.2798V17.561H70.6381V18.7207H72.1193V17.561H72.4776V20.2837Z" fill="#A9A9A9"/>
<path d="M75.8568 18.9242C75.8568 19.3292 75.7245 19.6677 75.46 19.9397C75.1954 20.2117 74.8662 20.3477 74.4723 20.3477C74.0785 20.3477 73.7572 20.2117 73.4896 19.9397C73.2216 19.6677 73.0879 19.3292 73.0879 18.9242C73.0879 18.5192 73.2192 18.1802 73.4822 17.9062C73.7453 17.6326 74.0755 17.4956 74.4723 17.4956C74.8692 17.4956 75.1954 17.6316 75.46 17.9036C75.7245 18.1756 75.8568 18.5157 75.8568 18.9242ZM75.4985 18.9242C75.4985 18.6156 75.4007 18.3558 75.2058 18.1452C75.0103 17.9346 74.766 17.829 74.4723 17.829C74.1787 17.829 73.9299 17.9336 73.7364 18.1427C73.543 18.3517 73.4457 18.6121 73.4457 18.9242C73.4457 19.2363 73.5425 19.4916 73.7364 19.7007C73.9299 19.9097 74.1752 20.0143 74.4723 20.0143C74.7695 20.0143 75.0103 19.9108 75.2058 19.7032C75.4012 19.4956 75.4985 19.2363 75.4985 18.9242Z" fill="#A9A9A9"/>
<path d="M77.8419 17.8945H76.8202V20.2837H76.4619V17.561H77.8419V17.8945Z" fill="#A9A9A9"/>
<path d="M80.974 18.9242C80.974 19.3292 80.8417 19.6677 80.5772 19.9397C80.3126 20.2117 79.9834 20.3477 79.5895 20.3477C79.1957 20.3477 78.8744 20.2117 78.6068 19.9397C78.3388 19.6677 78.2051 19.3292 78.2051 18.9242C78.2051 18.5192 78.3364 18.1802 78.5994 17.9062C78.8625 17.6326 79.1927 17.4956 79.5895 17.4956C79.9864 17.4956 80.3126 17.6316 80.5772 17.9036C80.8417 18.1756 80.974 18.5157 80.974 18.9242ZM80.6157 18.9242C80.6157 18.6156 80.5179 18.3558 80.323 18.1452C80.1275 17.9346 79.8832 17.829 79.5895 17.829C79.2959 17.829 79.0471 17.9336 78.8536 18.1427C78.6601 18.3517 78.5629 18.6121 78.5629 18.9242C78.5629 19.2363 78.6597 19.4916 78.8536 19.7007C79.0471 19.9097 79.2924 20.0143 79.5895 20.0143C79.8867 20.0143 80.1275 19.9108 80.323 19.7032C80.5184 19.4956 80.6157 19.2363 80.6157 18.9242Z" fill="#A9A9A9"/>
<path d="M85.4472 20.9759H85.0889V20.2842H82.8086V17.5615H83.1669V19.9508H84.658V17.5615H85.0163V19.9508H85.4472V20.9764V20.9759Z" fill="#A9A9A9"/>
<path d="M88.2067 20.2837H87.8484V18.0837L86.27 20.2837H85.9116V17.561H86.27V19.761L87.8484 17.561H88.2067V20.2837Z" fill="#A9A9A9"/>
<path d="M89.2768 20.2837H88.9185V17.561H89.2768V20.2837ZM91.0102 20.2837H90.5502L89.4851 18.9049L90.5211 17.561H90.9421L89.9253 18.8754L91.0097 20.2842L91.0102 20.2837Z" fill="#A9A9A9"/>
<path d="M93.8085 20.2837H93.421L92.4916 18.0289L91.5623 20.2837H91.1748L92.3075 17.561H92.6802L93.808 20.2837H93.8085Z" fill="#A9A9A9"/>
<path d="M96.9504 20.2837H96.6113V19.7762C96.4692 19.9853 96.3028 20.1365 96.1128 20.2294C95.9514 20.3091 95.7708 20.3487 95.5704 20.3487C95.1701 20.3487 94.8335 20.2137 94.561 19.9432C94.2881 19.6727 94.1519 19.3266 94.1519 18.9054C94.1519 18.5435 94.2678 18.2284 94.5003 17.9594C94.7649 17.6509 95.1183 17.4966 95.5605 17.4966C95.8093 17.4966 96.0165 17.5423 96.1824 17.6336C96.3487 17.725 96.4879 17.8584 96.6009 18.0345L96.6108 17.5615H96.9499V20.2842L96.9504 20.2837ZM96.6113 18.9399C96.6113 18.6313 96.5111 18.369 96.3112 18.1533C96.1108 17.9376 95.8611 17.8295 95.561 17.8295C95.2609 17.8295 95.023 17.9351 94.8177 18.1457C94.6124 18.3563 94.5102 18.6192 94.5102 18.9348C94.5102 19.2505 94.6143 19.4966 94.8226 19.7037C95.0309 19.9112 95.2801 20.0148 95.5704 20.0148C95.8606 20.0148 96.1029 19.9102 96.3063 19.7011C96.5096 19.492 96.6113 19.2383 96.6113 18.9394V18.9399Z" fill="#A9A9A9"/>
<path d="M22.2792 13.3151H20.6875V4.47461H22.2792V13.3151Z" fill="#A9A9A9"/>
<path d="M30.2035 11.152C29.9557 11.8767 29.5584 12.4522 29.0125 12.8784C28.4666 13.3047 27.8023 13.5174 27.02 13.5174C25.8888 13.5174 24.9944 13.1327 24.336 12.3623C23.7551 11.6879 23.4644 10.886 23.4644 9.95733C23.4644 9.02863 23.7432 8.30647 24.301 7.64724C24.9515 6.87737 25.8384 6.49219 26.9618 6.49219C27.7594 6.49219 28.4449 6.70889 29.0185 7.14279C29.5915 7.57669 29.9868 8.15625 30.2035 8.88145H28.4607C28.3136 8.58711 28.1103 8.36584 27.8507 8.21867C27.5911 8.0715 27.287 7.9974 26.9386 7.9974C26.3418 7.9974 25.8715 8.18974 25.527 8.57341C25.1825 8.95758 25.0097 9.4265 25.0097 9.98068C25.0097 10.5349 25.1839 11.0418 25.5324 11.4296C25.8809 11.8173 26.3497 12.0117 26.9381 12.0117C27.3023 12.0117 27.6078 11.9401 27.8561 11.7965C28.1039 11.6529 28.3052 11.4382 28.4602 11.1515H30.203L30.2035 11.152Z" fill="#A9A9A9"/>
<path d="M37.6395 10.0075V10.1862C37.6395 10.3531 37.6277 10.5277 37.6045 10.7104H32.5617C32.6624 11.1052 32.8658 11.4209 33.1718 11.6574C33.4778 11.8939 33.8361 12.0126 34.2468 12.0126C34.5177 12.0126 34.7695 11.9695 35.0019 11.8837C35.2808 11.7741 35.5093 11.6143 35.6875 11.4031H37.4303C37.1435 12.0923 36.7195 12.6171 36.1579 12.9774C35.5962 13.3377 34.9787 13.5178 34.3045 13.5178C33.2355 13.5178 32.3796 13.1291 31.7365 12.3511C31.1788 11.6767 30.8999 10.9104 30.8999 10.0532C30.8999 9.19606 31.1788 8.39828 31.7365 7.70759C32.387 6.89814 33.2508 6.49316 34.3277 6.49316C35.3035 6.49316 36.0996 6.82862 36.7156 7.50003C37.3316 8.17093 37.6395 9.00677 37.6395 10.0075ZM36.0246 9.3006C35.916 8.89055 35.7067 8.57032 35.3973 8.34144C35.0873 8.11257 34.731 7.99838 34.3282 7.99838C33.9255 7.99838 33.54 8.11713 33.2187 8.35362C32.8974 8.59012 32.6708 8.90577 32.539 9.3006H36.0246Z" fill="#A9A9A9"/>
<path d="M50.3621 13.3146H48.7704V6.69591L46.5977 13.3146H45.2498L43.0771 6.69591V13.3146H41.4854V4.47412H43.6467L45.924 11.2359L48.2013 4.47412H50.3626V13.3146H50.3621Z" fill="#A9A9A9"/>
<path d="M58.1937 13.3149H56.7762V12.4186C56.5206 12.7734 56.2047 13.0449 55.8291 13.2342C55.4535 13.4229 55.0448 13.5178 54.6031 13.5178C53.7507 13.5178 53.0227 13.2083 52.4185 12.5891C51.7754 11.9304 51.4541 11.089 51.4541 10.0649C51.4541 9.04077 51.7621 8.18971 52.3776 7.51119C52.9935 6.83268 53.7507 6.49316 54.649 6.49316C55.5472 6.49316 56.2797 6.87175 56.752 7.62791L56.7752 6.69616H58.1928V13.3149H58.1937ZM56.7412 9.99383C56.7412 9.4158 56.5729 8.93876 56.2358 8.56271C55.8987 8.18666 55.4515 7.99838 54.8938 7.99838C54.336 7.99838 53.8903 8.19275 53.5345 8.58047C53.1781 8.9682 53 9.463 53 10.0649C53 10.6272 53.1762 11.0926 53.5286 11.4605C53.881 11.8284 54.336 12.0126 54.8938 12.0126C55.4515 12.0126 55.8893 11.8269 56.2298 11.4544C56.5704 11.0824 56.7412 10.5952 56.7412 9.99333V9.99383Z" fill="#A9A9A9"/>
<path d="M62.3761 8.02216C61.9111 8.02216 61.5647 8.16781 61.3361 8.45809C61.1076 8.74889 60.9931 9.17721 60.9931 9.74255V13.3148H59.4478V6.69609H60.8653V7.2934C61.1826 6.74379 61.6357 6.46924 62.2246 6.46924H62.3756V8.02216H62.3761Z" fill="#A9A9A9"/>
<path d="M68.9871 13.3146H66.9191L64.7114 10.2204V13.3146H63.166V4.47412H64.7114V9.81444L66.7794 6.69642H68.6036L66.2799 9.93421L68.9871 13.3151V13.3146Z" fill="#A9A9A9"/>
<path d="M76.3651 10.0075V10.1862C76.3651 10.3531 76.3533 10.5277 76.3301 10.7104H71.2873C71.388 11.1052 71.5914 11.4209 71.8974 11.6574C72.2034 11.8939 72.5617 12.0126 72.9724 12.0126C73.2433 12.0126 73.495 11.9695 73.7275 11.8837C74.0064 11.7741 74.2349 11.6143 74.4131 11.4031H76.1559C75.8691 12.0923 75.4451 12.6171 74.8834 12.9774C74.3218 13.3377 73.7043 13.5178 73.0301 13.5178C71.961 13.5178 71.1052 13.1291 70.4621 12.3511C69.9044 11.6767 69.6255 10.9104 69.6255 10.0532C69.6255 9.19606 69.9044 8.39828 70.4621 7.70759C71.1126 6.89814 71.9763 6.49316 73.0533 6.49316C74.0291 6.49316 74.8252 6.82862 75.4412 7.50003C76.0571 8.17093 76.3651 9.00677 76.3651 10.0075ZM74.7502 9.3006C74.6416 8.89055 74.4323 8.57032 74.1229 8.34144C73.8129 8.11257 73.4565 7.99838 73.0538 7.99838C72.651 7.99838 72.2656 8.11713 71.9443 8.35362C71.6229 8.59012 71.3964 8.90577 71.2646 9.3006H74.7502Z" fill="#A9A9A9"/>
<path d="M80.0483 8.10574H79.1189V13.3146H77.5735V8.10574H76.8184V6.69593H77.5735V4.47363H79.1189V6.69593H80.0483V8.10574Z" fill="#A9A9A9"/>
<path d="M82.372 5.93163H80.8267V4.47412H82.372V5.93163ZM82.372 13.3146H80.8267V6.69591H82.372V13.3146Z" fill="#A9A9A9"/>
<path d="M89.3317 13.3149H87.7864V9.80251C87.7864 9.13364 87.6467 8.64797 87.3683 8.345C87.1511 8.10597 86.8609 7.98671 86.4967 7.98671C85.9463 7.98671 85.5673 8.21356 85.358 8.66776C85.2262 8.94688 85.1606 9.32496 85.1606 9.80251V13.3149H83.6152V6.69616H85.0328V7.30566C85.2262 7.08591 85.4202 6.91743 85.6137 6.79918C85.9621 6.59517 86.3649 6.49316 86.8219 6.49316C87.581 6.49316 88.1891 6.75554 88.6462 7.28028C89.1032 7.80503 89.3317 8.52871 89.3317 9.45082V13.3149Z" fill="#A9A9A9"/>
<path d="M97.0004 12.311C97.0004 13.4417 96.648 14.3339 95.9432 14.987C95.3 15.5843 94.4985 15.8833 93.538 15.8833C92.7557 15.8833 92.0721 15.6721 91.4872 15.2499C90.9024 14.8277 90.513 14.2304 90.3195 13.458H92.0973C92.1901 13.7523 92.3663 13.9797 92.6259 14.139C92.8855 14.2984 93.1896 14.378 93.538 14.378C94.0725 14.378 94.5256 14.203 94.8973 13.8523C95.269 13.5016 95.455 13.0799 95.455 12.5861V12.3471C95.1915 12.7054 94.9032 12.9682 94.5893 13.1357C94.2754 13.3032 93.9171 13.3864 93.5143 13.3864C92.6155 13.3864 91.849 13.0484 91.2138 12.3729C90.5786 11.697 90.2612 10.8779 90.2612 9.91619C90.2612 8.95449 90.5806 8.09328 91.2197 7.45334C91.8589 6.81339 92.6353 6.49316 93.5494 6.49316C93.9057 6.49316 94.227 6.55254 94.5138 6.67028C94.9629 6.85145 95.3114 7.16254 95.5597 7.60406L95.5829 6.69616H97.0004V12.311ZM95.5478 9.96338C95.5478 9.3681 95.3775 8.89156 95.0365 8.53429C94.6954 8.17702 94.2423 7.99838 93.6772 7.99838C93.1121 7.99838 92.6313 8.19275 92.2829 8.582C91.965 8.93927 91.8066 9.38028 91.8066 9.90401C91.8066 10.4597 91.965 10.9205 92.2829 11.2854C92.6313 11.6823 93.0963 11.8807 93.6772 11.8807C94.2581 11.8807 94.6959 11.698 95.0365 11.3326C95.377 10.9677 95.5478 10.511 95.5478 9.96288V9.96338Z" fill="#A9A9A9"/>
<g style="mix-blend-mode:luminosity">
<path d="M0 16.2056L3.73876 24.9999H5.62122L0 16.2056Z" fill="url(#paint0_linear_10_7529)"/>
<path d="M2.60899 13.9937L0 16.2058L5.62122 25.0001L2.60899 13.9937Z" fill="url(#paint1_linear_10_7529)"/>
<path d="M0.484375 6.69238L5.62141 25.0001H8.79504L0.484375 6.69238Z" fill="url(#paint2_linear_10_7529)"/>
<path d="M13.8515 17.2568L8.79492 25.0001H10.8393L13.8515 17.2568Z" fill="url(#paint3_linear_10_7529)"/>
<path d="M11.9686 11.3384L13.8515 17.2567L8.79492 25L11.9686 11.3384Z" fill="url(#paint4_linear_10_7529)"/>
<path d="M5.40621 0L0.484375 6.69228L6.0518 3.78892L5.40621 0Z" fill="url(#paint5_linear_10_7529)"/>
<path d="M9.19881 2.29538L6.05183 3.78892L5.40625 0L9.19881 2.29538Z" fill="url(#paint6_linear_10_7529)"/>
<path d="M0.484375 6.69238L11.9687 11.3385L8.79504 25.0001L0.484375 6.69238Z" fill="white"/>
<path d="M6.75562 9.22936L6.0518 3.78906L0.484375 6.69242L6.75562 9.22936Z" fill="url(#paint7_linear_10_7529)"/>
<path d="M8.795 25L9.19873 2.29541L6.05176 3.78896L8.795 25Z" fill="url(#paint8_linear_10_7529)"/>
<path d="M0.484375 6.69238L11.9687 11.3385L8.79504 25.0001L0.484375 6.69238Z" fill="url(#paint9_linear_10_7529)"/>
<path d="M8.79479 24.9998L9.05835 10.1608L6.75537 9.229L8.79479 24.9998Z" fill="url(#paint10_linear_10_7529)"/>
</g>
</g>
<defs>
<linearGradient id="paint0_linear_10_7529" x1="2.81086" y1="15.49" x2="2.81086" y2="26.2463" gradientUnits="userSpaceOnUse">
<stop stop-color="#82F3F3"/>
<stop offset="0.92" stop-color="#4AEDED"/>
</linearGradient>
<linearGradient id="paint1_linear_10_7529" x1="0" y1="19.4969" x2="5.62122" y2="19.4969" gradientUnits="userSpaceOnUse">
<stop stop-color="#0072FD"/>
<stop offset="0.61" stop-color="#34E1F2"/>
</linearGradient>
<linearGradient id="paint2_linear_10_7529" x1="-1.44399" y1="7.83728" x2="8.75754" y2="25.0222" gradientUnits="userSpaceOnUse">
<stop offset="0.22" stop-color="#0078CC"/>
<stop offset="0.5" stop-color="#00C4FF"/>
</linearGradient>
<linearGradient id="paint3_linear_10_7529" x1="8.79492" y1="21.1285" x2="13.8515" y2="21.1285" gradientUnits="userSpaceOnUse">
<stop stop-color="#82F3F3"/>
<stop offset="0.92" stop-color="#4AEDED"/>
</linearGradient>
<linearGradient id="paint4_linear_10_7529" x1="7.90206" y1="13.7525" x2="13.0718" y2="22.4613" gradientUnits="userSpaceOnUse">
<stop offset="0.31" stop-color="#2FC8EC"/>
<stop offset="0.92" stop-color="#0E9BEA"/>
</linearGradient>
<linearGradient id="paint5_linear_10_7529" x1="1.96063" y1="7.56871" x2="6.18065" y2="0.45998" gradientUnits="userSpaceOnUse">
<stop offset="0.28" stop-color="#47EAED"/>
<stop offset="0.93" stop-color="#4AEDED"/>
</linearGradient>
<linearGradient id="paint6_linear_10_7529" x1="5.25226" y1="2.36491" x2="8.2823" y2="0.663235" gradientUnits="userSpaceOnUse">
<stop stop-color="#2FC8EC"/>
<stop offset="0.72" stop-color="#2FC8EC"/>
</linearGradient>
<linearGradient id="paint7_linear_10_7529" x1="2.6689" y1="8.93908" x2="6.98141" y2="4.7449" gradientUnits="userSpaceOnUse">
<stop offset="0.28" stop-color="#41E2ED"/>
<stop offset="0.93" stop-color="#22B6EB"/>
</linearGradient>
<linearGradient id="paint8_linear_10_7529" x1="7.1149" y1="2.67298" x2="11.0874" y2="24.5841" gradientUnits="userSpaceOnUse">
<stop offset="0.28" stop-color="#1190ED"/>
<stop offset="0.93" stop-color="#01299A"/>
</linearGradient>
<linearGradient id="paint9_linear_10_7529" x1="6.22652" y1="6.69238" x2="6.22652" y2="25.0001" gradientUnits="userSpaceOnUse">
<stop offset="0.31" stop-color="#2AC1EB"/>
<stop offset="1" stop-color="#0235F9"/>
</linearGradient>
<linearGradient id="paint10_linear_10_7529" x1="7.47252" y1="9.09909" x2="10.3052" y2="24.7257" gradientUnits="userSpaceOnUse">
<stop offset="0.28" stop-color="#1190ED"/>
<stop offset="0.93" stop-color="#01299A"/>
</linearGradient>
<clipPath id="clip0_10_7529">
<rect width="97" height="25" fill="white"/>
</clipPath>
</defs>
</svg>
