<svg width="82" height="105" viewBox="0 0 82 105" fill="none" xmlns="http://www.w3.org/2000/svg">
<path d="M41 0C30.1299 0.0124067 19.7086 4.3624 12.0222 12.0957C4.33592 19.8289 0.0123314 30.3139 0 41.2504C0 76.5476 37.2727 103.206 38.8615 104.321C39.4882 104.763 40.2348 105 41 105C41.7652 105 42.5118 104.763 43.1385 104.321C44.7273 103.206 82 76.5476 82 41.2504C81.9877 30.3139 77.6641 19.8289 69.9778 12.0957C62.2914 4.3624 51.8701 0.0124067 41 0Z" fill="#C40000"/>
<circle cx="41" cy="40" r="30" fill="white"/>
<g clip-path="url(#clip0_1_76)">
<path d="M61.3346 27.4047C61.4227 27.267 61.6173 27.0412 61.2236 27.0403C59.4258 27.0385 57.6281 27.0421 55.8304 27.0421C55.7097 27.0421 55.6313 27.0643 55.5529 27.1914C54.887 28.2686 54.2061 29.3369 53.5288 30.4079C52.4744 32.0734 51.421 33.739 50.3658 35.4045C49.3986 36.9306 48.4306 38.4566 47.46 39.9799C47.2741 40.2723 47.2186 40.2715 47.0328 39.9755C46.0603 38.4264 45.0932 36.8746 44.1164 35.3281C44.0036 35.1495 44.0195 35.0135 44.1287 34.8482C44.8792 33.7123 45.6252 32.5747 46.3704 31.4353C47.2688 30.0613 48.1629 28.6837 49.0648 27.3114C49.2049 27.099 49.1705 27.0323 48.9177 27.0332C47.1314 27.0394 45.3451 27.0403 43.5597 27.0377C43.3906 27.0377 43.2928 27.0865 43.1977 27.2412C42.5996 28.2091 41.9848 29.1663 41.377 30.1279C41.1568 30.4763 41.0996 30.479 40.8864 30.1386C40.2822 29.1743 39.6735 28.2117 39.0772 27.2421C38.9927 27.1052 38.9116 27.0412 38.7496 27.0412C36.8699 27.0439 34.9902 27.0412 33.1115 27.0359C32.864 27.0359 32.8622 27.1221 32.9829 27.3052C33.6074 28.2562 34.2266 29.2107 34.8467 30.1652C35.8896 31.7686 36.9307 33.3719 37.9753 34.9744C38.089 35.1486 38.1039 35.2926 37.9789 35.4863C37.0082 36.9946 36.049 38.5117 35.0915 40.0288C34.9594 40.2377 34.8661 40.2706 34.7216 40.0368C34.002 38.8681 33.2744 37.7038 32.5477 36.5395C31.6405 35.0864 30.7315 33.635 29.8243 32.1819C28.799 30.5403 27.7711 28.8996 26.7573 27.251C26.6613 27.0945 26.5635 27.0403 26.3988 27.0403C24.5306 27.0412 22.6632 27.0403 20.795 27.0385C20.5907 27.0385 20.5026 27.0732 20.6514 27.2998C21.4671 28.545 22.2686 29.8 23.0799 31.0496C24.5922 33.3799 26.109 35.7076 27.6213 38.0371C29.0844 40.2901 30.5395 42.5476 32.0122 44.7935C32.1831 45.0539 32.2641 45.3046 32.2632 45.6121C32.258 49.2756 32.2632 52.9382 32.2536 56.6017C32.2536 56.9128 32.3355 57.0026 32.6455 56.9999C34.1279 56.9848 35.6103 56.9866 37.0928 56.9999C37.4002 57.0026 37.4838 56.9066 37.4812 56.5973C37.4662 54.7247 37.4741 52.852 37.4741 50.9794H37.4759C37.4759 49.1298 37.4794 47.2812 37.4724 45.4317C37.4715 45.1739 37.5279 44.9615 37.6723 44.742C38.7082 43.1786 39.7299 41.6064 40.7561 40.0359C40.9886 39.6804 41.0186 39.6778 41.244 40.0244C42.2931 41.6348 43.3404 43.2453 44.385 44.8575C44.5039 45.0415 44.6061 45.2246 44.6052 45.4717C44.5955 49.1823 44.6008 52.892 44.5885 56.6026C44.5876 56.9226 44.6872 57.0008 44.9858 56.9981C46.4567 56.9857 47.9277 56.9812 49.3978 56.9999C49.7369 57.0043 49.7994 56.8888 49.7985 56.5733C49.788 52.8511 49.7932 49.129 49.788 45.4068C49.788 45.1846 49.8338 44.9926 49.9553 44.8095C50.2337 44.3891 50.5041 43.9634 50.7798 43.5421C52.3564 41.1389 53.9366 38.7383 55.5097 36.3333C56.9922 34.0669 58.4675 31.7961 59.9464 29.528C60.408 28.8205 60.8774 28.1175 61.3328 27.4056L61.3346 27.4047Z" fill="#C40000"/>
</g>
<defs>
<clipPath id="clip0_1_76">
<rect width="42" height="30" fill="white" transform="translate(20 27)"/>
</clipPath>
</defs>
</svg>
