<svg width="250" height="100" viewBox="0 0 250 100" fill="none" xmlns="http://www.w3.org/2000/svg">
<g clip-path="url(#clip0_13_265)">
<path d="M56.6549 94.6458C56.6549 92.8832 57.133 91.5039 58.0915 90.5056C59.0477 89.5096 60.2848 89.0093 61.798 89.0093C62.789 89.0093 63.6825 89.2434 64.4786 89.7115C65.2746 90.1797 65.8804 90.8338 66.2981 91.6715C66.7159 92.5092 66.9248 93.4593 66.9248 94.5219C66.9248 95.5844 66.7043 96.5621 66.2656 97.4113C65.827 98.2604 65.2027 98.9053 64.3973 99.3414C63.592 99.7774 62.7217 99.9977 61.7887 99.9977C60.7768 99.9977 59.874 99.7568 59.0779 99.2725C58.2818 98.7906 57.6784 98.1296 57.2676 97.2942C56.8568 96.4588 56.6526 95.5753 56.6526 94.6435L56.6549 94.6458ZM58.1194 94.6687C58.1194 95.9494 58.4675 96.9569 59.1638 97.6936C59.86 98.4302 60.7327 98.7974 61.7817 98.7974C62.8308 98.7974 63.7313 98.4257 64.4229 97.6821C65.1145 96.9385 65.4603 95.8828 65.4603 94.5173C65.4603 93.6521 65.3118 92.8993 65.017 92.2544C64.7223 91.6095 64.2883 91.1092 63.7196 90.7558C63.151 90.4001 62.5128 90.2233 61.8049 90.2233C60.8 90.2233 59.9343 90.5653 59.2079 91.2492C58.4838 91.9331 58.1194 93.0737 58.1194 94.671V94.6687Z" fill="#C40000"/>
<path d="M68.7795 99.8187V89.1997H73.542C74.4982 89.1997 75.2269 89.2961 75.7259 89.4866C76.2249 89.6771 76.6218 90.0144 76.9189 90.4964C77.2159 90.9783 77.3668 91.5131 77.3668 92.0983C77.3668 92.851 77.1208 93.4868 76.6264 94.0031C76.1321 94.5195 75.3708 94.8477 74.3404 94.9877C74.7163 95.1667 75.0018 95.3434 75.1968 95.5155C75.6122 95.8919 76.0044 96.3624 76.3758 96.927L78.2441 99.8164H76.457L75.0366 97.6063C74.6212 96.9683 74.28 96.4817 74.0108 96.1421C73.7416 95.8047 73.5025 95.5683 73.289 95.4329C73.0755 95.2975 72.8596 95.2034 72.6415 95.1506C72.4813 95.1162 72.2168 95.1001 71.8501 95.1001H70.2022V99.8164H68.7819L68.7795 99.8187ZM70.1999 93.8861H73.2542C73.904 93.8861 74.4123 93.8195 74.7767 93.6864C75.1434 93.5533 75.4219 93.3422 75.6122 93.0484C75.8025 92.757 75.8977 92.4379 75.8977 92.096C75.8977 91.5934 75.7143 91.1803 75.3453 90.8567C74.9763 90.5331 74.3937 90.3724 73.5977 90.3724H70.1999V93.8861Z" fill="#C40000"/>
<path d="M84.6142 95.6533V94.4071L89.1631 94.4002V98.3407C88.4645 98.8915 87.745 99.3046 87.0023 99.5823C86.2597 99.86 85.4984 99.9977 84.7163 99.9977C83.6626 99.9977 82.7041 99.7751 81.8407 99.3275C80.9797 98.88 80.3275 98.2351 79.8889 97.3906C79.4502 96.546 79.2297 95.6005 79.2297 94.5585C79.2297 93.5166 79.4479 92.5596 79.8842 91.6645C80.3205 90.7695 80.9495 90.1039 81.7711 89.6679C82.5927 89.2341 83.5373 89.0161 84.6049 89.0161C85.3824 89.0161 86.0833 89.14 86.7099 89.3902C87.3365 89.6381 87.8286 89.9846 88.186 90.4298C88.5434 90.8751 88.8126 91.4534 88.9983 92.1671L87.7172 92.516C87.557 91.9744 87.3551 91.5498 87.1161 91.24C86.877 90.9301 86.5358 90.6846 86.0902 90.4987C85.647 90.3128 85.1526 90.2187 84.6095 90.2187C83.9597 90.2187 83.398 90.3174 82.9246 90.5125C82.4511 90.7075 82.0682 90.9646 81.7781 91.2836C81.4879 91.6026 81.2605 91.9514 81.1004 92.3347C80.8265 92.991 80.6896 93.7048 80.6896 94.4713C80.6896 95.4169 80.8543 96.2086 81.1839 96.8466C81.5135 97.4847 81.9939 97.9574 82.6229 98.2673C83.2518 98.5771 83.9225 98.7308 84.6304 98.7308C85.2454 98.7308 85.8465 98.6138 86.4314 98.3797C87.0163 98.1456 87.4619 97.8955 87.7636 97.6292V95.651H84.6072L84.6142 95.6533Z" fill="#C40000"/>
<path d="M90.0802 99.8187L94.2044 89.1997H95.7362L100.132 99.8187H98.5119L97.2587 96.6034H92.7678L91.5888 99.8187H90.0802ZM93.1786 95.4582H96.82L95.699 92.5183C95.3579 91.6255 95.1026 90.8911 94.9378 90.3151C94.8009 90.9967 94.6082 91.6714 94.3599 92.3439L93.1809 95.4582H93.1786Z" fill="#C40000"/>
<path d="M101.25 99.8187V89.1997H102.708L108.347 97.5374V89.1997H109.71V99.8187H108.252L102.613 91.474V99.8187H101.25Z" fill="#C40000"/>
<path d="M112.342 99.8187V89.1997H113.762V99.8187H112.342Z" fill="#C40000"/>
<path d="M123.93 96.0962L125.351 96.452C125.053 97.6063 124.517 98.4853 123.742 99.0912C122.969 99.6971 122.022 100 120.904 100C119.785 100 118.806 99.7659 118.079 99.3C117.355 98.8342 116.803 98.1594 116.424 97.2759C116.046 96.3923 115.856 95.4422 115.856 94.4301C115.856 93.3239 116.069 92.36 116.496 91.5361C116.923 90.7122 117.532 90.0879 118.321 89.6611C119.11 89.2342 119.978 89.0208 120.925 89.0208C121.999 89.0208 122.902 89.2916 123.635 89.8309C124.369 90.3725 124.877 91.1321 125.167 92.1121L123.768 92.438C123.519 91.6646 123.157 91.1023 122.684 90.7512C122.21 90.3977 121.614 90.2233 120.897 90.2233C120.071 90.2233 119.381 90.4184 118.827 90.8108C118.272 91.201 117.882 91.7265 117.659 92.3852C117.434 93.0439 117.323 93.7232 117.323 94.4232C117.323 95.3251 117.455 96.1146 117.722 96.7893C117.989 97.464 118.402 97.9667 118.963 98.2994C119.525 98.6322 120.133 98.7997 120.788 98.7997C121.584 98.7997 122.257 98.5725 122.809 98.1181C123.362 97.6637 123.735 96.9913 123.93 96.0962Z" fill="#C40000"/>
<path d="M131.299 99.8187V89.1997H139.064V90.4528H132.722V93.7048H138.663V94.951H132.722V98.5656H139.315V99.8187H131.301H131.299Z" fill="#C40000"/>
<path d="M141.262 99.8187V89.1997H142.719L148.359 97.5374V89.1997H149.722V99.8187H148.264L142.624 91.474V99.8187H141.262Z" fill="#C40000"/>
<path d="M152.14 99.8187V89.1997H159.906V90.4528H153.563V93.7048H159.504V94.951H153.563V98.5656H160.156V99.8187H152.142H152.14Z" fill="#C40000"/>
<path d="M162.139 99.8187V89.1997H166.901C167.858 89.1997 168.586 89.2961 169.085 89.4866C169.584 89.6771 169.981 90.0144 170.278 90.4964C170.575 90.9783 170.726 91.5131 170.726 92.0983C170.726 92.851 170.48 93.4868 169.986 94.0031C169.494 94.5195 168.73 94.8477 167.7 94.9877C168.076 95.1667 168.361 95.3434 168.556 95.5155C168.972 95.8919 169.364 96.3624 169.735 96.927L171.603 99.8164H169.816L168.396 97.6063C167.981 96.9683 167.639 96.4817 167.37 96.1421C167.101 95.8047 166.862 95.5683 166.648 95.4329C166.437 95.2975 166.219 95.2034 166.001 95.1506C165.841 95.1162 165.576 95.1001 165.209 95.1001H163.562V99.8164H162.141L162.139 99.8187ZM163.559 93.8861H166.614C167.263 93.8861 167.772 93.8195 168.138 93.6864C168.505 93.5533 168.784 93.3422 168.974 93.0484C169.164 92.757 169.259 92.4379 169.259 92.096C169.259 91.5934 169.076 91.1803 168.707 90.8567C168.338 90.5331 167.755 90.3724 166.959 90.3724H163.562V93.8861H163.559Z" fill="#C40000"/>
<path d="M177.976 95.6533V94.4071L182.525 94.4002V98.3407C181.827 98.8915 181.107 99.3046 180.365 99.5823C179.622 99.86 178.861 99.9977 178.078 99.9977C177.022 99.9977 176.066 99.7751 175.203 99.3275C174.342 98.88 173.69 98.2351 173.251 97.3906C172.812 96.546 172.592 95.6005 172.592 94.5585C172.592 93.5166 172.81 92.5596 173.249 91.6645C173.685 90.7695 174.314 90.1039 175.136 89.6679C175.957 89.2341 176.902 89.0161 177.969 89.0161C178.747 89.0161 179.448 89.14 180.074 89.3902C180.701 89.6381 181.193 89.9846 181.55 90.4298C181.908 90.8751 182.177 91.4534 182.363 92.1671L181.082 92.516C180.922 91.9744 180.72 91.5498 180.481 91.24C180.242 90.9301 179.9 90.6846 179.455 90.4987C179.011 90.3128 178.517 90.2187 177.974 90.2187C177.324 90.2187 176.763 90.3174 176.289 90.5125C175.816 90.7075 175.433 90.9646 175.143 91.2836C174.852 91.6026 174.627 91.9514 174.465 92.3347C174.191 92.991 174.054 93.7048 174.054 94.4713C174.054 95.4169 174.219 96.2086 174.548 96.8466C174.878 97.4847 175.358 97.9574 175.987 98.2673C176.616 98.5771 177.287 98.7308 177.995 98.7308C178.61 98.7308 179.211 98.6138 179.796 98.3797C180.381 98.1456 180.826 97.8955 181.128 97.6292V95.651H177.972L177.976 95.6533Z" fill="#C40000"/>
<path d="M187.645 99.8187V95.3205L183.507 89.1997H185.236L187.353 92.4012C187.743 93.0002 188.107 93.5992 188.443 94.1982C188.766 93.6428 189.156 93.0186 189.616 92.3232L191.695 89.202H193.35L189.065 95.3228V99.821H187.645V99.8187Z" fill="#C40000"/>
<path d="M178.594 1.06944C178.826 0.713715 179.339 0.130785 178.301 0.12849C173.564 0.1239 168.827 0.13308 164.09 0.13308C163.772 0.13308 163.566 0.190455 163.359 0.51864C161.605 3.30018 159.811 6.05877 158.026 8.82424C155.248 13.1251 152.472 17.4259 149.692 21.7267C147.143 25.6672 144.593 29.6078 142.035 33.5414C141.545 34.2964 141.399 34.2941 140.91 33.5299C138.347 29.5297 135.799 25.5227 133.225 21.5294C132.928 21.0681 132.97 20.7169 133.258 20.2901C135.235 17.357 137.201 14.4194 139.164 11.4773C141.532 7.92919 143.887 4.37194 146.264 0.828465C146.633 0.27996 146.542 0.107835 145.876 0.11013C141.169 0.126195 136.463 0.12849 131.758 0.121605C131.313 0.121605 131.055 0.24783 130.804 0.64716C129.229 3.14641 127.609 5.61813 126.007 8.10132C125.427 9.00096 125.276 9.00784 124.714 8.12886C123.122 5.63878 121.519 3.1533 119.947 0.649455C119.725 0.296025 119.511 0.130785 119.084 0.130785C114.131 0.13767 109.179 0.130785 104.228 0.117015C103.576 0.117015 103.571 0.33963 103.889 0.8124C105.535 3.26805 107.166 5.73288 108.8 8.19771C111.548 12.3379 114.291 16.4781 117.044 20.6159C117.343 21.0658 117.383 21.4376 117.053 21.9379C114.496 25.8325 111.968 29.75 109.445 33.6676C109.097 34.2069 108.851 34.2918 108.471 33.6883C106.575 30.6703 104.657 27.6639 102.743 24.6574C100.352 20.9051 97.9571 17.1574 95.5666 13.4051C92.8651 9.1662 90.1566 4.92963 87.4853 0.672405C87.2323 0.268485 86.9747 0.12849 86.5407 0.12849C81.6181 0.130785 76.6979 0.12849 71.7753 0.1239C71.2369 0.1239 71.0048 0.213405 71.397 0.79863C73.5461 4.01392 75.6581 7.25446 77.7957 10.4812C81.7806 16.4987 85.7772 22.5093 89.7621 28.5245C93.6171 34.3423 97.4511 40.1716 101.332 45.9711C101.782 46.6435 101.995 47.2907 101.993 48.0848C101.979 57.5448 101.993 67.0025 101.968 76.4625C101.968 77.2657 102.183 77.4975 103 77.4906C106.906 77.4516 110.812 77.4562 114.718 77.4906C115.528 77.4975 115.749 77.2496 115.742 76.451C115.703 71.6154 115.723 66.7799 115.723 61.9443H115.728C115.728 57.1684 115.737 52.3948 115.719 47.6189C115.716 46.9534 115.865 46.4049 116.246 45.838C118.975 41.8011 121.667 37.7412 124.371 33.686C124.984 32.768 125.063 32.7611 125.657 33.6561C128.421 37.8147 131.18 41.9732 133.933 46.1363C134.246 46.6114 134.516 47.0842 134.513 47.7222C134.488 57.3038 134.502 66.8831 134.469 76.4648C134.467 77.2909 134.729 77.4929 135.516 77.486C139.392 77.4539 143.268 77.4424 147.141 77.4906C148.035 77.5021 148.199 77.2037 148.197 76.389C148.169 66.7776 148.183 57.1661 148.169 47.5546C148.169 46.9809 148.29 46.4852 148.61 46.0124C149.344 44.9269 150.056 43.8276 150.783 42.7397C154.937 36.5341 159.101 30.3353 163.246 24.125C167.152 18.2728 171.039 12.409 174.936 6.55219C176.152 4.72537 177.389 2.91003 178.589 1.07173L178.594 1.06944Z" fill="#C40000"/>
<path d="M39.492 0.10791C17.6804 0.10791 0 17.4283 0 38.797C0 60.1657 17.6804 77.4861 39.492 77.4861C61.3036 77.4861 78.984 60.1634 78.984 38.797C78.984 17.4306 61.3013 0.10791 39.492 0.10791ZM39.3342 64.7833C25.1026 64.7833 13.5655 53.0053 13.5655 38.478C13.5655 23.9507 25.1026 12.1727 39.3342 12.1727C53.5658 12.1727 65.1029 23.9507 65.1029 38.478C65.1029 53.0053 53.5658 64.7833 39.3342 64.7833Z" fill="#C40000"/>
<path d="M210.511 0C188.699 0 171.019 17.3227 171.019 38.6891C171.019 60.0555 188.699 77.3782 210.511 77.3782C232.322 77.3782 250.003 60.0555 250.003 38.6891C250.003 17.3227 232.32 0 210.511 0ZM210.353 64.6754C196.121 64.6754 184.584 52.8974 184.584 38.3701C184.584 23.8427 196.121 12.0648 210.353 12.0648C224.584 12.0648 236.121 23.8427 236.121 38.3701C236.121 52.8974 224.584 64.6754 210.353 64.6754Z" fill="#C40000"/>
<path d="M47.6618 18.0869H31.0049V99.8187H47.6618V18.0869Z" fill="url(#paint0_linear_13_265)"/>
</g>
<defs>
<linearGradient id="paint0_linear_13_265" x1="39.3345" y1="28.8872" x2="39.3345" y2="89.4063" gradientUnits="userSpaceOnUse">
<stop stop-color="#FFFF5F" stop-opacity="0"/>
<stop offset="0.02" stop-color="#FFFA56" stop-opacity="0.01"/>
<stop offset="0.09" stop-color="#FFEE3F" stop-opacity="0.1089"/>
<stop offset="0.16" stop-color="#FFE42C" stop-opacity="0.2809"/>
<stop offset="0.23" stop-color="#FFDC1C" stop-opacity="0.49"/>
<stop offset="0.29" stop-color="#FFD610" stop-opacity="0.6889"/>
<stop offset="0.35" stop-color="#FFD107" stop-opacity="0.8464"/>
<stop offset="0.41" stop-color="#FFCE01" stop-opacity="0.9604"/>
<stop offset="0.46" stop-color="#FFCE00"/>
<stop offset="1" stop-color="#FF9F06"/>
</linearGradient>
<clipPath id="clip0_13_265">
<rect width="250" height="100" fill="white"/>
</clipPath>
</defs>
</svg>
