<svg width="131" height="53" viewBox="0 0 131 53" fill="none" xmlns="http://www.w3.org/2000/svg">
<g clip-path="url(#clip0_10_614)">
<path d="M93.5863 0.56704C93.7079 0.378506 93.9766 0.0695529 93.433 0.0683365C90.9509 0.0659038 88.4687 0.0707692 85.9866 0.0707692C85.82 0.0707692 85.7118 0.101178 85.6035 0.275116C84.6841 1.74933 83.744 3.21138 82.8088 4.67708C81.3531 6.95652 79.8986 9.23596 78.4417 11.5154C77.1064 13.6039 75.7698 15.6923 74.4296 17.7772C74.173 18.1773 74.0964 18.1761 73.8398 17.7711C72.4972 15.651 71.1619 13.5272 69.8132 11.4108C69.6575 11.1663 69.6794 10.9802 69.8302 10.754C70.8663 9.19947 71.8964 7.64254 72.9253 6.08318C74.1657 4.20271 75.4001 2.31737 76.6454 0.439323C76.8388 0.148616 76.7914 0.0573894 76.4423 0.0586057C73.976 0.0671202 71.5097 0.0683365 69.0446 0.0646875C68.8111 0.0646875 68.6761 0.131587 68.5447 0.343231C67.719 1.66784 66.8701 2.97784 66.031 4.29393C65.7269 4.77074 65.6479 4.77439 65.3536 4.30853C64.5193 2.98879 63.679 1.67149 62.8556 0.344448C62.7389 0.15713 62.627 0.0695529 62.4032 0.0695529C59.808 0.0732019 57.2128 0.0695529 54.6187 0.0622548C54.277 0.0622548 54.2746 0.180241 54.4412 0.430809C55.3034 1.7323 56.1584 3.03866 57.0145 4.34502C58.4544 6.53932 59.8919 8.73361 61.3343 10.9267C61.4911 11.1651 61.5118 11.3621 61.3391 11.6273C59.9989 13.6915 58.6746 15.7678 57.3526 17.8441C57.1702 18.1299 57.0413 18.1749 56.8418 17.855C55.8483 16.2555 54.8437 14.6621 53.8404 13.0687C52.5878 11.0799 51.3327 9.09365 50.0801 7.10492C48.6645 4.85832 47.2453 2.61294 45.8455 0.356611C45.713 0.142534 45.578 0.0683365 45.3506 0.0683365C42.7711 0.0695529 40.1929 0.0683365 37.6135 0.0659038C37.3313 0.0659038 37.2097 0.113341 37.4152 0.423511C38.5414 2.12762 39.6481 3.8451 40.7681 5.55529C42.8563 8.74456 44.9504 11.9302 47.0386 15.1182C49.0586 18.2017 51.0676 21.2912 53.101 24.3649C53.3369 24.7213 53.4488 25.0643 53.4476 25.4852C53.4403 30.499 53.4476 35.5115 53.4342 40.5253C53.4342 40.9511 53.5473 41.0739 53.9754 41.0703C56.0222 41.0496 58.0689 41.052 60.1157 41.0703C60.5401 41.0739 60.6557 40.9425 60.652 40.5193C60.6313 37.9564 60.6423 35.3936 60.6423 32.8307H60.6447C60.6447 30.2995 60.6496 27.7695 60.6398 25.2383C60.6386 24.8855 60.7165 24.5948 60.9159 24.2944C62.3461 22.1548 63.7568 20.0031 65.1736 17.8538C65.4947 17.3673 65.536 17.3636 65.8473 17.838C67.2958 20.042 68.7418 22.246 70.1841 24.4525C70.3483 24.7043 70.4893 24.9548 70.4881 25.293C70.4748 30.3713 70.4821 35.4483 70.465 40.5266C70.4638 40.9644 70.6012 41.0715 71.0135 41.0678C73.0445 41.0508 75.0754 41.0447 77.1051 41.0703C77.5734 41.0763 77.6597 40.9182 77.6585 40.4864C77.6439 35.3923 77.6512 30.2983 77.6439 25.2042C77.6439 24.9001 77.7071 24.6374 77.875 24.3868C78.2593 23.8115 78.6326 23.2288 79.0133 22.6523C81.1901 19.3633 83.3719 16.0779 85.5439 12.7865C87.5907 9.6848 89.6277 6.57702 91.6696 3.4729C92.3069 2.50468 92.9551 1.54255 93.5838 0.568256L93.5863 0.56704Z" fill="white"/>
<path d="M20.6938 0.0571289C9.26454 0.0571289 0 9.23692 0 20.5623C0 31.8878 9.26454 41.0676 20.6938 41.0676C32.1231 41.0676 41.3876 31.8866 41.3876 20.5623C41.3876 9.23814 32.1219 0.0571289 20.6938 0.0571289ZM20.6111 34.3351C13.1538 34.3351 7.10833 28.0928 7.10833 20.3933C7.10833 12.6938 13.1538 6.45148 20.6111 6.45148C28.0685 6.45148 34.1139 12.6938 34.1139 20.3933C34.1139 28.0928 28.0685 34.3351 20.6111 34.3351Z" fill="white"/>
<path d="M110.303 0C98.8739 0 89.6094 9.18101 89.6094 20.5052C89.6094 31.8294 98.8739 41.0104 110.303 41.0104C121.732 41.0104 130.997 31.8294 130.997 20.5052C130.997 9.18101 121.731 0 110.303 0ZM110.22 34.2779C102.763 34.2779 96.7177 28.0356 96.7177 20.3361C96.7177 12.6367 102.763 6.39435 110.22 6.39435C117.678 6.39435 123.723 12.6367 123.723 20.3361C123.723 28.0356 117.678 34.2779 110.22 34.2779Z" fill="white"/>
<path d="M24.9782 9.58594H16.25V52.9038H24.9782V9.58594Z" fill="url(#paint0_linear_10_614)"/>
<path d="M29.6887 50.1622C29.6887 49.228 29.9392 48.497 30.4415 47.9679C30.9426 47.44 31.5908 47.1748 32.3837 47.1748C32.903 47.1748 33.3712 47.2989 33.7883 47.547C34.2055 47.7951 34.5229 48.1418 34.7418 48.5858C34.9607 49.0297 35.0701 49.5333 35.0701 50.0965C35.0701 50.6596 34.9546 51.1778 34.7247 51.6279C34.4949 52.0779 34.1678 52.4197 33.7458 52.6508C33.3238 52.8819 32.8677 52.9987 32.3788 52.9987C31.8486 52.9987 31.3755 52.871 30.9584 52.6143C30.5412 52.3589 30.225 52.0086 30.0098 51.5658C29.7945 51.1231 29.6875 50.6548 29.6875 50.1609L29.6887 50.1622ZM30.4561 50.1743C30.4561 50.853 30.6385 51.387 31.0034 51.7775C31.3682 52.1679 31.8255 52.3625 32.3752 52.3625C32.9249 52.3625 33.3967 52.1655 33.7591 51.7714C34.1215 51.3773 34.3027 50.8178 34.3027 50.094C34.3027 49.6355 34.2249 49.2365 34.0705 48.8947C33.916 48.5529 33.6886 48.2878 33.3906 48.1004C33.0927 47.9119 32.7582 47.8183 32.3873 47.8183C31.8607 47.8183 31.4071 47.9995 31.0265 48.362C30.647 48.7244 30.4561 49.329 30.4561 50.1755V50.1743Z" fill="white"/>
<path d="M36.0391 52.9039V47.2759H38.5346C39.0356 47.2759 39.4175 47.327 39.679 47.4279C39.9404 47.5289 40.1484 47.7077 40.3041 47.9631C40.4597 48.2185 40.5388 48.502 40.5388 48.8121C40.5388 49.2111 40.4099 49.548 40.1508 49.8217C39.8918 50.0954 39.4929 50.2693 38.9529 50.3435C39.1499 50.4384 39.2995 50.532 39.4017 50.6233C39.6194 50.8228 39.8249 51.0721 40.0195 51.3713L40.9985 52.9027H40.062L39.3178 51.7314C39.1001 51.3932 38.9213 51.1354 38.7802 50.9553C38.6392 50.7765 38.5139 50.6512 38.402 50.5795C38.2901 50.5077 38.177 50.4578 38.0627 50.4299C37.9788 50.4116 37.8402 50.4031 37.648 50.4031H36.7846V52.9027H36.0403L36.0391 52.9039ZM36.7833 49.7597H38.3838C38.7243 49.7597 38.9906 49.7244 39.1816 49.6538C39.3737 49.5833 39.5197 49.4714 39.6194 49.3157C39.7191 49.1612 39.769 48.9921 39.769 48.8109C39.769 48.5445 39.6729 48.3256 39.4795 48.1541C39.2862 47.9826 38.9809 47.8974 38.5638 47.8974H36.7833V49.7597Z" fill="white"/>
<path d="M44.3371 50.6962V50.0357L46.7207 50.032V52.1205C46.3546 52.4124 45.9776 52.6314 45.5885 52.7785C45.1993 52.9257 44.8004 52.9987 44.3906 52.9987C43.8384 52.9987 43.3362 52.8807 42.8838 52.6435C42.4326 52.4063 42.0909 52.0645 41.861 51.6169C41.6312 51.1693 41.5156 50.6682 41.5156 50.116C41.5156 49.5637 41.6299 49.0565 41.8586 48.5821C42.0872 48.1078 42.4168 47.755 42.8473 47.5239C43.2778 47.294 43.7728 47.1785 44.3322 47.1785C44.7396 47.1785 45.1069 47.2442 45.4352 47.3767C45.7636 47.5081 46.0214 47.6918 46.2087 47.9277C46.396 48.1637 46.5371 48.4702 46.6344 48.8485L45.963 49.0334C45.8791 48.7463 45.7733 48.5213 45.6481 48.3571C45.5228 48.1929 45.344 48.0628 45.1105 47.9642C44.8782 47.8657 44.6192 47.8158 44.3346 47.8158C43.9941 47.8158 43.6998 47.8681 43.4517 47.9715C43.2036 48.0749 43.003 48.2111 42.8509 48.3802C42.6989 48.5493 42.5797 48.7342 42.4958 48.9373C42.3523 49.2852 42.2806 49.6635 42.2806 50.0697C42.2806 50.5709 42.3669 50.9905 42.5396 51.3287C42.7123 51.6668 42.964 51.9174 43.2936 52.0816C43.6232 52.2458 43.9747 52.3273 44.3456 52.3273C44.6679 52.3273 44.9828 52.2652 45.2893 52.1412C45.5958 52.0171 45.8293 51.8845 45.9874 51.7434V50.6949H44.3334L44.3371 50.6962Z" fill="white"/>
<path d="M47.2031 52.9039L49.3642 47.2759H50.1669L52.4702 52.9039H51.6214L50.9646 51.1998H48.6114L47.9936 52.9039H47.2031ZM48.8267 50.5929H50.7348L50.1474 49.0347C49.9686 48.5616 49.8348 48.1723 49.7485 47.867C49.6767 48.2283 49.5758 48.5859 49.4457 48.9423L48.8279 50.5929H48.8267Z" fill="white"/>
<path d="M53.0547 52.9039V47.2759H53.8184L56.7736 51.6949V47.2759H57.4875V52.9039H56.7238L53.7686 48.4813V52.9039H53.0547Z" fill="white"/>
<path d="M58.8672 52.9039V47.2759H59.6115V52.9039H58.8672Z" fill="white"/>
<path d="M64.9341 50.9309L65.6783 51.1194C65.5227 51.7313 65.2418 52.1971 64.8356 52.5182C64.4306 52.8394 63.9344 52.9999 63.3482 52.9999C62.762 52.9999 62.2488 52.8759 61.8682 52.6289C61.4887 52.382 61.1993 52.0244 61.0011 51.5561C60.8028 51.0878 60.7031 50.5843 60.7031 50.0478C60.7031 49.4616 60.815 48.9507 61.0388 48.514C61.2625 48.0774 61.5812 47.7465 61.9947 47.5203C62.4082 47.294 62.863 47.1809 63.3592 47.1809C63.9222 47.1809 64.3953 47.3244 64.7796 47.6103C65.1639 47.8973 65.4303 48.2999 65.5823 48.8193L64.8489 48.9921C64.7188 48.5821 64.5291 48.2841 64.281 48.098C64.0329 47.9107 63.7204 47.8183 63.3446 47.8183C62.9116 47.8183 62.5504 47.9217 62.2598 48.1297C61.9691 48.3364 61.7648 48.615 61.6481 48.9641C61.5301 49.3132 61.4717 49.6732 61.4717 50.0442C61.4717 50.5222 61.541 50.9406 61.6809 51.2982C61.8208 51.6559 62.0372 51.9222 62.3315 52.0986C62.6258 52.275 62.9445 52.3638 63.2874 52.3638C63.7046 52.3638 64.0572 52.2434 64.3467 52.0025C64.6361 51.7617 64.8319 51.4053 64.9341 50.9309Z" fill="white"/>
<path d="M68.7969 52.9039V47.2759H72.8661V47.94H69.5424V49.6636H72.6557V50.3241H69.5424V52.2398H72.9974V52.9039H68.7981H68.7969Z" fill="white"/>
<path d="M74.0156 52.9039V47.2759H74.7794L77.7346 51.6949V47.2759H78.4485V52.9039H77.6847L74.7295 48.4813V52.9039H74.0156Z" fill="white"/>
<path d="M79.7188 52.9039V47.2759H83.7879V47.94H80.4642V49.6636H83.5776V50.3241H80.4642V52.2398H83.9193V52.9039H79.72H79.7188Z" fill="white"/>
<path d="M84.9609 52.9039V47.2759H87.4565C87.9575 47.2759 88.3394 47.327 88.6008 47.4279C88.8623 47.5289 89.0703 47.7077 89.2259 47.9631C89.3816 48.2185 89.4606 48.502 89.4606 48.8121C89.4606 49.2111 89.3317 49.548 89.0727 49.8217C88.8149 50.0954 88.4148 50.2693 87.8748 50.3435C88.0718 50.4384 88.2214 50.532 88.3236 50.6233C88.5413 50.8228 88.7468 51.0721 88.9414 51.3713L89.9204 52.9027H88.9839L88.2396 51.7314C88.022 51.3932 87.8432 51.1354 87.7021 50.9553C87.561 50.7765 87.4358 50.6512 87.3239 50.5795C87.2132 50.5077 87.0989 50.4578 86.9846 50.4299C86.9007 50.4116 86.762 50.4031 86.5699 50.4031H85.7064V52.9027H84.9622L84.9609 52.9039ZM85.7052 49.7597H87.3057C87.6462 49.7597 87.9125 49.7244 88.1047 49.6538C88.2968 49.5833 88.4427 49.4714 88.5425 49.3157C88.6422 49.1612 88.692 48.9921 88.692 48.8109C88.692 48.5445 88.596 48.3256 88.4026 48.1541C88.2092 47.9826 87.904 47.8974 87.4869 47.8974H85.7064V49.7597H85.7052Z" fill="white"/>
<path d="M93.2589 50.6962V50.0357L95.6426 50.032V52.1205C95.2765 52.4124 94.8995 52.6314 94.5103 52.7785C94.1212 52.9257 93.7223 52.9987 93.3124 52.9987C92.7591 52.9987 92.2581 52.8807 91.8057 52.6435C91.3545 52.4063 91.0127 52.0645 90.7829 51.6169C90.553 51.1693 90.4375 50.6682 90.4375 50.116C90.4375 49.5637 90.5518 49.0565 90.7817 48.5821C91.0103 48.1078 91.3399 47.755 91.7704 47.5239C92.2009 47.294 92.6959 47.1785 93.2553 47.1785C93.6627 47.1785 94.03 47.2442 94.3583 47.3767C94.6867 47.5081 94.9445 47.6918 95.1318 47.9277C95.3191 48.1637 95.4601 48.4702 95.5574 48.8485L94.8861 49.0334C94.8022 48.7463 94.6964 48.5213 94.5712 48.3571C94.4459 48.1929 94.2671 48.0628 94.0336 47.9642C93.8013 47.8657 93.5423 47.8158 93.2577 47.8158C92.9172 47.8158 92.6229 47.8681 92.3748 47.9715C92.1267 48.0749 91.9261 48.2111 91.774 48.3802C91.622 48.5493 91.504 48.7342 91.4189 48.9373C91.2754 49.2852 91.2037 49.6635 91.2037 50.0697C91.2037 50.5709 91.29 50.9905 91.4627 51.3287C91.6354 51.6668 91.8871 51.9174 92.2167 52.0816C92.5463 52.2458 92.8977 52.3273 93.2687 52.3273C93.5909 52.3273 93.9059 52.2652 94.2124 52.1412C94.5189 52.0171 94.7524 51.8845 94.9105 51.7434V50.6949H93.2565L93.2589 50.6962Z" fill="white"/>
<path d="M98.3246 52.9039V50.5199L96.1562 47.2759H97.0623L98.1714 48.9727C98.3757 49.2902 98.5666 49.6076 98.743 49.9251C98.912 49.6307 99.1163 49.2999 99.3571 48.9313L100.447 47.2771H101.314L99.0689 50.5211V52.9051H98.3246V52.9039Z" fill="white"/>
</g>
<defs>
<linearGradient id="paint0_linear_10_614" x1="20.6147" y1="15.3101" x2="20.6147" y2="47.3852" gradientUnits="userSpaceOnUse">
<stop stop-color="#FFFF5F" stop-opacity="0"/>
<stop offset="0.02" stop-color="#FFFA56" stop-opacity="0.01"/>
<stop offset="0.09" stop-color="#FFEE3F" stop-opacity="0.1089"/>
<stop offset="0.16" stop-color="#FFE42C" stop-opacity="0.2809"/>
<stop offset="0.23" stop-color="#FFDC1C" stop-opacity="0.49"/>
<stop offset="0.29" stop-color="#FFD610" stop-opacity="0.6889"/>
<stop offset="0.35" stop-color="#FFD107" stop-opacity="0.8464"/>
<stop offset="0.41" stop-color="#FFCE01" stop-opacity="0.9604"/>
<stop offset="0.46" stop-color="#FFCE00"/>
<stop offset="1" stop-color="#FF9F06"/>
</linearGradient>
<clipPath id="clip0_10_614">
<rect width="131" height="53" fill="white"/>
</clipPath>
</defs>
</svg>
