<svg width="128" height="59" viewBox="0 0 128 59" fill="none" xmlns="http://www.w3.org/2000/svg">
<g clip-path="url(#clip0_4209_21)">
<mask id="path-1-inside-1_4209_21" fill="white">
<path d="M0 0L128 0V59H0L0 0Z"/>
</mask>
<path d="M109.299 6.66359C109.441 6.44287 109.755 6.08117 109.12 6.07974C106.221 6.07689 103.322 6.08259 100.423 6.08259C100.229 6.08259 100.102 6.11819 99.9759 6.32183C98.9021 8.04774 97.8042 9.75941 96.7119 11.4754C95.0117 14.144 93.3129 16.8126 91.6113 19.4812C90.0517 21.9262 88.4907 24.3713 86.9255 26.812C86.6258 27.2805 86.5363 27.2791 86.2366 26.8049C84.6685 24.3228 83.109 21.8365 81.5338 19.3587C81.3519 19.0725 81.3775 18.8546 81.5536 18.5897C82.7638 16.7699 83.9669 14.9471 85.1685 13.1215C86.6173 10.92 88.059 8.71275 89.5134 6.51407C89.7393 6.17373 89.6839 6.06693 89.2762 6.06835C86.3957 6.07832 83.5152 6.07974 80.6361 6.07547C80.3634 6.07547 80.2057 6.15379 80.0523 6.40157C79.0879 7.95233 78.0964 9.486 77.1164 11.0268C76.7613 11.585 76.669 11.5893 76.3252 11.0439C75.3509 9.49881 74.3694 7.9566 73.4078 6.40299C73.2714 6.1837 73.1408 6.08117 72.8794 6.08117C69.8483 6.08544 66.8172 6.08117 63.7876 6.07262C63.3885 6.07262 63.3856 6.21075 63.5802 6.5041C64.5873 8.0278 65.5858 9.5572 66.5857 11.0866C68.2674 13.6555 69.9463 16.2245 71.6309 18.792C71.8141 19.0711 71.8383 19.3018 71.6366 19.6122C70.0713 22.0288 68.5245 24.4596 66.9806 26.8904C66.7675 27.225 66.617 27.2777 66.384 26.9032C65.2236 25.0306 64.0504 23.1651 62.8785 21.2997C61.4156 18.9714 59.9497 16.646 58.4867 14.3177C56.8334 11.6875 55.1758 9.05879 53.541 6.41724C53.3862 6.16661 53.2285 6.07974 52.9629 6.07974C49.9503 6.08117 46.9391 6.07974 43.9265 6.07689C43.597 6.07689 43.4549 6.13243 43.695 6.49556C45.0102 8.49061 46.3028 10.5013 47.6109 12.5035C50.0497 16.2373 52.4956 19.9668 54.9344 23.6991C57.2936 27.309 59.6401 30.926 62.015 34.5245C62.2905 34.9418 62.4212 35.3433 62.4198 35.836C62.4112 41.7058 62.4198 47.5742 62.4041 53.444C62.4041 53.9424 62.5362 54.0863 63.0362 54.082C65.4267 54.0578 67.8172 54.0606 70.2077 54.082C70.7034 54.0863 70.8383 53.9325 70.8341 53.4369C70.8099 50.4365 70.8227 47.4361 70.8227 44.4357H70.8255C70.8255 41.4723 70.8312 38.5103 70.8199 35.547C70.8184 35.134 70.9093 34.7937 71.1423 34.4419C72.8126 31.9371 74.4603 29.418 76.115 26.9017C76.49 26.3321 76.5383 26.3279 76.9019 26.8832C78.5936 29.4636 80.2824 32.0439 81.967 34.627C82.1587 34.9218 82.3235 35.2152 82.3221 35.611C82.3064 41.5563 82.315 47.5002 82.2951 53.4455C82.2937 53.9581 82.4542 54.0834 82.9357 54.0792C85.3077 54.0592 87.6797 54.0521 90.0503 54.082C90.5972 54.0891 90.698 53.904 90.6966 53.3985C90.6795 47.4347 90.6881 41.4709 90.6795 35.5071C90.6795 35.1511 90.7534 34.8435 90.9494 34.5502C91.3983 33.8766 91.8343 33.1945 92.2789 32.5195C94.8214 28.669 97.3695 24.8227 99.9063 20.9693C102.297 17.338 104.676 13.6997 107.061 10.0656C107.805 8.93205 108.562 7.80565 109.296 6.66501L109.299 6.66359Z" fill="#C40000"/>
<path d="M24.1691 6.06693C10.8204 6.06693 0 16.814 0 30.073C0 43.3321 10.8204 54.0792 24.1691 54.0792C37.5178 54.0792 48.3382 43.3307 48.3382 30.073C48.3382 16.8154 37.5164 6.06693 24.1691 6.06693ZM24.0725 46.1972C15.3628 46.1972 8.30209 38.8891 8.30209 29.8751C8.30209 20.8611 15.3628 13.553 24.0725 13.553C32.7823 13.553 39.8429 20.8611 39.8429 29.8751C39.8429 38.8891 32.7823 46.1972 24.0725 46.1972Z" fill="#C40000"/>
<path d="M128.832 6C115.484 6 104.663 16.7485 104.663 30.0061C104.663 43.2637 115.484 54.0122 128.832 54.0122C142.181 54.0122 153.001 43.2637 153.001 30.0061C153.001 16.7485 142.18 6 128.832 6ZM128.736 46.1303C120.026 46.1303 112.965 38.8222 112.965 29.8082C112.965 20.7941 120.026 13.4861 128.736 13.4861C137.445 13.4861 144.506 20.7941 144.506 29.8082C144.506 38.8222 137.445 46.1303 128.736 46.1303Z" fill="#C40000"/>
</g>
<path d="M127.5 0V59H128.5V0L127.5 0Z" fill="#C40000" mask="url(#path-1-inside-1_4209_21)"/>
<defs>
<clipPath id="clip0_4209_21">
<path d="M0 0L128 0V59H0L0 0Z" fill="white"/>
</clipPath>
</defs>
</svg>
