<svg width="128" height="59" viewBox="0 0 128 59" fill="none" xmlns="http://www.w3.org/2000/svg">
<g clip-path="url(#clip0_10_8357)">
<mask id="path-1-inside-1_10_8357" fill="white">
<path d="M0 0L128 0V59H0L0 0Z"/>
</mask>
<path d="M109.299 6.66361C109.441 6.44289 109.754 6.08119 109.12 6.07977C106.221 6.07692 103.322 6.08261 100.423 6.08261C100.228 6.08261 100.102 6.11821 99.9752 6.32185C98.9014 8.04776 97.8034 9.75943 96.7112 11.4754C95.011 14.144 93.3122 16.8126 91.6106 19.4812C90.051 21.9262 88.49 24.3713 86.9248 26.8121C86.6251 27.2806 86.5356 27.2791 86.2359 26.8049C84.6678 24.3229 83.1082 21.8365 81.533 19.3587C81.3512 19.0725 81.3768 18.8546 81.5529 18.5898C82.7631 16.7699 83.9661 14.9471 85.1678 13.1215C86.6165 10.92 88.0582 8.71278 89.5127 6.51409C89.7385 6.17375 89.6831 6.06695 89.2755 6.06837C86.395 6.07834 83.5144 6.07977 80.6353 6.07549C80.3626 6.07549 80.205 6.15381 80.0516 6.40159C79.0871 7.95235 78.0957 9.48602 77.1157 11.0268C76.7606 11.585 76.6682 11.5893 76.3245 11.0439C75.3501 9.49883 74.3686 7.95662 73.4071 6.40302C73.2707 6.18372 73.14 6.08119 72.8787 6.08119C69.8476 6.08546 66.8165 6.08119 63.7868 6.07265C63.3877 6.07265 63.3849 6.21078 63.5795 6.50412C64.5865 8.02782 65.585 9.55722 66.585 11.0866C68.2667 13.6555 69.9456 16.2245 71.6302 18.792C71.8134 19.0711 71.8375 19.3018 71.6358 19.6122C70.0706 22.0288 68.5238 24.4596 66.9799 26.8904C66.7668 27.225 66.6162 27.2777 66.3833 26.9032C65.2228 25.0306 64.0496 23.1651 62.8778 21.2997C61.4148 18.9714 59.949 16.646 58.486 14.3177C56.8327 11.6876 55.1751 9.05881 53.5403 6.41726C53.3854 6.16663 53.2278 6.07977 52.9622 6.07977C49.9496 6.08119 46.9384 6.07977 43.9257 6.07692C43.5962 6.07692 43.4542 6.13245 43.6942 6.49558C45.0095 8.49063 46.302 10.5013 47.6102 12.5035C50.049 16.2373 52.4949 19.9668 54.9337 23.6992C57.2929 27.309 59.6394 30.926 62.0142 34.5245C62.2898 34.9418 62.4204 35.3434 62.419 35.8361C62.4105 41.7059 62.419 47.5743 62.4034 53.4441C62.4034 53.9425 62.5355 54.0863 63.0355 54.082C65.426 54.0578 67.8165 54.0607 70.2069 54.082C70.7027 54.0863 70.8376 53.9325 70.8333 53.4369C70.8092 50.4365 70.822 47.4361 70.822 44.4357H70.8248C70.8248 41.4723 70.8305 38.5104 70.8191 35.547C70.8177 35.134 70.9086 34.7937 71.1416 34.4419C72.8119 31.9371 74.4596 29.418 76.1143 26.9018C76.4893 26.3322 76.5376 26.3279 76.9012 26.8833C78.5928 29.4636 80.2817 32.0439 81.9662 34.6271C82.158 34.9218 82.3228 35.2152 82.3213 35.6111C82.3057 41.5563 82.3142 47.5002 82.2943 53.4455C82.2929 53.9581 82.4534 54.0834 82.9349 54.0792C85.307 54.0592 87.679 54.0521 90.0496 54.082C90.5964 54.0891 90.6973 53.904 90.6959 53.3985C90.6788 47.4347 90.6873 41.4709 90.6788 35.5071C90.6788 35.1511 90.7527 34.8435 90.9487 34.5502C91.3975 33.8766 91.8336 33.1945 92.2782 32.5195C94.8206 28.669 97.3688 24.8227 99.9056 20.9693C102.296 17.3381 104.675 13.6997 107.06 10.0656C107.804 8.93208 108.561 7.80568 109.296 6.66504L109.299 6.66361Z" fill="#C40000"/>
<path d="M24.1691 6.06689C10.8204 6.06689 0 16.814 0 30.073C0 43.332 10.8204 54.0791 24.1691 54.0791C37.5178 54.0791 48.3382 43.3306 48.3382 30.073C48.3382 16.8154 37.5164 6.06689 24.1691 6.06689ZM24.0725 46.1972C15.3628 46.1972 8.30209 38.8891 8.30209 29.8751C8.30209 20.861 15.3628 13.553 24.0725 13.553C32.7823 13.553 39.8429 20.861 39.8429 29.8751C39.8429 38.8891 32.7823 46.1972 24.0725 46.1972Z" fill="#C40000"/>
<path d="M128.833 6C115.484 6 104.664 16.7485 104.664 30.0061C104.664 43.2637 115.484 54.0122 128.833 54.0122C142.182 54.0122 153.002 43.2637 153.002 30.0061C153.002 16.7485 142.18 6 128.833 6ZM128.737 46.1303C120.027 46.1303 112.966 38.8222 112.966 29.8082C112.966 20.7941 120.027 13.4861 128.737 13.4861C137.446 13.4861 144.507 20.7941 144.507 29.8082C144.507 38.8222 137.446 46.1303 128.737 46.1303Z" fill="#C40000"/>
</g>
<path d="M127.5 0V59H128.5V0L127.5 0Z" fill="#C40000" mask="url(#path-1-inside-1_10_8357)"/>
<defs>
<clipPath id="clip0_10_8357">
<path d="M0 0L128 0V59H0L0 0Z" fill="white"/>
</clipPath>
</defs>
</svg>
