<svg width="38" height="26" viewBox="0 0 38 26" fill="none" xmlns="http://www.w3.org/2000/svg">
<path d="M37.8824 0.322336C37.9643 0.202812 38.1452 0.00694768 37.7793 0.00617656C36.1083 0.00463432 34.4374 0.0077188 32.7665 0.0077188C32.6543 0.0077188 32.5815 0.0269968 32.5086 0.137267C31.8897 1.07187 31.2568 1.99875 30.6273 2.92795C29.6473 4.37303 28.6682 5.81812 27.6874 7.2632C26.7885 8.58721 25.8887 9.91123 24.9866 11.2329C24.8138 11.4866 24.7622 11.4859 24.5895 11.2291C23.6857 9.88501 22.7868 8.53863 21.8788 7.19688C21.7741 7.04188 21.7888 6.9239 21.8903 6.78047C22.5878 5.79498 23.2812 4.80795 23.9738 3.81937C24.8089 2.62722 25.6399 1.43198 26.4782 0.241368C26.6084 0.0570705 26.5764 -0.00076353 26.3415 7.59054e-06C24.6812 0.00540544 23.0209 0.00617656 21.3614 0.00386319C21.2043 0.00386319 21.1134 0.0462748 21.025 0.18045C20.4691 1.0202 19.8976 1.8507 19.3327 2.68505C19.1281 2.98733 19.0749 2.98964 18.8767 2.6943C18.3151 1.85764 17.7494 1.02251 17.1952 0.181221C17.1166 0.0624684 17.0413 0.00694768 16.8906 0.00694768C15.1435 0.00926104 13.3965 0.00694768 11.6502 0.00232095C11.4202 0.00232095 11.4185 0.0771197 11.5307 0.235971C12.1112 1.06107 12.6867 1.88925 13.263 2.71744C14.2324 4.10854 15.2 5.49964 16.171 6.88997C16.2766 7.04111 16.2905 7.16603 16.1743 7.33414C15.2721 8.64273 14.3805 9.95903 13.4906 11.2753C13.3678 11.4566 13.281 11.4851 13.1468 11.2823C12.4779 10.2683 11.8017 9.25809 11.1263 8.24792C10.283 6.98713 9.43816 5.72789 8.59492 4.46711C7.64197 3.04285 6.68657 1.61936 5.74427 0.188932C5.65503 0.0532149 5.56416 0.00617656 5.41107 0.00617656C3.67464 0.00694768 1.93904 0.00617656 0.202614 0.00463432C0.0126799 0.00463432 -0.0691886 0.034708 0.0691685 0.231344C0.827268 1.31168 1.57227 2.40051 2.32627 3.4847C3.73195 5.50658 5.14172 7.52615 6.5474 9.54726C7.90723 11.502 9.25968 13.4607 10.6285 15.4093C10.7873 15.6353 10.8627 15.8527 10.8618 16.1195C10.8569 19.2981 10.8618 22.4759 10.8528 25.6544C10.8528 25.9243 10.929 26.0022 11.2172 25.9999C12.595 25.9868 13.9728 25.9883 15.3507 25.9999C15.6364 26.0022 15.7142 25.9189 15.7117 25.6506C15.6978 24.0258 15.7052 22.4011 15.7052 20.7763H15.7068C15.7068 19.1716 15.7101 17.5677 15.7035 15.963C15.7027 15.7394 15.7551 15.5551 15.8894 15.3646C16.8521 14.0082 17.8018 12.6441 18.7556 11.2815C18.9717 10.9731 18.9995 10.9707 19.2091 11.2715C20.1842 12.6688 21.1576 14.066 22.1285 15.4648C22.2391 15.6245 22.334 15.7833 22.3332 15.9977C22.3242 19.2171 22.3291 22.4358 22.3177 25.6552C22.3168 25.9328 22.4093 26.0007 22.6869 25.9984C24.0541 25.9876 25.4213 25.9837 26.7877 25.9999C27.1028 26.0037 27.161 25.9035 27.1602 25.6298C27.1503 22.4003 27.1552 19.1708 27.1503 15.9414C27.1503 15.7486 27.1929 15.5821 27.3059 15.4232C27.5646 15.0585 27.8159 14.6891 28.0722 14.3236C29.5376 12.2385 31.0063 10.1557 32.4685 8.06902C33.8463 6.10266 35.2176 4.13244 36.5922 2.16454C37.0212 1.55073 37.4575 0.940775 37.8808 0.323107L37.8824 0.322336Z" fill="#C40000"/>
</svg>
