<svg width="201" height="112" viewBox="0 0 201 112" fill="none" xmlns="http://www.w3.org/2000/svg">
<g clip-path="url(#clip0_1_349)">
<mask id="path-1-inside-1_1_349" fill="white">
<path d="M0 0L201 0V112H0L0 0Z"/>
</mask>
<path d="M165.312 10.3094C165.591 9.87385 166.206 9.16016 164.961 9.15735C159.277 9.15173 153.593 9.16297 147.909 9.16297C147.527 9.16297 147.279 9.23321 147.031 9.63502C144.926 13.0405 142.773 16.4179 140.631 19.8037C137.298 25.0693 133.967 30.3349 130.63 35.6005C127.572 40.425 124.511 45.2494 121.442 50.0654C120.855 50.9899 120.679 50.9871 120.091 50.0514C117.017 45.1539 113.959 40.248 110.87 35.3589C110.514 34.7941 110.564 34.3642 110.909 33.8416C113.282 30.2506 115.641 26.6541 117.997 23.0519C120.838 18.7079 123.665 14.3527 126.517 10.0143C126.959 9.3428 126.851 9.13206 126.051 9.13487C120.403 9.15454 114.755 9.15735 109.11 9.14892C108.575 9.14892 108.266 9.30346 107.965 9.79237C106.074 12.8523 104.13 15.8784 102.209 18.9186C101.512 20.0201 101.331 20.0285 100.657 18.9524C98.7469 15.9037 96.8224 12.8607 94.9369 9.79518C94.6696 9.36246 94.4133 9.16016 93.9009 9.16016C87.9576 9.16859 82.0143 9.16016 76.0738 9.1433C75.2912 9.1433 75.2856 9.41585 75.6672 9.99467C77.6418 13.0012 79.5997 16.0189 81.5603 19.0367C84.8578 24.1056 88.1497 29.1745 91.4528 34.2406C91.8121 34.7913 91.8594 35.2465 91.464 35.859C88.3948 40.6273 85.3619 45.4236 82.3346 50.22C81.9168 50.8803 81.6216 50.9843 81.1648 50.2453C78.8895 46.5504 76.589 42.8695 74.2913 39.1887C71.4227 34.5946 68.5486 30.0062 65.68 25.4121C62.4382 20.2224 59.188 15.0355 55.9824 9.82327C55.6789 9.32875 55.3697 9.15735 54.8489 9.15735C48.9418 9.16016 43.0375 9.15735 37.1304 9.15173C36.4843 9.15173 36.2058 9.26131 36.6765 9.97781C39.2554 13.9144 41.7898 17.8818 44.3548 21.8324C49.1368 29.1998 53.9326 36.5587 58.7146 43.9232C63.3405 51.0461 67.9414 58.183 72.598 65.2834C73.1383 66.1067 73.3946 66.8991 73.3918 67.8713C73.3751 79.4533 73.3918 91.0326 73.3611 102.615C73.3611 103.598 73.6201 103.882 74.6005 103.873C79.2877 103.826 83.975 103.831 88.6622 103.873C89.6342 103.882 89.8988 103.578 89.8904 102.601C89.8431 96.6803 89.8681 90.76 89.8681 84.8397H89.8737C89.8737 78.9925 89.8848 73.1481 89.8626 67.3009C89.8598 66.486 90.038 65.8145 90.4948 65.1204C93.77 60.178 97.0006 55.2074 100.245 50.2425C100.98 49.1185 101.075 49.1101 101.788 50.2059C105.105 55.2973 108.417 60.3887 111.72 65.4857C112.096 66.0673 112.419 66.6462 112.416 67.4273C112.385 79.1583 112.402 90.8865 112.363 102.617C112.36 103.629 112.675 103.876 113.619 103.868C118.27 103.828 122.921 103.814 127.569 103.873C128.642 103.887 128.839 103.522 128.837 102.525C128.803 90.7572 128.82 78.9897 128.803 67.2222C128.803 66.5197 128.948 65.9128 129.332 65.334C130.212 64.0049 131.067 62.659 131.939 61.3272C136.924 53.7294 141.921 46.1401 146.895 38.5368C151.582 31.3717 156.247 24.1927 160.923 17.022C162.382 14.7854 163.867 12.5628 165.307 10.3122L165.312 10.3094Z" fill="white"/>
<path d="M-1.60959 9.13206C-27.7835 9.13206 -49 30.3377 -49 56.4999C-49 82.6621 -27.7835 103.868 -1.60959 103.868C24.5643 103.868 45.7808 82.6593 45.7808 56.4999C45.7808 30.3406 24.5615 9.13206 -1.60959 9.13206ZM-1.79898 88.3155C-18.8769 88.3155 -32.7214 73.8955 -32.7214 56.1094C-32.7214 38.3232 -18.8769 23.9033 -1.79898 23.9033C15.2789 23.9033 29.1234 38.3232 29.1234 56.1094C29.1234 73.8955 15.2789 88.3155 -1.79898 88.3155Z" fill="white"/>
<path d="M203.612 9C177.439 9 156.222 30.2085 156.222 56.3679C156.222 82.5273 177.439 103.736 203.612 103.736C229.786 103.736 251.003 82.5273 251.003 56.3679C251.003 30.2085 229.784 9 203.612 9ZM203.423 88.1834C186.345 88.1834 172.501 73.7634 172.501 55.9773C172.501 38.1912 186.345 23.7712 203.423 23.7712C220.501 23.7712 234.345 38.1912 234.345 55.9773C234.345 73.7634 220.501 88.1834 203.423 88.1834Z" fill="white"/>
</g>
<path d="M1 112V0L-1 0V112H1Z" fill="white" mask="url(#path-1-inside-1_1_349)"/>
<defs>
<clipPath id="clip0_1_349">
<path d="M0 0L201 0V112H0L0 0Z" fill="white"/>
</clipPath>
</defs>
</svg>
