<svg width="94" height="78" viewBox="0 0 94 78" fill="none" xmlns="http://www.w3.org/2000/svg">
<path d="M48.049 40.4035C48.7214 41.0352 49.4074 41.7829 50.1449 42.6892C50.9125 43.6313 51.6403 44.6277 52.3447 45.5909C52.8237 46.2454 53.3017 46.9003 53.7944 47.5416C55.0857 49.223 56.6822 51.0572 58.7334 51.9177C59.9353 52.4209 61.6366 52.6058 62.8095 51.6158C63.1163 51.3559 63.3473 51.0336 63.5437 50.6993C60.4762 46.2062 56.7822 44.328 56.7337 44.3037C56.484 44.1804 56.3732 43.8605 56.4869 43.5892C56.6006 43.3183 56.8959 43.1987 57.1457 43.3215C57.3489 43.4217 60.9211 45.2361 64.0356 49.5974C64.0802 49.4565 64.1271 49.3128 64.1591 49.1851C64.4759 47.9189 64.4253 46.5478 64.0182 45.3254C63.5411 43.89 62.5296 42.5217 61.0935 41.3682C59.0171 39.699 56.4004 38.6778 53.5272 38.4138C52.1299 38.2868 48.836 38.124 46.332 39.0867C46.4856 39.201 46.6449 39.3143 46.8072 39.4302C47.225 39.7279 47.6574 40.0357 48.049 40.4035Z" fill="#CF0713"/>
<path d="M66.8863 43.9379C66.9593 43.4779 67.0387 43.0346 67.1257 42.6137C68.2985 36.9377 71.7371 30.5663 75.8871 26.382C76.0883 26.1796 76.4031 26.1907 76.5906 26.4099C76.7781 26.628 76.7665 26.9695 76.5654 27.1724C72.5514 31.2181 69.2283 37.3719 68.0973 42.8498C67.9998 43.3218 67.9125 43.8265 67.833 44.3526C68.0514 44.4037 68.2759 44.4376 68.52 44.4384C69.2157 44.4379 69.9561 44.2529 70.9083 43.8488C75.787 41.7807 79.8573 37.1295 81.7967 31.4078C83.4972 26.3888 83.6215 20.6022 82.166 15C80.0089 18.0762 77.0376 20.3309 74.1566 22.5176C71.7886 24.3149 69.3401 26.1728 67.3851 28.4623C66.772 29.1794 66.2278 29.926 65.7673 30.6822C63.6539 34.1535 62.9951 39.4886 65.8246 42.9694C66.1563 43.3776 66.5162 43.6968 66.8863 43.9379Z" fill="#CF0713"/>
<path d="M84.1752 47.6621C82.2513 47.2675 80.2779 46.8628 78.3326 46.8628C77.7409 46.8628 77.1521 46.9002 76.5671 46.9871C74.7006 47.2633 73.075 48.0231 71.8652 49.1839C70.9363 50.0765 70.2328 51.2373 69.8325 52.5398C69.5813 53.3561 69.4719 54.0292 69.4953 54.584C73.792 52.551 78.6003 51.8502 83.8536 52.552C84.1266 52.5883 84.321 52.857 84.287 53.1531C84.2539 53.4492 84.0042 53.6663 83.7331 53.6226C78.614 52.9419 73.9399 53.6316 69.7774 55.6284C69.8142 55.6912 69.8472 55.7564 69.8918 55.8146C70.2999 56.3452 70.9266 56.6946 71.4863 56.9659C73.9213 58.1468 76.779 58.7116 79.7493 58.5978C82.8295 58.4803 85.5987 57.6367 87.7548 56.1582C90.492 54.2828 92.4479 51.2942 93.9997 48.4393C90.6387 48.9873 87.2243 48.2876 84.1752 47.6621Z" fill="#CF0713"/>
<path d="M82.5011 69.9254C80.6316 69.9254 78.8418 70.6763 77.4621 72.0388C77.3387 72.16 77.1696 72.209 77.0064 72.1632C76.8451 72.1194 76.7139 71.9909 76.6586 71.8207C75.0796 67.0105 70.8528 63.7783 66.1422 63.7783C61.2314 63.7783 56.9494 67.1917 55.487 72.2717C55.4394 72.4351 55.3238 72.5647 55.1741 72.6211C55.0264 72.6764 54.8612 72.6532 54.7301 72.5557C53.5854 71.7032 52.2426 71.2527 50.8464 71.2527C47.3037 71.2527 44.3333 74.2319 44 77.9999H89.9897C89.9654 73.5432 86.6152 69.9254 82.5011 69.9254Z" fill="#CF0713"/>
<path d="M68.5279 55.0427C68.0502 55.2958 67.5855 55.5822 67.1213 55.8701C67.1402 52.5683 67.2675 48.6617 67.6686 45.4199L66.7054 45.0801C66.3796 47.6075 66.2224 50.5182 66.1572 53.2522C65.7071 52.2963 65.2207 51.4184 64.7096 50.6162L64.1445 51.6419C64.882 52.8487 65.5618 54.2206 66.12 55.7703C66.1 59.1197 66.1933 61.8532 66.2267 62.7034L67.2243 62.7586C67.2018 62.1797 67.1242 59.9673 67.1188 57.1032C67.6853 56.7322 68.2609 56.3834 68.8495 56.0675L68.5279 55.0427Z" fill="#CF0713"/>
<g filter="url(#filter0_d_10_4117)">
<path d="M43.4875 37.9028C45.4481 37.9028 47.0375 36.3134 47.0375 34.3528C47.0375 32.3921 45.4481 30.8027 43.4875 30.8027C41.5269 30.8027 39.9375 32.3921 39.9375 34.3528C39.9375 36.3134 41.5269 37.9028 43.4875 37.9028Z" fill="white" fill-opacity="0.32"/>
<path fill-rule="evenodd" clip-rule="evenodd" d="M43.4875 37.19C45.0545 37.19 46.3248 35.9197 46.3248 34.3528C46.3248 32.7858 45.0545 31.5155 43.4875 31.5155C41.9206 31.5155 40.6503 32.7858 40.6503 34.3528C40.6503 35.9197 41.9206 37.19 43.4875 37.19ZM47.0375 34.3528C47.0375 36.3134 45.4481 37.9028 43.4875 37.9028C41.5269 37.9028 39.9375 36.3134 39.9375 34.3528C39.9375 32.3921 41.5269 30.8027 43.4875 30.8027C45.4481 30.8027 47.0375 32.3921 47.0375 34.3528Z" fill="url(#paint0_linear_10_4117)" fill-opacity="0.8"/>
<path d="M35.6683 11.8101C34.3501 11.8166 33.0677 12.2398 32.0047 13.0193C30.9416 13.7987 30.1523 14.8944 29.7497 16.1496C29.358 16.097 28.9634 16.0705 28.5682 16.0701C26.1682 16.0729 23.8673 17.0276 22.1702 18.7246C20.4731 20.4217 19.5185 22.7226 19.5157 25.1227C19.5125 26.3085 19.7443 27.4833 20.1979 28.579C20.6515 29.6747 21.3178 30.6697 22.1583 31.5063C21.8006 32.2123 21.625 32.9965 21.6476 33.7876C21.6701 34.5788 21.8901 35.3517 22.2875 36.0361L41.7175 16.6061C41.3964 15.2424 40.6244 14.027 39.5266 13.1566C38.4287 12.2862 37.0693 11.8118 35.6683 11.8101Z" fill="white" fill-opacity="0.32"/>
<path fill-rule="evenodd" clip-rule="evenodd" d="M30.2462 16.9355L29.6548 16.8561C29.2946 16.8077 28.9316 16.7832 28.5682 16.7829C26.3572 16.7857 24.2376 17.6653 22.6742 19.2287C21.1106 20.7923 20.231 22.9122 20.2284 25.1235L20.2284 25.1246C20.2255 26.2163 20.439 27.2977 20.8565 28.3064C21.2741 29.3151 21.8875 30.231 22.6612 31.0011L23.0282 31.3665L22.7941 31.8285C22.4901 32.4285 22.3409 33.095 22.3601 33.7673C22.37 34.116 22.4251 34.4606 22.523 34.7927L40.9213 16.3944C40.5929 15.3398 39.9539 14.4051 39.0837 13.7152C38.1122 12.9449 36.9093 12.5248 35.6696 12.5229C34.5026 12.5291 33.3673 12.904 32.4261 13.5941C31.4844 14.2846 30.7851 15.2553 30.4284 16.3673L30.2462 16.9355ZM35.6683 11.8101C34.3501 11.8166 33.0677 12.2398 32.0047 13.0193C30.9416 13.7987 30.1523 14.8944 29.7497 16.1496C29.358 16.097 28.9634 16.0705 28.5682 16.0701M41.7175 16.6061L22.2875 36.0361C22.1604 35.8172 22.0514 35.5891 21.9612 35.3544C21.7696 34.8553 21.6629 34.3257 21.6476 33.7876C21.625 32.9965 21.8006 32.2123 22.1583 31.5063C21.3178 30.6697 20.6515 29.6747 20.1979 28.579C19.7443 27.4833 19.5125 26.3085 19.5157 25.1227M41.7175 16.6061C41.3964 15.2424 40.6244 14.027 39.5266 13.1566L41.7175 16.6061ZM39.5266 13.1566C38.4287 12.2862 37.0693 11.8118 35.6683 11.8101L39.5266 13.1566Z" fill="url(#paint1_linear_10_4117)" fill-opacity="0.8"/>
<path d="M28.6257 37.9024C29.2344 38.8093 30.0307 39.5749 30.9609 40.1473C31.8911 40.7197 32.9334 41.0856 34.0173 41.2203C35.1012 41.3549 36.2013 41.2551 37.2433 40.9277C38.2853 40.6003 39.2447 40.0529 40.0568 39.3225C39.3579 38.8473 38.7666 38.2307 38.3211 37.5125C37.8757 36.7943 37.586 35.9906 37.471 35.1534C37.3559 34.3161 37.4179 33.4641 37.6531 32.6523C37.8882 31.8406 38.2912 31.0873 38.836 30.4412C39.3808 29.7951 40.0552 29.2707 40.8155 28.9018C41.5759 28.5329 42.4052 28.3278 43.2499 28.2998C44.0945 28.2718 44.9356 28.4215 45.7187 28.7393C46.5018 29.057 47.2095 29.5356 47.7958 30.1442C48.4159 29.1077 48.8039 27.9491 48.933 26.7482C49.0621 25.5473 48.9293 24.3326 48.5437 23.188C48.158 22.0434 47.5288 20.996 46.6993 20.1181C45.8698 19.2401 44.8598 18.5525 43.7389 18.1025L24.0469 37.7931C24.7392 38.1952 25.5219 38.416 26.3223 38.4351C27.1227 38.4542 27.9149 38.271 28.6257 37.9024Z" fill="white" fill-opacity="0.32"/>
<path fill-rule="evenodd" clip-rule="evenodd" d="M28.8628 36.9766L29.2175 37.5052C29.7693 38.3273 30.4912 39.0213 31.3345 39.5402C32.1777 40.0591 33.1226 40.3908 34.1052 40.5129C35.0877 40.635 36.085 40.5445 37.0296 40.2477C37.7013 40.0366 38.3352 39.7247 38.9101 39.324C38.4484 38.9041 38.046 38.4212 37.7154 37.8882C37.2173 37.0852 36.8935 36.1866 36.7648 35.2504C36.6361 34.3143 36.7055 33.3616 36.9684 32.454C37.2313 31.5464 37.682 30.7041 38.2911 29.9817C38.9002 29.2593 39.6542 28.6729 40.5044 28.2605C41.3545 27.848 42.2818 27.6187 43.2262 27.5874C44.1706 27.5561 45.1111 27.7235 45.9867 28.0788C46.5623 28.3123 47.1015 28.6236 47.5897 29.0029C47.9227 28.2662 48.1375 27.4795 48.2243 26.672C48.3424 25.5735 48.2209 24.4625 47.8682 23.4156C47.5155 22.3686 46.9399 21.4106 46.1812 20.6076C45.529 19.9173 44.7549 19.3557 43.8992 18.9502L25.2901 37.558C25.6297 37.6583 25.9824 37.714 26.3393 37.7225C27.0197 37.7388 27.6933 37.583 28.2976 37.2697L28.8628 36.9766ZM24.7285 38.1195C24.4938 38.0293 24.2658 37.9203 24.0469 37.7931L43.7389 18.1025C44.8598 18.5525 45.8698 19.2401 46.6993 20.1181C47.5288 20.996 48.158 22.0434 48.5437 23.188C48.9293 24.3326 49.0621 25.5473 48.933 26.7482C48.8305 27.7018 48.5648 28.6288 48.1491 29.4891C48.0414 29.7122 47.9235 29.9308 47.7958 30.1442C47.6266 29.9686 47.4473 29.8038 47.2589 29.6505C46.7947 29.2727 46.2758 28.9653 45.7187 28.7393C44.9356 28.4215 44.0945 28.2718 43.2499 28.2998C42.4052 28.3278 41.5759 28.5329 40.8155 28.9018C40.0552 29.2707 39.3808 29.7951 38.836 30.4412C38.2912 31.0873 37.8882 31.8406 37.6531 32.6523C37.4179 33.4641 37.3559 34.3161 37.471 35.1534C37.586 35.9906 37.8757 36.7943 38.3211 37.5125C38.6386 38.0244 39.0302 38.4847 39.4821 38.879C39.6642 39.0379 39.856 39.186 40.0568 39.3225C39.8728 39.4879 39.6813 39.644 39.483 39.7902C38.8058 40.2896 38.0492 40.6745 37.2433 40.9277C36.2013 41.2551 35.1012 41.3549 34.0173 41.2203C32.9334 41.0856 31.8911 40.7197 30.9609 40.1473C30.0307 39.5749 29.2344 38.8093 28.6257 37.9024C27.9149 38.271 27.1227 38.4542 26.3223 38.4351C25.775 38.422 25.236 38.3147 24.7285 38.1195Z" fill="url(#paint2_linear_10_4117)" fill-opacity="0.8"/>
<path d="M33.5427 4C29.0841 4 24.7258 5.3221 21.0186 7.79912C17.3115 10.2761 14.4222 13.7968 12.716 17.916C11.0098 22.0351 10.5633 26.5677 11.4332 30.9405C12.303 35.3134 14.45 39.3301 17.6026 42.4827C20.7552 45.6354 24.772 47.7823 29.1448 48.6522C33.5177 49.522 38.0502 49.0756 42.1694 47.3694C46.2885 45.6632 49.8092 42.7738 52.2862 39.0667C54.7632 35.3596 56.0853 31.0012 56.0853 26.5427C56.0786 20.566 53.7014 14.8362 49.4753 10.6101C45.2492 6.38396 39.5193 4.00677 33.5427 4ZM33.5427 46.6003C28.6525 46.6045 23.9306 44.8146 20.272 41.5699L24.0485 37.7934C23.3197 37.3709 22.7141 36.7651 22.2919 36.0361L18.5147 39.8134C15.1326 35.9898 13.3364 31.02 13.4926 25.9176C13.6488 20.8153 15.7454 15.9647 19.3551 12.355C22.9647 8.74544 27.8153 6.64875 32.9177 6.49259C38.02 6.33644 42.9898 8.13258 46.8134 11.5147L41.7219 16.6061C41.7976 16.9292 41.8472 17.2578 41.8703 17.5888C42.5123 17.6858 43.1409 17.8571 43.7433 18.0993L48.5713 13.2712C51.1295 16.1638 52.7979 19.7336 53.376 23.5516C53.954 27.3696 53.4171 31.2732 51.8298 34.7934C50.2425 38.3136 47.6723 41.3004 44.4282 43.3949C41.1841 45.4895 37.4042 46.6025 33.5427 46.6003Z" fill="white" fill-opacity="0.32"/>
<path fill-rule="evenodd" clip-rule="evenodd" d="M19.2328 41.601L22.9435 37.8903C22.6706 37.6651 22.4199 37.4143 22.1948 37.1413L18.4829 40.8532L17.9808 40.2856C14.4784 36.3261 12.6184 31.1796 12.7801 25.8958C12.9419 20.6121 15.1131 15.589 18.851 11.851C22.589 8.11308 27.6121 5.94185 32.8958 5.78014C38.1796 5.61843 43.3261 7.47843 47.2856 10.9808L47.8532 11.4829L42.4965 16.8396C42.5048 16.8873 42.5126 16.9351 42.5198 16.983C42.8729 17.0585 43.2211 17.155 43.5627 17.2719L48.6032 12.2313L49.1053 12.799C51.7544 15.7944 53.4821 19.4911 54.0807 23.4449C54.6793 27.3986 54.1233 31.4411 52.4796 35.0864C50.8358 38.7317 48.1743 41.8248 44.8148 43.9938C41.4556 46.1627 37.5414 47.3153 33.5428 47.3131C28.4782 47.3173 23.5881 45.4636 19.799 42.1032L19.2328 41.601ZM20.8153 42.0346C24.392 44.9851 28.8912 46.6043 33.5427 46.6003C37.4042 46.6025 41.1841 45.4895 44.4282 43.3949C47.6723 41.3004 50.2425 38.3136 51.8298 34.7934C53.4171 31.2732 53.954 27.3696 53.376 23.5516C52.8336 19.9696 51.3316 16.606 49.0354 13.8152L49.0754 13.7753L48.5713 13.2712L48.0374 13.7435C48.0471 13.7544 48.0567 13.7653 48.0663 13.7762L43.7433 18.0993C43.1409 17.8571 42.5123 17.6858 41.8703 17.5888C41.8472 17.2578 41.7976 16.9292 41.7219 16.6061L46.8134 11.5147C46.6345 11.3565 46.4532 11.2018 46.2694 11.0506C42.5246 7.96883 37.7814 6.34374 32.9177 6.49259C27.8153 6.64875 22.9647 8.74544 19.3551 12.355C15.7454 15.9647 13.6488 20.8153 13.4926 25.9176C13.3438 30.7814 14.9688 35.5246 18.0506 39.2694C18.2018 39.4532 18.3565 39.6345 18.5147 39.8134L22.2919 36.0361C22.4137 36.2463 22.5507 36.4463 22.7015 36.6346C22.9228 36.911 23.1739 37.1622 23.4502 37.3836C23.6384 37.5345 23.8383 37.6716 24.0485 37.7934L20.272 41.5699C20.4506 41.7283 20.6317 41.8832 20.8153 42.0346ZM33.5423 4.71279C29.2249 4.71287 25.0044 5.99316 21.4146 8.39178C17.8247 10.7905 15.0267 14.1998 13.3745 18.1887C11.7222 22.1776 11.2899 26.5669 12.1323 30.8015C12.9746 35.036 15.0537 38.9257 18.1066 41.9787C21.1596 45.0317 25.0493 47.1108 29.2839 47.9531C33.5184 48.7954 37.9077 48.3631 41.8966 46.7108C45.8855 45.0586 49.2948 42.2606 51.6935 38.6707C54.0921 35.081 55.3724 30.8607 55.3725 26.5435C55.366 20.7556 53.0639 15.2067 48.9712 11.1141C44.8787 7.02155 39.33 4.71945 33.5423 4.71279ZM56.0853 26.5427C56.0853 31.0012 54.7632 35.3596 52.2862 39.0667C49.8092 42.7738 46.2885 45.6632 42.1694 47.3694C38.0502 49.0756 33.5177 49.522 29.1448 48.6522C24.772 47.7823 20.7552 45.6354 17.6026 42.4827C14.45 39.3301 12.303 35.3134 11.4332 30.9405C10.5633 26.5677 11.0098 22.0351 12.716 17.916C14.4222 13.7968 17.3115 10.2761 21.0186 7.79912C24.7258 5.3221 29.0841 4 33.5427 4C39.5193 4.00677 45.2492 6.38396 49.4753 10.6101C53.7014 14.8362 56.0786 20.566 56.0853 26.5427Z" fill="url(#paint3_linear_10_4117)" fill-opacity="0.8"/>
<path d="M27.8675 43.4054C28.5537 43.4054 29.11 42.8491 29.11 42.1629C29.11 41.4767 28.5537 40.9204 27.8675 40.9204C27.1813 40.9204 26.625 41.4767 26.625 42.1629C26.625 42.8491 27.1813 43.4054 27.8675 43.4054Z" fill="white" fill-opacity="0.32"/>
<path fill-rule="evenodd" clip-rule="evenodd" d="M27.8675 42.6926C28.1601 42.6926 28.3972 42.4555 28.3972 42.1629C28.3972 41.8704 28.1601 41.6332 27.8675 41.6332C27.575 41.6332 27.3378 41.8704 27.3378 42.1629C27.3378 42.4555 27.575 42.6926 27.8675 42.6926ZM29.11 42.1629C29.11 42.8491 28.5537 43.4054 27.8675 43.4054C27.1813 43.4054 26.625 42.8491 26.625 42.1629C26.625 41.4767 27.1813 40.9204 27.8675 40.9204C28.5537 40.9204 29.11 41.4767 29.11 42.1629Z" fill="url(#paint4_linear_10_4117)" fill-opacity="0.8"/>
<path d="M26.4456 13.5851C27.1319 13.5851 27.6881 13.0288 27.6881 12.3426C27.6881 11.6564 27.1319 11.1001 26.4456 11.1001C25.7594 11.1001 25.2031 11.6564 25.2031 12.3426C25.2031 13.0288 25.7594 13.5851 26.4456 13.5851Z" fill="white" fill-opacity="0.32"/>
<path fill-rule="evenodd" clip-rule="evenodd" d="M26.4456 12.8723C26.7382 12.8723 26.9754 12.6352 26.9754 12.3426C26.9754 12.0501 26.7382 11.8129 26.4456 11.8129C26.1531 11.8129 25.9159 12.0501 25.9159 12.3426C25.9159 12.6352 26.1531 12.8723 26.4456 12.8723ZM27.6881 12.3426C27.6881 13.0288 27.1319 13.5851 26.4456 13.5851C25.7594 13.5851 25.2031 13.0288 25.2031 12.3426C25.2031 11.6564 25.7594 11.1001 26.4456 11.1001C27.1319 11.1001 27.6881 11.6564 27.6881 12.3426Z" fill="url(#paint5_linear_10_4117)" fill-opacity="0.8"/>
</g>
<defs>
<filter id="filter0_d_10_4117" x="0.8" y="0.8" width="65.4859" height="65.4853" filterUnits="userSpaceOnUse" color-interpolation-filters="sRGB">
<feFlood flood-opacity="0" result="BackgroundImageFix"/>
<feColorMatrix in="SourceAlpha" type="matrix" values="0 0 0 0 0 0 0 0 0 0 0 0 0 0 0 0 0 0 127 0" result="hardAlpha"/>
<feOffset dy="7"/>
<feGaussianBlur stdDeviation="5.1"/>
<feComposite in2="hardAlpha" operator="out"/>
<feColorMatrix type="matrix" values="0 0 0 0 0.713854 0 0 0 0 0.719417 0 0 0 0 0.741667 0 0 0 1 0"/>
<feBlend mode="normal" in2="BackgroundImageFix" result="effect1_dropShadow_10_4117"/>
<feBlend mode="normal" in="SourceGraphic" in2="effect1_dropShadow_10_4117" result="shape"/>
</filter>
<linearGradient id="paint0_linear_10_4117" x1="39.7828" y1="30.9354" x2="45.5389" y2="38.8418" gradientUnits="userSpaceOnUse">
<stop stop-color="#CF0713"/>
<stop offset="0.658514" stop-color="#CF0713" stop-opacity="0"/>
</linearGradient>
<linearGradient id="paint1_linear_10_4117" x1="19.0319" y1="12.2626" x2="39.1351" y2="37.5688" gradientUnits="userSpaceOnUse">
<stop stop-color="#CF0713"/>
<stop offset="0.658514" stop-color="#CF0713" stop-opacity="0"/>
</linearGradient>
<linearGradient id="paint2_linear_10_4117" x1="23.5037" y1="18.5355" x2="41.8314" y2="45.6201" gradientUnits="userSpaceOnUse">
<stop stop-color="#CF0713"/>
<stop offset="0.658514" stop-color="#CF0713" stop-opacity="0"/>
</linearGradient>
<linearGradient id="paint3_linear_10_4117" x1="10.0178" y1="4.84221" x2="46.5687" y2="55.0481" gradientUnits="userSpaceOnUse">
<stop stop-color="#CF0713"/>
<stop offset="0.658514" stop-color="#CF0713" stop-opacity="0"/>
</linearGradient>
<linearGradient id="paint4_linear_10_4117" x1="26.5709" y1="40.9668" x2="28.5855" y2="43.7341" gradientUnits="userSpaceOnUse">
<stop stop-color="#CF0713"/>
<stop offset="0.658514" stop-color="#CF0713" stop-opacity="0"/>
</linearGradient>
<linearGradient id="paint5_linear_10_4117" x1="25.149" y1="11.1465" x2="27.1636" y2="13.9138" gradientUnits="userSpaceOnUse">
<stop stop-color="#CF0713"/>
<stop offset="0.658514" stop-color="#CF0713" stop-opacity="0"/>
</linearGradient>
</defs>
</svg>
