<svg width="92" height="94" viewBox="0 0 92 94" fill="none" xmlns="http://www.w3.org/2000/svg">
<path d="M21.2343 43.9169C22.1414 44.7027 23.0668 45.6327 24.0617 46.76C25.0972 47.9317 26.079 49.1711 27.0292 50.3691C27.6754 51.1831 28.3203 51.9977 28.9849 52.7954C30.7269 54.8867 32.8805 57.1681 35.6475 58.2383C37.2689 58.8642 39.564 59.0943 41.1461 57.8628C41.56 57.5396 41.8716 57.1387 42.1366 56.7229C37.9986 51.1344 33.0154 48.7982 32.9499 48.768C32.6131 48.6146 32.4636 48.2168 32.617 47.8793C32.7704 47.5424 33.1688 47.3937 33.5057 47.5464C33.7799 47.6711 38.5988 49.9277 42.8001 55.3524C42.8604 55.1771 42.9236 54.9983 42.9668 54.8395C43.3941 53.2646 43.3259 51.5593 42.7767 50.0388C42.1331 48.2535 40.7686 46.5516 38.8313 45.1169C36.0302 43.0407 32.5003 41.7705 28.6244 41.4422C26.7395 41.2842 22.2961 41.0817 18.9182 42.2791C19.1253 42.4213 19.3403 42.5622 19.5592 42.7064C20.1228 43.0767 20.7061 43.4595 21.2343 43.9169Z" fill="white"/>
<path d="M46.6371 48.3131C46.7355 47.741 46.8426 47.1897 46.9599 46.6662C48.542 39.6063 53.1808 31.6815 58.7791 26.4771C59.0504 26.2254 59.4751 26.2392 59.7281 26.5118C59.981 26.7832 59.9653 27.2078 59.694 27.4602C54.2792 32.4922 49.7964 40.1464 48.2707 46.9598C48.1391 47.5468 48.0214 48.1746 47.9141 48.829C48.2088 48.8925 48.5115 48.9347 48.8409 48.9357C49.7794 48.935 50.7781 48.705 52.0627 48.2023C58.6441 45.63 64.1348 39.8449 66.7511 32.7282C69.0449 26.4856 69.2127 19.2882 67.2492 12.3202C64.3393 16.1463 60.331 18.9507 56.4446 21.6706C53.2502 23.906 49.9472 26.2169 47.3099 29.0646C46.4828 29.9565 45.7488 30.8852 45.1275 31.8257C42.2765 36.1433 41.3878 42.7791 45.2048 47.1086C45.6523 47.6162 46.1377 48.0133 46.6371 48.3131Z" fill="white"/>
<path d="M69.9716 52.9453C67.3763 52.4544 64.7141 51.951 62.0899 51.951C61.2917 51.951 60.4974 51.9976 59.7083 52.1057C57.1903 52.4491 54.9974 53.3942 53.3655 54.838C52.1124 55.9482 51.1634 57.3921 50.6234 59.0122C50.2845 60.0274 50.1369 60.8646 50.1685 61.5547C55.9648 59.026 62.4511 58.1544 69.5377 59.0272C69.9061 59.0725 70.1682 59.4066 70.1223 59.775C70.0778 60.1433 69.7409 60.4133 69.3752 60.3589C62.4696 59.5122 56.1642 60.3701 50.549 62.8537C50.5986 62.9319 50.6432 63.013 50.7033 63.0853C51.2539 63.7453 52.0993 64.1798 52.8543 64.5173C56.1391 65.986 59.9941 66.6886 64.001 66.5471C68.1562 66.4009 71.8919 65.3516 74.8004 63.5126C78.4928 61.1801 81.1314 57.4628 83.2247 53.912C78.6908 54.5936 74.0847 53.7232 69.9716 52.9453Z" fill="white"/>
<path d="M67.7153 80.6364C65.1933 80.6364 62.7789 81.5704 60.9177 83.2651C60.7512 83.4159 60.5231 83.4768 60.3029 83.4198C60.0853 83.3654 59.9084 83.2055 59.8337 82.9939C57.7037 77.0109 52.0018 72.9907 45.6473 72.9907C39.0226 72.9907 33.2462 77.2363 31.2734 83.5548C31.2092 83.758 31.0532 83.9192 30.8514 83.9893C30.6521 84.0581 30.4293 84.0293 30.2524 83.9081C28.7083 82.8477 26.8968 82.2874 25.0133 82.2874C20.2342 82.2874 16.2272 85.9928 15.7776 90.6795H77.8173C77.7845 85.1362 73.2651 80.6364 67.7153 80.6364Z" fill="white"/>
<path d="M48.8743 62.1247C48.2298 62.4396 47.603 62.7958 46.9768 63.1539C47.0024 59.0471 47.1741 54.1881 47.7151 50.156L46.4158 49.7333C45.9762 52.8769 45.7643 56.4973 45.6763 59.8978C45.0691 58.7088 44.4129 57.6168 43.7234 56.6192L42.9612 57.8949C43.956 59.3959 44.8731 61.1023 45.6261 63.0298C45.599 67.1958 45.7249 70.5958 45.77 71.6532L47.1158 71.7218C47.0854 71.0018 46.9807 68.25 46.9735 64.6877C47.7376 64.2261 48.5142 63.7924 49.3082 63.3995L48.8743 62.1247Z" fill="white"/>
<g filter="url(#filter0_b_10_8159)">
<path d="M20.0106 42.0772C20.2488 41.9781 20.4544 41.8143 20.6044 41.6044C20.7474 41.4046 20.8351 41.1706 20.8587 40.926C20.8824 40.6815 20.8412 40.435 20.7392 40.2115L19.4717 37.4443L18.2042 40.2115C18.1022 40.435 18.061 40.6815 18.0846 40.926C18.1083 41.1706 18.196 41.4046 18.339 41.6044C18.4889 41.8143 18.6946 41.9781 18.9328 42.0772V40.8689C18.9328 40.7259 18.9895 40.5888 19.0906 40.4877C19.1917 40.3866 19.3289 40.3298 19.4718 40.3298C19.6148 40.3298 19.7519 40.3866 19.853 40.4877C19.9541 40.5888 20.0109 40.7259 20.0109 40.8689L20.0106 42.0772Z" fill="white" fill-opacity="0.4"/>
<path d="M18.6828 41.6207C18.6312 41.5716 18.5842 41.5175 18.5424 41.4591L18.5423 41.459C18.4249 41.2949 18.3529 41.1028 18.3335 40.902C18.314 40.7012 18.3479 40.4989 18.4316 40.3154C18.4316 40.3154 18.4316 40.3153 18.4317 40.3153L19.4717 38.0447L20.5117 40.3153C20.5117 40.3153 20.5117 40.3153 20.5117 40.3153C20.5955 40.4988 20.6293 40.7012 20.6099 40.902C20.5905 41.1028 20.5184 41.2949 20.4011 41.459L20.401 41.4591C20.3592 41.5175 20.3122 41.5716 20.2607 41.6206L20.2609 40.8689V40.8689C20.2609 40.6596 20.1777 40.4589 20.0298 40.3109L19.853 40.4877L20.0298 40.3109C19.8818 40.1629 19.6811 40.0798 19.4718 40.0798C19.2625 40.0798 19.0618 40.1629 18.9139 40.3109L19.0906 40.4877L18.9139 40.3109C18.7659 40.4589 18.6828 40.6596 18.6828 40.8689V41.6207Z" stroke="url(#paint0_linear_10_8159)" stroke-width="0.5"/>
</g>
<g filter="url(#filter1_b_10_8159)">
<path d="M36.5327 60.1972V30.774C25.333 32.6676 13.895 32.6676 2.69531 30.774V60.1972C13.9481 61.2879 25.2799 61.2879 36.5327 60.1972ZM5.93333 55.4291C5.93333 55.5721 5.87653 55.7092 5.77544 55.8103C5.67434 55.9114 5.53723 55.9682 5.39426 55.9682C5.2513 55.9682 5.11418 55.9114 5.01309 55.8103C4.91199 55.7092 4.8552 55.5721 4.8552 55.4291V42.0065C4.8552 41.8635 4.91199 41.7264 5.01309 41.6253C5.11418 41.5242 5.2513 41.4674 5.39426 41.4674C5.53723 41.4674 5.67434 41.5242 5.77544 41.6253C5.87653 41.7264 5.93333 41.8635 5.93333 42.0065V55.4291ZM5.93333 39.2389C5.93333 39.3819 5.87653 39.519 5.77544 39.6201C5.67434 39.7212 5.53723 39.778 5.39426 39.778C5.2513 39.778 5.11418 39.7212 5.01309 39.6201C4.91199 39.519 4.8552 39.3819 4.8552 39.2389V37.261C4.8552 37.118 4.91199 36.9809 5.01309 36.8798C5.11418 36.7787 5.2513 36.7219 5.39426 36.7219C5.53723 36.7219 5.67434 36.7787 5.77544 36.8798C5.87653 36.9809 5.93333 37.118 5.93333 37.261V39.2389ZM12.6255 57.0319C12.6255 56.8889 12.6823 56.7518 12.7834 56.6507C12.8845 56.5496 13.0216 56.4929 13.1646 56.4929H18.9325V50.4625L17.3174 49.0717C16.8924 49.392 16.3743 49.5644 15.8421 49.5625C15.8011 49.5625 15.76 49.5615 15.7188 49.5596C15.2836 49.5382 14.8617 49.4024 14.4957 49.166C14.1297 48.9295 13.8326 48.6007 13.6342 48.2127L11.7181 44.4528C11.6713 44.3608 11.6519 44.2573 11.6621 44.1546C11.6724 44.0519 11.7119 43.9543 11.776 43.8734C11.8401 43.7925 11.9261 43.7317 12.0237 43.6983C12.1213 43.6648 12.2265 43.66 12.3267 43.6846L16.4258 44.6897C16.8488 44.794 17.2369 45.008 17.5509 45.3102C17.8648 45.6123 18.0935 45.992 18.2138 46.4108C18.3941 47.0269 18.3243 47.6893 18.0196 48.2544L18.9327 49.0403V43.2059C18.3387 43.076 17.8145 42.7292 17.4628 42.2332C17.2093 41.8788 17.0537 41.4638 17.0118 41.0302C16.9699 40.5965 17.0432 40.1594 17.2241 39.7631L18.9816 35.9259C19.0246 35.832 19.0936 35.7524 19.1805 35.6966C19.2674 35.6408 19.3685 35.6112 19.4717 35.6112C19.575 35.6112 19.6761 35.6408 19.763 35.6966C19.8499 35.7524 19.9189 35.832 19.9619 35.9259L21.7194 39.7631C21.9003 40.1594 21.9735 40.5965 21.9316 41.0301C21.8897 41.4638 21.7342 41.8788 21.4807 42.2332C21.1289 42.7291 20.6048 43.076 20.0108 43.2059V51.9302L21.2566 50.9625C20.9982 50.4207 20.9483 49.8028 21.1164 49.2266C21.2367 48.8077 21.4654 48.428 21.7793 48.1257C22.0933 47.8234 22.4814 47.6093 22.9045 47.5049L27.0035 46.4998C27.1038 46.4753 27.209 46.48 27.3066 46.5134C27.4043 46.5469 27.4903 46.6077 27.5544 46.6886C27.6185 46.7695 27.658 46.8671 27.6683 46.9698C27.6785 47.0725 27.6591 47.176 27.6123 47.268L25.696 51.028C25.4978 51.4161 25.2006 51.745 24.8347 51.9816C24.4687 52.2182 24.0468 52.3541 23.6115 52.3756C23.5702 52.3776 23.5291 52.3786 23.4882 52.3786C22.9146 52.3807 22.3588 52.1802 21.9185 51.8126L20.0108 53.295V56.4926H25.7064C25.8494 56.4926 25.9865 56.5494 26.0876 56.6505C26.1887 56.7516 26.2455 56.8887 26.2455 57.0316C26.2455 57.1746 26.1887 57.3117 26.0876 57.4128C25.9865 57.5139 25.8494 57.5707 25.7064 57.5707H13.1646C13.0217 57.5707 12.8846 57.514 12.7835 57.4129C12.6824 57.3119 12.6256 57.1748 12.6255 57.0319Z" fill="white" fill-opacity="0.4"/>
<path d="M15.8417 49.8125C16.3603 49.8143 16.8668 49.6659 17.301 49.3875L18.6825 50.5771V56.2429H13.1646C12.9553 56.2429 12.7546 56.326 12.6066 56.474C12.4587 56.6219 12.3755 56.8226 12.3755 57.0319V57.032C12.3756 57.2412 12.4588 57.4418 12.6068 57.5897C12.7547 57.7376 12.9554 57.8207 13.1646 57.8207H25.7064C25.9157 57.8207 26.1164 57.7376 26.2644 57.5896C26.4123 57.4416 26.4955 57.2409 26.4955 57.0316C26.4955 56.8224 26.4123 56.6217 26.2644 56.4737C26.1164 56.3257 25.9157 56.2426 25.7064 56.2426H20.2608V53.4173L21.9191 52.1287C22.3756 52.4547 22.9243 52.6305 23.4885 52.6286M15.8417 49.8125C15.7968 49.8125 15.7519 49.8114 15.7068 49.8093L15.7065 49.8093C15.2274 49.7857 14.763 49.6363 14.36 49.3759C13.9571 49.1156 13.63 48.7536 13.4116 48.3265L13.4115 48.3262L11.4954 44.5663L11.4953 44.5662C11.4268 44.4316 11.3984 44.2801 11.4134 44.1298C11.4284 43.9794 11.4862 43.8366 11.5801 43.7182C11.6739 43.5998 11.7997 43.5108 11.9426 43.4618C12.0855 43.4128 12.2395 43.4058 12.3862 43.4418L12.3863 43.4418L16.4853 44.4469L16.4856 44.4469C16.9514 44.5618 17.3786 44.7974 17.7242 45.1301C18.0697 45.4626 18.3214 45.8803 18.4539 46.3411C18.6334 46.9551 18.5877 47.6106 18.3292 48.1909L18.6827 48.4952V43.3993C18.1094 43.2278 17.6076 42.8694 17.2592 42.3782C16.9803 41.9882 16.8091 41.5315 16.763 41.0542C16.7169 40.5767 16.7975 40.0956 16.9967 39.6592L16.9968 39.6589L18.7543 35.8218C18.8172 35.6844 18.9183 35.5679 19.0455 35.4863C19.1726 35.4046 19.3206 35.3612 19.4717 35.3612C19.6229 35.3612 19.7709 35.4046 19.898 35.4863L19.763 35.6966L19.898 35.4863C20.0252 35.5679 20.1263 35.6844 20.1892 35.8218L21.9467 39.6589L21.9468 39.6592C22.146 40.0956 22.2266 40.5767 22.1804 41.0542C22.1343 41.5316 21.9631 41.9885 21.684 42.3786C21.3356 42.8695 20.8339 43.2278 20.2608 43.3993V51.4195L20.9505 50.8837C20.7374 50.3337 20.7101 49.7269 20.8763 49.157C21.0088 48.6961 21.2604 48.2782 21.6059 47.9456C21.9515 47.6128 22.3788 47.3771 22.8446 47.2622L22.845 47.2621L26.944 46.257C27.0907 46.2211 27.2447 46.228 27.3877 46.2769C27.5306 46.3259 27.6565 46.4149 27.7503 46.5333C27.8442 46.6518 27.902 46.7946 27.917 46.945C27.9321 47.0953 27.9036 47.2468 27.835 47.3815L27.835 47.3815L25.9188 51.1415L25.9187 51.1417C25.7004 51.569 25.3733 51.9311 24.9704 52.1916C24.5675 52.452 24.103 52.6017 23.6238 52.6253L23.6234 52.6253C23.5784 52.6275 23.5334 52.6286 23.4885 52.6286M15.8417 49.8125C15.8418 49.8125 15.842 49.8125 15.8421 49.8125V49.5625L15.8412 49.8125C15.8414 49.8125 15.8415 49.8125 15.8417 49.8125ZM23.4885 52.6286C23.4887 52.6286 23.4889 52.6286 23.4891 52.6286L23.4882 52.3786V52.6286C23.4883 52.6286 23.4884 52.6286 23.4885 52.6286ZM2.94531 31.0694C13.9822 32.9024 25.2458 32.9024 36.2827 31.0694V59.9701C25.1955 61.0303 14.0325 61.0303 2.94531 59.9701V31.0694ZM5.95221 55.9871C6.10019 55.8391 6.18333 55.6384 6.18333 55.4291V42.0065C6.18333 41.7972 6.10019 41.5965 5.95222 41.4485C5.80424 41.3006 5.60353 41.2174 5.39426 41.2174C5.18499 41.2174 4.98429 41.3006 4.83631 41.4485C4.68833 41.5965 4.6052 41.7972 4.6052 42.0065V55.4291C4.6052 55.6384 4.68833 55.8391 4.83631 55.9871C4.98429 56.1351 5.18499 56.2182 5.39426 56.2182C5.60354 56.2182 5.80424 56.1351 5.95221 55.9871ZM5.95222 39.7969C6.10019 39.6489 6.18333 39.4482 6.18333 39.2389V37.261C6.18333 37.0517 6.10019 36.851 5.95222 36.703C5.80424 36.5551 5.60353 36.4719 5.39426 36.4719C5.18499 36.4719 4.98429 36.5551 4.83631 36.703C4.68833 36.851 4.6052 37.0517 4.6052 37.261V39.2389C4.6052 39.4482 4.68833 39.6489 4.83631 39.7969C4.98429 39.9449 5.18499 40.028 5.39426 40.028C5.60353 40.028 5.80424 39.9449 5.95222 39.7969Z" stroke="url(#paint1_linear_10_8159)" stroke-width="0.5"/>
</g>
<g filter="url(#filter2_b_10_8159)">
<path d="M17.984 3.32224C14.5778 2.84115 11.121 2.84115 7.71484 3.32224V3.33221C11.121 3.81317 14.5778 3.81317 17.984 3.33221V3.32224Z" fill="white" fill-opacity="0.4"/>
<path d="M9.94607 3.32719C11.8786 3.17284 13.8203 3.17284 15.7528 3.32719C13.8203 3.48151 11.8786 3.48151 9.94607 3.32719Z" stroke="url(#paint2_linear_10_8159)" stroke-width="0.5"/>
</g>
<g filter="url(#filter3_b_10_8159)">
<path d="M23.1043 49.5285C23.1601 49.4842 23.2241 49.4514 23.2927 49.432C23.3613 49.4126 23.433 49.407 23.5038 49.4155C23.5745 49.424 23.6429 49.4465 23.7049 49.4816C23.7669 49.5167 23.8214 49.5637 23.8651 49.62C23.9088 49.6763 23.941 49.7406 23.9597 49.8094C23.9783 49.8782 23.9832 49.95 23.9739 50.0207C23.9647 50.0913 23.9415 50.1594 23.9058 50.2211C23.87 50.2828 23.8224 50.3367 23.7657 50.3798L22.8114 51.1211C23.0396 51.2503 23.2999 51.312 23.5618 51.2988C23.8072 51.2868 24.0451 51.2102 24.2515 51.0769C24.4579 50.9435 24.6255 50.7581 24.7373 50.5393L26.1195 47.8275L23.1634 48.5524C22.9829 48.5966 22.8131 48.6764 22.6639 48.7872C22.5147 48.898 22.3892 49.0375 22.2948 49.1976C22.2004 49.3576 22.1389 49.5349 22.1141 49.7191C22.0892 49.9033 22.1015 50.0905 22.1501 50.2699L23.1043 49.5285Z" fill="white" fill-opacity="0.4"/>
<path d="M22.3572 49.7924C22.3585 49.7791 22.36 49.7658 22.3618 49.7525C22.3822 49.6014 22.4326 49.4559 22.5101 49.3246C22.5876 49.1933 22.6906 49.0788 22.813 48.9879C22.9354 48.897 23.0747 48.8315 23.2228 48.7953L23.223 48.7952L25.6489 48.2003L24.5147 50.4255C24.5147 50.4255 24.5147 50.4255 24.5147 50.4255C24.4229 50.6052 24.2853 50.7574 24.1159 50.8669C23.9464 50.9764 23.751 51.0392 23.5495 51.0491L23.5492 51.0491C23.4742 51.0529 23.3993 51.0492 23.3256 51.0382L23.9181 50.578C24.0007 50.515 24.07 50.4363 24.1221 50.3465C24.1744 50.2563 24.2083 50.1565 24.2218 50.0531C24.2354 49.9497 24.2283 49.8446 24.2009 49.7439C24.1736 49.6432 24.1265 49.549 24.0625 49.4666C23.9985 49.3842 23.9188 49.3154 23.828 49.264L23.7049 49.4816L23.828 49.264C23.7373 49.2126 23.6372 49.1797 23.5336 49.1673C23.43 49.1548 23.325 49.163 23.2246 49.1914C23.1247 49.2197 23.0314 49.2674 22.9499 49.3318L22.3572 49.7924Z" stroke="url(#paint3_linear_10_8159)" stroke-width="0.5"/>
</g>
<g filter="url(#filter4_b_10_8159)">
<path d="M36.5002 61.2806C30.8962 61.8206 25.256 62.0934 19.6154 62.0934C13.9748 62.0934 8.33443 61.8206 2.73047 61.2806C2.87847 62.5883 3.50235 63.7958 4.48326 64.6731C5.46417 65.5504 6.73354 66.0362 8.04953 66.0379H31.1811C32.4971 66.0362 33.7665 65.5504 34.7474 64.6731C35.7283 63.7958 36.3522 62.5883 36.5002 61.2806Z" fill="white" fill-opacity="0.4"/>
<path d="M19.6154 62.3434C25.1578 62.3434 30.6998 62.0804 36.2075 61.5597C36.01 62.6874 35.4385 63.7195 34.5807 64.4867C33.6456 65.3231 32.4354 65.7862 31.1808 65.7879H8.04986C6.79525 65.7862 5.58508 65.3231 4.64992 64.4867C3.7921 63.7195 3.22068 62.6874 3.02313 61.5597C8.53082 62.0804 14.073 62.3434 19.6154 62.3434Z" stroke="url(#paint4_linear_10_8159)" stroke-width="0.5"/>
</g>
<g filter="url(#filter5_b_10_8159)">
<path d="M16.1709 45.7362L13.2148 45.0117L14.597 47.7232C14.7089 47.942 14.8764 48.1274 15.0828 48.2607C15.2892 48.394 15.5271 48.4706 15.7726 48.4826C16.0121 48.4945 16.2506 48.444 16.4647 48.3358L15.5483 47.5464C15.4942 47.5003 15.4497 47.4441 15.4174 47.3808C15.3852 47.3175 15.3657 47.2484 15.3602 47.1776C15.3547 47.1068 15.3633 47.0355 15.3854 46.968C15.4075 46.9005 15.4428 46.838 15.4891 46.7842C15.5355 46.7303 15.592 46.6862 15.6555 46.6543C15.7189 46.6223 15.7881 46.6033 15.859 46.5982C15.9298 46.5931 16.001 46.602 16.0684 46.6245C16.1358 46.647 16.1981 46.6826 16.2517 46.7293L17.1681 47.5184C17.2532 47.2551 17.2573 46.9723 17.1799 46.7067C17.112 46.4704 16.9829 46.2563 16.8057 46.0859C16.6286 45.9156 16.4096 45.7949 16.1709 45.7362Z" fill="white" fill-opacity="0.4"/>
<path d="M13.6855 45.3845L16.1112 45.979C16.1112 45.979 16.1113 45.979 16.1113 45.979C16.3072 46.0272 16.487 46.1263 16.6324 46.2661C16.7779 46.406 16.8839 46.5818 16.9397 46.7758L16.9399 46.7766C16.964 46.8593 16.9784 46.9442 16.9833 47.0293L16.4158 46.5408C16.4156 46.5406 16.4154 46.5404 16.4152 46.5403C16.3369 46.4722 16.246 46.4203 16.1476 46.3874C16.0489 46.3545 15.9448 46.3414 15.841 46.3488C15.7373 46.3563 15.6361 46.3842 15.5432 46.4309C15.4502 46.4776 15.3675 46.5423 15.2996 46.6211C15.2318 46.6999 15.1802 46.7914 15.1478 46.8902C15.1154 46.989 15.1029 47.0933 15.111 47.197C15.119 47.3006 15.1475 47.4017 15.1947 47.4944L15.4174 47.3808L15.1947 47.4944C15.2419 47.5868 15.3068 47.669 15.3857 47.7363L15.957 48.2284C15.9 48.2342 15.8425 48.2358 15.785 48.2329L15.7848 48.2329C15.5833 48.223 15.388 48.1602 15.2185 48.0507C15.0491 47.9413 14.9115 47.7891 14.8196 47.6095C14.8196 47.6095 14.8196 47.6094 14.8196 47.6094L13.6855 45.3845ZM15.0828 48.2607C15.2892 48.394 15.5271 48.4706 15.7726 48.4826L14.597 47.7232C14.7089 47.942 14.8764 48.1274 15.0828 48.2607Z" stroke="url(#paint5_linear_10_8159)" stroke-width="0.5"/>
</g>
<g filter="url(#filter6_b_10_8159)">
<path d="M36.5327 29.6791V16.3011C36.5338 15.964 36.4573 15.6312 36.3093 15.3284C36.1612 15.0255 35.9455 14.7608 35.6788 14.5547L28.4932 8.96673C28.2113 8.74756 27.8806 8.59986 27.5292 8.53624C27.1779 8.47262 26.8164 8.49497 26.4755 8.60138L21.9002 10.0311C21.4944 10.1587 21.0614 10.1724 20.6483 10.0708C20.2353 9.96921 19.858 9.75614 19.5577 9.45485L18.3326 8.2297C16.5169 8.49634 14.6842 8.63051 12.8491 8.63116C10.9998 8.63056 9.15306 8.49436 7.3237 8.22363C5.88641 9.3406 4.72257 10.7704 3.92059 12.4045C3.1186 14.0386 2.69957 15.834 2.69531 17.6543V29.6793C13.8933 31.593 25.3347 31.5929 36.5327 29.6791ZM21.7405 13.7118C21.767 13.4161 21.8681 13.1319 22.0344 12.8859C22.2007 12.64 22.4267 12.4403 22.6913 12.3055L25.737 10.7454C26.0356 10.5933 26.3712 10.5292 26.7049 10.5606C27.0385 10.592 27.3563 10.7175 27.6213 10.9226L34.2542 16.0815C34.5159 16.2863 34.7147 16.5607 34.8277 16.8732C34.9408 17.1857 34.9635 17.5238 34.8934 17.8486L34.1696 21.1536C34.1067 21.444 33.9711 21.7137 33.7755 21.9373C33.5798 22.1609 33.3305 22.331 33.051 22.4318C32.8571 22.5028 32.6523 22.5393 32.4459 22.5397C32.0575 22.5395 31.6801 22.4102 31.373 22.1723L22.4183 15.2688C22.1827 15.0879 21.9969 14.8502 21.8783 14.5778C21.7598 14.3055 21.7124 14.0075 21.7405 13.7118Z" fill="white" fill-opacity="0.4"/>
<path d="M36.2827 16.3011V16.3003C36.2836 16.0015 36.2159 15.7066 36.0847 15.4382C35.9534 15.1698 35.7623 14.9352 35.5259 14.7524L35.5253 14.752L28.3398 9.1641C28.0897 8.96969 27.7964 8.83867 27.4847 8.78224C27.173 8.72581 26.8524 8.74563 26.55 8.84002L21.9752 10.2696C21.9751 10.2696 21.9751 10.2696 21.975 10.2697C21.5256 10.4109 21.0461 10.4261 20.5886 10.3136C20.1312 10.2011 19.7135 9.96518 19.3809 9.63163L36.2827 16.3011ZM36.2827 16.3011V29.468C25.2482 31.33 13.9798 31.33 2.94531 29.4681V17.6546C2.94952 15.8724 3.35981 14.1146 4.14502 12.5147C4.91467 10.9465 6.0247 9.57037 7.39359 8.48654C9.20021 8.74869 11.0234 8.88057 12.849 8.88116L12.8492 8.88116C14.6545 8.88052 16.4575 8.75151 18.2444 8.49511L19.3807 9.63133L36.2827 16.3011ZM25.623 10.5229L25.6236 10.5226C25.9644 10.349 26.3475 10.2759 26.7283 10.3117C27.109 10.3475 27.4718 10.4908 27.7743 10.7249L27.7748 10.7252L34.4077 15.8842L34.4082 15.8847C34.707 16.1184 34.9338 16.4315 35.0628 16.7882C35.1918 17.1448 35.2178 17.5306 35.1378 17.9014L35.1376 17.9021L34.4139 21.2064C34.4139 21.2065 34.4139 21.2065 34.4139 21.2066C34.3421 21.5383 34.1871 21.8464 33.9636 22.1019C33.7402 22.3572 33.4555 22.5516 33.1364 22.6668C32.9153 22.7476 32.6818 22.7892 32.4464 22.7897L32.4458 22.7897C32.0021 22.7894 31.571 22.6419 31.2203 22.3702C31.2201 22.3701 31.22 22.37 31.2199 22.3699L22.266 15.4671C22.2659 15.467 22.2659 15.4669 22.2658 15.4669L22.2656 15.4668L25.623 10.5229ZM25.623 10.5229L22.5779 12.0828L25.623 10.5229ZM21.4916 13.6888C21.4916 13.6891 21.4915 13.6893 21.4915 13.6896L21.7405 13.7118L21.4917 13.6881C21.4916 13.6884 21.4916 13.6886 21.4916 13.6888Z" stroke="url(#paint6_linear_10_8159)" stroke-width="0.5"/>
</g>
<g filter="url(#filter7_b_10_8159)">
<path d="M7.71484 4.42139V7.1923C11.121 7.67326 14.5778 7.67326 17.984 7.1923V4.42139C16.2824 4.65487 14.5669 4.77221 12.8494 4.77259C11.1319 4.77221 9.41641 4.65487 7.71484 4.42139Z" fill="white" fill-opacity="0.4"/>
<path d="M12.8495 5.02259C14.4828 5.02222 16.1144 4.91678 17.734 4.70695V6.97447C14.4923 7.41254 11.2065 7.41254 7.96484 6.97447V4.70695C9.58446 4.91678 11.216 5.02222 12.8494 5.02259L12.8495 5.02259Z" stroke="url(#paint7_linear_10_8159)" stroke-width="0.5"/>
</g>
<rect x="67.7193" y="42.3987" width="3.4" height="1.4" rx="0.7" transform="rotate(-52 67.7193 42.3987)" fill="white" fill-opacity="0.4" stroke="url(#paint8_linear_10_8159)" stroke-width="0.4"/>
<g filter="url(#filter8_b_10_8159)">
<rect x="65" y="32.5629" width="4" height="1" rx="0.5" transform="rotate(-23 65 32.5629)" fill="white" fill-opacity="0.4"/>
<rect x="64.7378" y="32.4569" width="4.4" height="1.4" rx="0.7" transform="rotate(-23 64.7378 32.4569)" stroke="url(#paint9_linear_10_8159)" stroke-width="0.4"/>
</g>
<g filter="url(#filter9_b_10_8159)">
<rect x="70.8867" y="30.4307" width="4" height="1" rx="0.5" transform="rotate(-23 70.8867 30.4307)" fill="white" fill-opacity="0.4"/>
<rect x="70.6245" y="30.3247" width="4.4" height="1.4" rx="0.7" transform="rotate(-23 70.6245 30.3247)" stroke="url(#paint10_linear_10_8159)" stroke-width="0.4"/>
</g>
<g filter="url(#filter10_b_10_8159)">
<rect x="74.4141" y="33.5101" width="4" height="1" rx="0.5" transform="rotate(-52 74.4141 33.5101)" fill="white" fill-opacity="0.4"/>
<rect x="74.1333" y="33.5446" width="4.4" height="1.4" rx="0.7" transform="rotate(-52 74.1333 33.5446)" stroke="url(#paint11_linear_10_8159)" stroke-width="0.4"/>
</g>
<g filter="url(#filter11_b_10_8159)">
<rect x="71" y="38.1523" width="3" height="1" rx="0.5" transform="rotate(-52 71 38.1523)" fill="white" fill-opacity="0.4"/>
<rect x="70.7193" y="38.1868" width="3.4" height="1.4" rx="0.7" transform="rotate(-52 70.7193 38.1868)" stroke="url(#paint12_linear_10_8159)" stroke-width="0.4"/>
</g>
<defs>
<filter id="filter0_b_10_8159" x="14.0781" y="33.4443" width="10.7871" height="12.6328" filterUnits="userSpaceOnUse" color-interpolation-filters="sRGB">
<feFlood flood-opacity="0" result="BackgroundImageFix"/>
<feGaussianBlur in="BackgroundImageFix" stdDeviation="2"/>
<feComposite in2="SourceAlpha" operator="in" result="effect1_backgroundBlur_10_8159"/>
<feBlend mode="normal" in="SourceGraphic" in2="effect1_backgroundBlur_10_8159" result="shape"/>
</filter>
<filter id="filter1_b_10_8159" x="-1.30469" y="26.774" width="41.8374" height="38.2412" filterUnits="userSpaceOnUse" color-interpolation-filters="sRGB">
<feFlood flood-opacity="0" result="BackgroundImageFix"/>
<feGaussianBlur in="BackgroundImageFix" stdDeviation="2"/>
<feComposite in2="SourceAlpha" operator="in" result="effect1_backgroundBlur_10_8159"/>
<feBlend mode="normal" in="SourceGraphic" in2="effect1_backgroundBlur_10_8159" result="shape"/>
</filter>
<filter id="filter2_b_10_8159" x="3.71484" y="-1.03857" width="18.269" height="8.73157" filterUnits="userSpaceOnUse" color-interpolation-filters="sRGB">
<feFlood flood-opacity="0" result="BackgroundImageFix"/>
<feGaussianBlur in="BackgroundImageFix" stdDeviation="2"/>
<feComposite in2="SourceAlpha" operator="in" result="effect1_backgroundBlur_10_8159"/>
<feBlend mode="normal" in="SourceGraphic" in2="effect1_backgroundBlur_10_8159" result="shape"/>
</filter>
<filter id="filter3_b_10_8159" x="18.1016" y="43.8275" width="12.0178" height="11.473" filterUnits="userSpaceOnUse" color-interpolation-filters="sRGB">
<feFlood flood-opacity="0" result="BackgroundImageFix"/>
<feGaussianBlur in="BackgroundImageFix" stdDeviation="2"/>
<feComposite in2="SourceAlpha" operator="in" result="effect1_backgroundBlur_10_8159"/>
<feBlend mode="normal" in="SourceGraphic" in2="effect1_backgroundBlur_10_8159" result="shape"/>
</filter>
<filter id="filter4_b_10_8159" x="-1.26953" y="57.2806" width="41.7698" height="12.7572" filterUnits="userSpaceOnUse" color-interpolation-filters="sRGB">
<feFlood flood-opacity="0" result="BackgroundImageFix"/>
<feGaussianBlur in="BackgroundImageFix" stdDeviation="2"/>
<feComposite in2="SourceAlpha" operator="in" result="effect1_backgroundBlur_10_8159"/>
<feBlend mode="normal" in="SourceGraphic" in2="effect1_backgroundBlur_10_8159" result="shape"/>
</filter>
<filter id="filter5_b_10_8159" x="9.21484" y="41.0117" width="12.0203" height="11.4727" filterUnits="userSpaceOnUse" color-interpolation-filters="sRGB">
<feFlood flood-opacity="0" result="BackgroundImageFix"/>
<feGaussianBlur in="BackgroundImageFix" stdDeviation="2"/>
<feComposite in2="SourceAlpha" operator="in" result="effect1_backgroundBlur_10_8159"/>
<feBlend mode="normal" in="SourceGraphic" in2="effect1_backgroundBlur_10_8159" result="shape"/>
</filter>
<filter id="filter6_b_10_8159" x="-1.30469" y="4.22363" width="41.8374" height="30.8909" filterUnits="userSpaceOnUse" color-interpolation-filters="sRGB">
<feFlood flood-opacity="0" result="BackgroundImageFix"/>
<feGaussianBlur in="BackgroundImageFix" stdDeviation="2"/>
<feComposite in2="SourceAlpha" operator="in" result="effect1_backgroundBlur_10_8159"/>
<feBlend mode="normal" in="SourceGraphic" in2="effect1_backgroundBlur_10_8159" result="shape"/>
</filter>
<filter id="filter7_b_10_8159" x="3.71484" y="0.421387" width="18.269" height="11.1316" filterUnits="userSpaceOnUse" color-interpolation-filters="sRGB">
<feFlood flood-opacity="0" result="BackgroundImageFix"/>
<feGaussianBlur in="BackgroundImageFix" stdDeviation="2"/>
<feComposite in2="SourceAlpha" operator="in" result="effect1_backgroundBlur_10_8159"/>
<feBlend mode="normal" in="SourceGraphic" in2="effect1_backgroundBlur_10_8159" result="shape"/>
</filter>
<filter id="filter8_b_10_8159" x="57.7554" y="23.7554" width="18.562" height="16.9727" filterUnits="userSpaceOnUse" color-interpolation-filters="sRGB">
<feFlood flood-opacity="0" result="BackgroundImageFix"/>
<feGaussianBlur in="BackgroundImageFix" stdDeviation="3.5"/>
<feComposite in2="SourceAlpha" operator="in" result="effect1_backgroundBlur_10_8159"/>
<feBlend mode="normal" in="SourceGraphic" in2="effect1_backgroundBlur_10_8159" result="shape"/>
</filter>
<filter id="filter9_b_10_8159" x="62.6421" y="20.6232" width="20.562" height="18.9727" filterUnits="userSpaceOnUse" color-interpolation-filters="sRGB">
<feFlood flood-opacity="0" result="BackgroundImageFix"/>
<feGaussianBlur in="BackgroundImageFix" stdDeviation="4"/>
<feComposite in2="SourceAlpha" operator="in" result="effect1_backgroundBlur_10_8159"/>
<feBlend mode="normal" in="SourceGraphic" in2="effect1_backgroundBlur_10_8159" result="shape"/>
</filter>
<filter id="filter10_b_10_8159" x="66.2158" y="22.1599" width="19.6472" height="20.1641" filterUnits="userSpaceOnUse" color-interpolation-filters="sRGB">
<feFlood flood-opacity="0" result="BackgroundImageFix"/>
<feGaussianBlur in="BackgroundImageFix" stdDeviation="4"/>
<feComposite in2="SourceAlpha" operator="in" result="effect1_backgroundBlur_10_8159"/>
<feBlend mode="normal" in="SourceGraphic" in2="effect1_backgroundBlur_10_8159" result="shape"/>
</filter>
<filter id="filter11_b_10_8159" x="62.8018" y="27.5901" width="19.0315" height="19.3761" filterUnits="userSpaceOnUse" color-interpolation-filters="sRGB">
<feFlood flood-opacity="0" result="BackgroundImageFix"/>
<feGaussianBlur in="BackgroundImageFix" stdDeviation="4"/>
<feComposite in2="SourceAlpha" operator="in" result="effect1_backgroundBlur_10_8159"/>
<feBlend mode="normal" in="SourceGraphic" in2="effect1_backgroundBlur_10_8159" result="shape"/>
</filter>
<linearGradient id="paint0_linear_10_8159" x1="18.0954" y1="41.5601" x2="21.5623" y2="39.4398" gradientUnits="userSpaceOnUse">
<stop stop-color="white"/>
<stop offset="1" stop-color="white" stop-opacity="0"/>
</linearGradient>
<linearGradient id="paint1_linear_10_8159" x1="2.90472" y1="57.6402" x2="28.1171" y2="28.9615" gradientUnits="userSpaceOnUse">
<stop stop-color="white"/>
<stop offset="1" stop-color="white" stop-opacity="0"/>
</linearGradient>
<linearGradient id="paint2_linear_10_8159" x1="7.7784" y1="3.6113" x2="7.86415" y2="2.38744" gradientUnits="userSpaceOnUse">
<stop stop-color="white"/>
<stop offset="1" stop-color="white" stop-opacity="0"/>
</linearGradient>
<linearGradient id="paint3_linear_10_8159" x1="22.1264" y1="50.9129" x2="25.008" y2="47.5239" gradientUnits="userSpaceOnUse">
<stop stop-color="white"/>
<stop offset="1" stop-color="white" stop-opacity="0"/>
</linearGradient>
<linearGradient id="paint4_linear_10_8159" x1="2.93946" y1="65.5069" x2="4.02691" y2="57.6594" gradientUnits="userSpaceOnUse">
<stop stop-color="white"/>
<stop offset="1" stop-color="white" stop-opacity="0"/>
</linearGradient>
<linearGradient id="paint5_linear_10_8159" x1="13.2397" y1="48.0968" x2="16.1206" y2="44.7062" gradientUnits="userSpaceOnUse">
<stop stop-color="white"/>
<stop offset="1" stop-color="white" stop-opacity="0"/>
</linearGradient>
<linearGradient id="paint6_linear_10_8159" x1="2.90472" y1="28.5598" x2="20.655" y2="1.88586" gradientUnits="userSpaceOnUse">
<stop stop-color="white"/>
<stop offset="1" stop-color="white" stop-opacity="0"/>
</linearGradient>
<linearGradient id="paint7_linear_10_8159" x1="7.7784" y1="7.20352" x2="9.22743" y2="2.37305" gradientUnits="userSpaceOnUse">
<stop stop-color="white"/>
<stop offset="1" stop-color="white" stop-opacity="0"/>
</linearGradient>
<linearGradient id="paint8_linear_10_8159" x1="68.0186" y1="43.2527" x2="68.5163" y2="41.7346" gradientUnits="userSpaceOnUse">
<stop stop-color="white"/>
<stop offset="1" stop-color="white" stop-opacity="0"/>
</linearGradient>
<linearGradient id="paint9_linear_10_8159" x1="65.0248" y1="33.4513" x2="65.4146" y2="31.8659" gradientUnits="userSpaceOnUse">
<stop stop-color="white"/>
<stop offset="1" stop-color="white" stop-opacity="0"/>
</linearGradient>
<linearGradient id="paint10_linear_10_8159" x1="70.9115" y1="31.3191" x2="71.3014" y2="29.7337" gradientUnits="userSpaceOnUse">
<stop stop-color="white"/>
<stop offset="1" stop-color="white" stop-opacity="0"/>
</linearGradient>
<linearGradient id="paint11_linear_10_8159" x1="74.4388" y1="34.3985" x2="74.8287" y2="32.8131" gradientUnits="userSpaceOnUse">
<stop stop-color="white"/>
<stop offset="1" stop-color="white" stop-opacity="0"/>
</linearGradient>
<linearGradient id="paint12_linear_10_8159" x1="71.0186" y1="39.0407" x2="71.5163" y2="37.5227" gradientUnits="userSpaceOnUse">
<stop stop-color="white"/>
<stop offset="1" stop-color="white" stop-opacity="0"/>
</linearGradient>
</defs>
</svg>
