<svg width="105" height="93" viewBox="0 0 105 93" fill="none" xmlns="http://www.w3.org/2000/svg">
<path d="M34.2341 42.917C35.1412 43.7029 36.0666 44.6328 37.0614 45.7601C38.0969 46.9319 39.0787 48.1712 40.0289 49.3692C40.6751 50.1832 41.32 50.9979 41.9846 51.7955C43.7266 53.8868 45.8802 56.1682 48.6473 57.2384C50.2687 57.8643 52.5638 58.0944 54.1459 56.8629C54.5597 56.5397 54.8714 56.1388 55.1364 55.723C50.9984 50.1345 46.0152 47.7984 45.9497 47.7681C45.6128 47.6148 45.4634 47.2169 45.6168 46.8794C45.7701 46.5426 46.1686 46.3938 46.5055 46.5465C46.7797 46.6712 51.5985 48.9278 55.7999 54.3525C55.8601 54.1772 55.9234 53.9985 55.9665 53.8396C56.3938 52.2647 56.3257 50.5594 55.7765 49.0389C55.1329 47.2536 53.7684 45.5517 51.831 44.1171C49.03 42.0408 45.5001 40.7707 41.6241 40.4423C39.7393 40.2844 35.2958 40.0818 31.918 41.2792C32.1251 41.4215 32.34 41.5624 32.5589 41.7065C33.1226 42.0768 33.7059 42.4596 34.2341 42.917Z" fill="white"/>
<path d="M59.6368 47.3133C59.7353 46.7411 59.8424 46.1898 59.9597 45.6663C61.5418 38.6065 66.1805 30.6816 71.7788 25.4772C72.0502 25.2255 72.4748 25.2393 72.7278 25.512C72.9808 25.7833 72.9651 26.208 72.6937 26.4603C67.2789 31.4923 62.7962 39.1465 61.2705 45.9599C61.1389 46.547 61.0212 47.1747 60.9138 47.8291C61.2085 47.8926 61.5113 47.9348 61.8406 47.9358C62.7792 47.9351 63.7779 47.7051 65.0624 47.2024C71.6438 44.6301 77.1346 38.845 79.7508 31.7283C82.0447 25.4857 82.2125 18.2884 80.2489 11.3203C77.339 15.1465 73.3308 17.9508 69.4443 20.6707C66.25 22.9061 62.9469 25.217 60.3097 28.0647C59.4826 28.9567 58.7485 29.8853 58.1272 30.8258C55.2763 35.1434 54.3876 41.7792 58.2046 46.1087C58.652 46.6163 59.1375 47.0134 59.6368 47.3133Z" fill="white"/>
<path d="M82.9713 51.9454C80.376 51.4545 77.7138 50.9512 75.0897 50.9512C74.2915 50.9512 73.4972 50.9977 72.7081 51.1058C70.1901 51.4493 67.9972 52.3943 66.3653 53.8381C65.1122 54.9484 64.1632 56.3922 63.6231 58.0123C63.2842 59.0276 63.1367 59.8647 63.1682 60.5548C68.9645 58.0261 75.4509 57.1545 82.5375 58.0274C82.9058 58.0726 83.168 58.4068 83.1221 58.7751C83.0775 59.1434 82.7407 59.4134 82.3749 59.359C75.4693 58.5124 69.1639 59.3702 63.5488 61.8538C63.5984 61.932 63.643 62.0131 63.7031 62.0854C64.2536 62.7454 65.0991 63.1799 65.8541 63.5175C69.1389 64.9862 72.9938 65.6887 77.0008 65.5472C81.1559 65.401 84.8916 64.3518 87.8002 62.5127C91.4926 60.1802 94.1312 56.463 96.2245 52.9121C91.6905 53.5937 87.0845 52.7233 82.9713 51.9454Z" fill="white"/>
<path d="M80.715 79.6367C78.1931 79.6367 75.7786 80.5706 73.9174 82.2654C73.751 82.4161 73.5229 82.4771 73.3027 82.42C73.0851 82.3656 72.9081 82.2057 72.8334 81.9941C70.7034 76.0111 65.0016 71.991 58.647 71.991C52.0224 71.991 46.2459 76.2366 44.2732 82.555C44.209 82.7582 44.053 82.9194 43.8511 82.9896C43.6519 83.0584 43.4291 83.0295 43.2521 82.9083C41.708 81.848 39.8965 81.2876 38.013 81.2876C33.234 81.2876 29.2269 84.9931 28.7773 89.6797H90.817C90.7843 84.1365 86.2648 79.6367 80.715 79.6367Z" fill="white"/>
<path d="M61.8741 61.1249C61.2296 61.4397 60.6027 61.796 59.9766 62.154C60.0021 58.0472 60.1738 53.1882 60.7149 49.1561L59.4156 48.7334C58.976 51.877 58.764 55.4974 58.676 58.8979C58.0688 57.7089 57.4127 56.6169 56.7232 55.6193L55.9609 56.895C56.9557 58.396 57.8729 60.1024 58.6258 62.0299C58.5988 66.1959 58.7247 69.5959 58.7698 70.6533L60.1155 70.7219C60.0852 70.002 59.9805 67.2502 59.9732 63.6878C60.7374 63.2263 61.5139 62.7925 62.3079 62.3996L61.8741 61.1249Z" fill="white"/>
<g clip-path="url(#clip0_10_8110)" filter="url(#filter0_b_10_8110)">
<g filter="url(#filter1_d_10_8110)">
<path d="M52.487 34C52.487 44.2093 44.2106 52.4856 34.0013 52.4856C23.792 52.4856 15.5156 44.2093 15.5156 34C15.5156 23.7906 23.792 15.5143 34.0013 15.5143C44.2106 15.5143 52.487 23.7906 52.487 34Z" fill="white" fill-opacity="0.4" stroke="url(#paint0_linear_10_8110)" stroke-width="0.5"/>
<path d="M33.082 8.60944V1.16738C33.082 0.660771 33.4928 0.25 33.9994 0.25C34.506 0.25 34.9168 0.660771 34.9168 1.16738V8.60944C34.9168 9.11605 34.506 9.52682 33.9994 9.52682C33.4928 9.52682 33.082 9.11605 33.082 8.60944Z" fill="white" fill-opacity="0.4" stroke="url(#paint1_linear_10_8110)" stroke-width="0.5"/>
<path d="M33.082 59.3905C33.082 58.8839 33.4928 58.4731 33.9994 58.4731C34.506 58.4731 34.9168 58.8839 34.9168 59.3905V66.8326C34.9168 67.3392 34.506 67.75 33.9994 67.75C33.4928 67.75 33.082 67.3392 33.082 66.8326V59.3905Z" fill="white" fill-opacity="0.4" stroke="url(#paint2_linear_10_8110)" stroke-width="0.5"/>
<path d="M59.39 33.0826H66.8321C67.3387 33.0826 67.7495 33.4934 67.7495 34C67.7495 34.5066 67.3387 34.9174 66.8321 34.9174H59.39C58.8834 34.9174 58.4727 34.5066 58.4727 34C58.4727 33.4934 58.8834 33.0826 59.39 33.0826Z" fill="white" fill-opacity="0.4" stroke="url(#paint3_linear_10_8110)" stroke-width="0.5"/>
<path d="M1.16738 33.0826H8.60944C9.11605 33.0826 9.52682 33.4934 9.52682 34C9.52682 34.5066 9.11605 34.9174 8.60944 34.9174H1.16738C0.660771 34.9174 0.25 34.5066 0.25 34C0.25 33.4934 0.660771 33.0826 1.16738 33.0826Z" fill="white" fill-opacity="0.4" stroke="url(#paint4_linear_10_8110)" stroke-width="0.5"/>
<path d="M52.8019 16.8495L57.9782 11.6738L52.8019 16.8495ZM52.8019 16.8495C52.5836 17.069 52.2861 17.1921 51.9765 17.1915H51.976C51.504 17.1915 51.0782 16.9071 50.8975 16.471L52.8019 16.8495ZM51.977 16.9415H51.9765H51.976C51.6051 16.9415 51.2705 16.718 51.1285 16.3753C50.9864 16.0319 51.065 15.6375 51.3272 15.3757L51.3274 15.3755L56.5036 10.1993L56.5038 10.1992C56.8621 9.84035 57.443 9.84035 57.8013 10.1992L57.8015 10.1994C58.1603 10.5577 58.1603 11.1386 57.8015 11.4969L57.8014 11.497L52.6252 16.6727L52.6247 16.6732C52.4535 16.8453 52.22 16.942 51.977 16.9415Z" fill="white" fill-opacity="0.4" stroke="url(#paint5_linear_10_8110)" stroke-width="0.5"/>
<path d="M10.0221 56.3262C9.56554 56.7822 9.56554 57.5215 10.0221 57.9775C10.4781 58.4341 11.2174 58.4341 11.6734 57.9775L16.8497 52.8012C17.3057 52.3458 17.3057 51.6065 16.8497 51.1505C16.3937 50.6945 15.655 50.6945 15.199 51.1505L10.0221 56.3262ZM10.0221 56.3262L15.1984 51.1505L10.0221 56.3262ZM10.1989 56.503L10.1988 56.5031C9.83999 56.8614 9.83999 57.4423 10.1988 57.8006L10.199 57.8008C10.5574 58.1596 11.1382 58.1596 11.4966 57.8008L11.4967 57.8007L16.6729 52.6245L16.673 52.6243C17.0312 52.2666 17.0314 51.6857 16.6729 51.3273M10.1989 56.503L16.6729 51.3273M10.1989 56.503L15.3019 51.4005H15.3025M10.1989 56.503L15.3025 51.4005M16.6729 51.3273C16.3146 50.9689 15.7341 50.9689 15.3757 51.3273M16.6729 51.3273L15.3757 51.3273M15.3025 51.4005L15.3757 51.3273M15.3025 51.4005L15.3757 51.3273" fill="white" fill-opacity="0.4" stroke="url(#paint6_linear_10_8110)" stroke-width="0.5"/>
<path d="M52.6245 51.3271L52.6246 51.3273L57.8009 56.503L57.801 56.5031C58.1598 56.8614 58.1598 57.4423 57.801 57.8006L57.8007 57.8008C57.4424 58.1596 56.8615 58.1596 56.5032 57.8008L56.5031 57.8007L51.3274 52.6245L51.3273 52.6243C50.9691 52.2666 50.9689 51.6857 51.3274 51.3273C51.6858 50.9688 52.2667 50.969 52.6245 51.3271ZM57.9776 57.9775C58.4342 57.5215 58.4342 56.7822 57.9776 56.3262L56.3263 57.9775C56.7823 58.4341 57.5216 58.4341 57.9776 57.9775Z" fill="white" fill-opacity="0.4" stroke="url(#paint7_linear_10_8110)" stroke-width="0.5"/>
<path d="M10.1984 10.1994L10.1986 10.1992C10.5569 9.84035 11.1378 9.84035 11.4961 10.1992L11.4962 10.1993L16.6719 15.3755L16.672 15.3756C17.0302 15.7334 17.0304 16.3143 16.6719 16.6727C16.3135 17.0312 15.7326 17.031 15.3748 16.6728L15.3747 16.6727L10.1985 11.4965C9.84003 11.138 9.84019 10.5571 10.1984 10.1994Z" fill="white" fill-opacity="0.4" stroke="url(#paint8_linear_10_8110)" stroke-width="0.5"/>
</g>
</g>
<defs>
<filter id="filter0_b_10_8110" x="-4" y="-4" width="76" height="76" filterUnits="userSpaceOnUse" color-interpolation-filters="sRGB">
<feFlood flood-opacity="0" result="BackgroundImageFix"/>
<feGaussianBlur in="BackgroundImageFix" stdDeviation="2"/>
<feComposite in2="SourceAlpha" operator="in" result="effect1_backgroundBlur_10_8110"/>
<feBlend mode="normal" in="SourceGraphic" in2="effect1_backgroundBlur_10_8110" result="shape"/>
</filter>
<filter id="filter1_d_10_8110" x="-12" y="-5" width="91.9995" height="92" filterUnits="userSpaceOnUse" color-interpolation-filters="sRGB">
<feFlood flood-opacity="0" result="BackgroundImageFix"/>
<feColorMatrix in="SourceAlpha" type="matrix" values="0 0 0 0 0 0 0 0 0 0 0 0 0 0 0 0 0 0 127 0" result="hardAlpha"/>
<feOffset dy="7"/>
<feGaussianBlur stdDeviation="6"/>
<feComposite in2="hardAlpha" operator="out"/>
<feColorMatrix type="matrix" values="0 0 0 0 0.368627 0 0 0 0 0 0 0 0 0 0 0 0 0 0.46 0"/>
<feBlend mode="normal" in2="BackgroundImageFix" result="effect1_dropShadow_10_8110"/>
<feBlend mode="normal" in="SourceGraphic" in2="effect1_dropShadow_10_8110" result="shape"/>
</filter>
<linearGradient id="paint0_linear_10_8110" x1="15.4975" y1="48.5537" x2="46.9931" y2="16.5354" gradientUnits="userSpaceOnUse">
<stop stop-color="white"/>
<stop offset="1" stop-color="white" stop-opacity="0"/>
</linearGradient>
<linearGradient id="paint1_linear_10_8110" x1="32.8465" y1="8.68569" x2="36.6149" y2="7.77084" gradientUnits="userSpaceOnUse">
<stop stop-color="white"/>
<stop offset="1" stop-color="white" stop-opacity="0"/>
</linearGradient>
<linearGradient id="paint2_linear_10_8110" x1="32.8465" y1="66.9088" x2="36.6149" y2="65.994" gradientUnits="userSpaceOnUse">
<stop stop-color="white"/>
<stop offset="1" stop-color="white" stop-opacity="0"/>
</linearGradient>
<linearGradient id="paint3_linear_10_8110" x1="58.2832" y1="34.9068" x2="59.157" y2="31.1867" gradientUnits="userSpaceOnUse">
<stop stop-color="white"/>
<stop offset="1" stop-color="white" stop-opacity="0"/>
</linearGradient>
<linearGradient id="paint4_linear_10_8110" x1="0.0605057" y1="34.9068" x2="0.934385" y2="31.1867" gradientUnits="userSpaceOnUse">
<stop stop-color="white"/>
<stop offset="1" stop-color="white" stop-opacity="0"/>
</linearGradient>
<linearGradient id="paint5_linear_10_8110" x1="50.8551" y1="16.3532" x2="57.1686" y2="9.93438" gradientUnits="userSpaceOnUse">
<stop stop-color="white"/>
<stop offset="1" stop-color="white" stop-opacity="0"/>
</linearGradient>
<linearGradient id="paint6_linear_10_8110" x1="9.72618" y1="57.4816" x2="16.0397" y2="51.0628" gradientUnits="userSpaceOnUse">
<stop stop-color="white"/>
<stop offset="1" stop-color="white" stop-opacity="0"/>
</linearGradient>
<linearGradient id="paint7_linear_10_8110" x1="50.8551" y1="57.4816" x2="57.1686" y2="51.0633" gradientUnits="userSpaceOnUse">
<stop stop-color="white"/>
<stop offset="1" stop-color="white" stop-opacity="0"/>
</linearGradient>
<linearGradient id="paint8_linear_10_8110" x1="9.72617" y1="16.3532" x2="16.0397" y2="9.93522" gradientUnits="userSpaceOnUse">
<stop stop-color="white"/>
<stop offset="1" stop-color="white" stop-opacity="0"/>
</linearGradient>
<clipPath id="clip0_10_8110">
<rect width="68" height="68" fill="white"/>
</clipPath>
</defs>
</svg>
