<svg width="137" height="85" viewBox="0 0 137 85" fill="none" xmlns="http://www.w3.org/2000/svg">
<path d="M62.7189 71.6369C60.197 71.6369 57.7826 72.5709 55.9213 74.2656C55.7549 74.4163 55.5268 74.4773 55.3066 74.4203C55.089 74.3659 54.9121 74.206 54.8373 73.9944C52.7073 68.0113 47.0055 63.9912 40.6509 63.9912C34.0263 63.9912 28.2498 68.2368 26.2771 74.5553C26.2129 74.7585 26.0569 74.9197 25.855 74.9898C25.6558 75.0586 25.433 75.0298 25.256 74.9085C23.7119 73.8482 21.9004 73.2879 20.0169 73.2879C15.2379 73.2879 11.2308 76.9933 10.7812 81.68H72.821C72.7882 76.1367 68.2687 71.6369 62.7189 71.6369Z" fill="white"/>
<path d="M71.0057 75.1868C72.7536 75.1868 74.4271 75.8204 75.7171 76.9701C75.8325 77.0724 75.9906 77.1137 76.1432 77.075C76.294 77.0381 76.4166 76.9297 76.4684 76.7861C77.9447 72.7272 81.8967 70 86.3011 70C90.8927 70 94.8964 72.8802 96.2637 77.1666C96.3082 77.3045 96.4163 77.4138 96.5562 77.4614C96.6943 77.5081 96.8487 77.4885 96.9714 77.4063C98.0416 76.687 99.2971 76.3068 100.603 76.3068C103.915 76.3068 106.692 78.8206 107.004 82H64.0039C64.0266 78.2395 67.1591 75.1868 71.0057 75.1868Z" fill="white"/>
<path d="M16.238 34.9169C17.1451 35.7027 18.0705 36.6327 19.0653 37.76C20.1009 38.9317 21.0826 40.1711 22.0328 41.3691C22.6791 42.1831 23.324 42.9977 23.9885 43.7954C25.7305 45.8867 27.8841 48.1681 30.6512 49.2383C32.2726 49.8642 34.5677 50.0943 36.1498 48.8628C36.5636 48.5396 36.8753 48.1387 37.1403 47.7229C33.0023 42.1344 28.0191 39.7982 27.9536 39.768C27.6167 39.6146 27.4673 39.2168 27.6207 38.8793C27.774 38.5424 28.1725 38.3937 28.5094 38.5464C28.7836 38.6711 33.6024 40.9277 37.8038 46.3524C37.864 46.1771 37.9273 45.9983 37.9704 45.8395C38.3977 44.2646 38.3296 42.5593 37.7804 41.0388C37.1368 39.2535 35.7723 37.5516 33.8349 36.1169C31.0339 34.0407 27.504 32.7705 23.6281 32.4422C21.7432 32.2842 17.2997 32.0817 13.9219 33.2791C14.129 33.4213 14.3439 33.5622 14.5628 33.7064C15.1265 34.0767 15.7098 34.4595 16.238 34.9169Z" fill="white"/>
<path d="M41.6407 39.3133C41.7392 38.7411 41.8463 38.1898 41.9636 37.6663C43.5457 30.6065 48.1844 22.6816 53.7827 17.4772C54.0541 17.2255 54.4787 17.2393 54.7317 17.512C54.9847 17.7833 54.969 18.208 54.6976 18.4603C49.2829 23.4923 44.8001 31.1465 43.2744 37.9599C43.1428 38.547 43.0251 39.1747 42.9177 39.8291C43.2124 39.8926 43.5152 39.9348 43.8445 39.9358C44.7831 39.9351 45.7818 39.7051 47.0663 39.2024C53.6477 36.6301 59.1385 30.845 61.7548 23.7283C64.0486 17.4857 64.2164 10.2884 62.2528 3.32031C59.3429 7.14645 55.3347 9.95085 51.4482 12.6707C48.2539 14.9061 44.9508 17.217 42.3136 20.0647C41.4865 20.9567 40.7524 21.8853 40.1311 22.8258C37.2802 27.1434 36.3915 33.7792 40.2085 38.1087C40.6559 38.6163 41.1414 39.0134 41.6407 39.3133Z" fill="white"/>
<path d="M64.9753 43.9454C62.3799 43.4545 59.7178 42.9512 57.0936 42.9512C56.2954 42.9512 55.5011 42.9977 54.712 43.1058C52.194 43.4493 50.0011 44.3943 48.3692 45.8381C47.1161 46.9484 46.1671 48.3922 45.627 50.0123C45.2881 51.0276 45.1406 51.8647 45.1721 52.5548C50.9684 50.0261 57.4548 49.1545 64.5414 50.0274C64.9097 50.0726 65.1719 50.4068 65.126 50.7751C65.0814 51.1434 64.7446 51.4134 64.3789 51.359C57.4732 50.5124 51.1678 51.3702 45.5527 53.8538C45.6023 53.932 45.6469 54.0131 45.707 54.0854C46.2575 54.7454 47.103 55.1799 47.858 55.5175C51.1428 56.9862 54.9977 57.6887 59.0047 57.5472C63.1598 57.401 66.8955 56.3518 69.8041 54.5127C73.4965 52.1802 76.1351 48.463 78.2284 44.9121C73.6944 45.5937 69.0884 44.7233 64.9753 43.9454Z" fill="white"/>
<path d="M43.878 53.1249C43.2335 53.4397 42.6066 53.796 41.9805 54.154C42.006 50.0472 42.1777 45.1882 42.7188 41.1561L41.4195 40.7334C40.9799 43.877 40.7679 47.4974 40.6799 50.8979C40.0727 49.7089 39.4166 48.6169 38.7271 47.6193L37.9648 48.895C38.9596 50.396 39.8768 52.1024 40.6297 54.0299C40.6027 58.1959 40.7286 61.5959 40.7737 62.6533L42.1194 62.7219C42.0891 62.002 41.9844 59.2502 41.9771 55.6878C42.7413 55.2263 43.5178 54.7925 44.3118 54.3996L43.878 53.1249Z" fill="white"/>
<path d="M70.3365 55.1798C70.8584 55.6319 71.3909 56.167 71.9633 56.8156C72.5591 57.4898 73.124 58.2028 73.6707 58.8922C74.0425 59.3605 74.4136 59.8292 74.7959 60.2881C75.7982 61.4914 77.0374 62.8041 78.6294 63.4199C79.5623 63.78 80.8829 63.9123 81.7932 63.2038C82.0313 63.0178 82.2106 62.7872 82.3631 62.5479C79.9822 59.3325 77.115 57.9883 77.0773 57.9709C76.8835 57.8827 76.7975 57.6538 76.8858 57.4596C76.974 57.2658 77.2033 57.1802 77.3971 57.268C77.5549 57.3398 80.3275 58.6382 82.7448 61.7594C82.7795 61.6585 82.8159 61.5557 82.8407 61.4643C83.0866 60.5581 83.0474 59.5769 82.7314 58.7021C82.3611 57.6749 81.576 56.6957 80.4613 55.8702C78.8496 54.6756 76.8186 53.9448 74.5885 53.7559C73.504 53.665 70.9474 53.5485 69.0039 54.2374C69.1231 54.3192 69.2468 54.4003 69.3727 54.4833C69.697 54.6963 70.0326 54.9166 70.3365 55.1798Z" fill="white"/>
<path d="M84.9544 57.7092C85.011 57.3801 85.0726 57.0628 85.1401 56.7616C86.0504 52.6996 88.7194 48.1399 91.9405 45.1454C92.0966 45.0006 92.341 45.0086 92.4865 45.1654C92.6321 45.3216 92.623 45.5659 92.4669 45.7111C89.3514 48.6064 86.7722 53.0103 85.8943 56.9306C85.8186 57.2683 85.7509 57.6295 85.6891 58.0061C85.8587 58.0426 86.0329 58.0669 86.2224 58.0674C86.7624 58.0671 87.337 57.9347 88.0761 57.6455C91.8628 56.1654 95.022 52.8369 96.5274 48.7421C97.8472 45.1504 97.9437 41.0092 96.8139 37C95.1397 39.2014 92.8334 40.815 90.5973 42.3799C88.7594 43.6661 86.8589 44.9957 85.3415 46.6342C84.8656 47.1474 84.4433 47.6817 84.0858 48.2229C82.4454 50.7071 81.9341 54.5251 84.1303 57.0162C84.3877 57.3083 84.6671 57.5367 84.9544 57.7092Z" fill="white"/>
<path d="M98.377 60.3748C96.8837 60.0923 95.352 59.8027 93.8421 59.8027C93.3829 59.8027 92.9258 59.8295 92.4718 59.8917C91.023 60.0893 89.7613 60.6331 88.8223 61.4638C88.1014 62.1026 87.5553 62.9333 87.2446 63.8655C87.0496 64.4496 86.9647 64.9313 86.9829 65.3284C90.3179 63.8735 94.0499 63.3719 98.1273 63.8742C98.3393 63.9002 98.4901 64.0925 98.4637 64.3044C98.4381 64.5163 98.2442 64.6717 98.0338 64.6404C94.0605 64.1532 90.4326 64.6468 87.2018 66.0758C87.2304 66.1208 87.256 66.1674 87.2906 66.2091C87.6074 66.5888 88.0938 66.8388 88.5282 67.033C90.4182 67.878 92.6362 68.2823 94.9417 68.2008C97.3324 68.1167 99.4818 67.513 101.155 66.4549C103.28 65.1129 104.798 62.9741 106.002 60.931C103.394 61.3232 100.744 60.8224 98.377 60.3748Z" fill="white"/>
<path d="M86.2382 65.656C85.8674 65.8372 85.5067 66.0422 85.1464 66.2482C85.1611 63.8853 85.2599 61.0895 85.5712 58.7696L84.8236 58.5264C84.5707 60.3351 84.4487 62.4182 84.3981 64.3747C84.0488 63.6906 83.6712 63.0623 83.2745 62.4883L82.8359 63.2223C83.4083 64.0859 83.936 65.0677 84.3692 66.1768C84.3537 68.5738 84.4261 70.53 84.452 71.1384L85.2264 71.1779C85.2089 70.7637 85.1487 69.1804 85.1445 67.1307C85.5842 66.8651 86.031 66.6155 86.4878 66.3895L86.2382 65.656Z" fill="white"/>
<g filter="url(#filter0_b_10_8192)">
<path d="M13.8584 20.5354L13.8582 20.5352C13.3799 20.0916 12.6305 20.1151 12.1835 20.5964C11.7367 21.0756 11.7647 21.8255 12.2436 22.2708L12.2436 22.2709C19.7509 29.2475 25.9674 39.8647 28.0808 49.3025L28.0808 49.3025C28.2468 50.0431 28.3971 50.8316 28.5352 51.6536C28.2123 51.7125 27.8819 51.7489 27.53 51.75C26.2656 51.749 24.9071 51.4395 23.1342 50.7457L23.1341 50.7457C14.0392 47.191 6.44043 39.19 2.81896 29.3391M13.8584 20.5354L1.80652 1.30162C-0.839233 10.913 -0.577614 20.8204 2.5843 29.4253L2.81894 29.339C2.81894 29.3391 2.81896 29.3391 2.81896 29.3391M13.8584 20.5354C21.6908 27.8167 28.1791 38.8988 30.3944 48.7842C30.5335 49.4048 30.6622 50.0527 30.7819 50.7219M13.8584 20.5354L30.7819 50.7219M2.81896 29.3391C-0.303532 20.8415 -0.58231 11.0577 1.99826 1.5483C6.04531 6.70459 11.5079 10.5275 16.7742 14.213L16.7964 14.2285L16.9398 14.0237M2.81896 29.3391L16.9398 14.0237M16.9398 14.0237L16.7964 14.2285C21.2499 17.3451 25.8276 20.549 29.4796 24.4923L29.4797 24.4924C30.6232 25.7256 31.6369 27.0084 32.4942 28.3061C36.4292 34.2655 37.6219 43.3752 32.4076 49.2897L32.4076 49.2898C31.8946 49.8717 31.3461 50.3451 30.7819 50.7219M16.9398 14.0237L30.7819 50.7219" fill="white" fill-opacity="0.42" stroke="url(#paint0_linear_10_8192)" stroke-width="0.5"/>
</g>
<defs>
<filter id="filter0_b_10_8192" x="-4" y="-3" width="44.1445" height="59" filterUnits="userSpaceOnUse" color-interpolation-filters="sRGB">
<feFlood flood-opacity="0" result="BackgroundImageFix"/>
<feGaussianBlur in="BackgroundImageFix" stdDeviation="2"/>
<feComposite in2="SourceAlpha" operator="in" result="effect1_backgroundBlur_10_8192"/>
<feBlend mode="normal" in="SourceGraphic" in2="effect1_backgroundBlur_10_8192" result="shape"/>
</filter>
<linearGradient id="paint0_linear_10_8192" x1="35.9208" y1="46.3082" x2="-4.74657" y2="17.0083" gradientUnits="userSpaceOnUse">
<stop stop-color="white"/>
<stop offset="1" stop-color="white" stop-opacity="0"/>
</linearGradient>
</defs>
</svg>
