<svg width="115" height="93" viewBox="0 0 115 93" fill="none" xmlns="http://www.w3.org/2000/svg">
<path d="M44.2341 42.917C45.1412 43.7029 46.0666 44.6328 47.0614 45.7601C48.0969 46.9319 49.0787 48.1712 50.0289 49.3692C50.6751 50.1832 51.32 50.9979 51.9846 51.7955C53.7266 53.8868 55.8802 56.1682 58.6473 57.2384C60.2687 57.8643 62.5638 58.0944 64.1459 56.8629C64.5597 56.5397 64.8714 56.1388 65.1364 55.723C60.9984 50.1345 56.0152 47.7984 55.9497 47.7681C55.6128 47.6148 55.4634 47.2169 55.6168 46.8794C55.7701 46.5426 56.1686 46.3938 56.5055 46.5465C56.7797 46.6712 61.5985 48.9278 65.7999 54.3525C65.8601 54.1772 65.9234 53.9985 65.9665 53.8396C66.3938 52.2647 66.3257 50.5594 65.7765 49.0389C65.1329 47.2536 63.7684 45.5517 61.831 44.1171C59.03 42.0408 55.5001 40.7707 51.6241 40.4423C49.7393 40.2844 45.2958 40.0818 41.918 41.2792C42.1251 41.4215 42.34 41.5624 42.5589 41.7065C43.1226 42.0768 43.7059 42.4596 44.2341 42.917Z" fill="white"/>
<path d="M69.6368 47.3133C69.7353 46.7411 69.8424 46.1898 69.9597 45.6663C71.5418 38.6065 76.1805 30.6816 81.7788 25.4772C82.0502 25.2255 82.4748 25.2393 82.7278 25.512C82.9808 25.7833 82.9651 26.208 82.6937 26.4603C77.2789 31.4923 72.7962 39.1465 71.2705 45.9599C71.1389 46.547 71.0212 47.1747 70.9138 47.8291C71.2085 47.8926 71.5113 47.9348 71.8406 47.9358C72.7792 47.9351 73.7779 47.7051 75.0624 47.2024C81.6438 44.6301 87.1346 38.845 89.7508 31.7283C92.0447 25.4857 92.2125 18.2884 90.2489 11.3203C87.339 15.1465 83.3308 17.9508 79.4443 20.6707C76.25 22.9061 72.9469 25.217 70.3097 28.0647C69.4826 28.9567 68.7485 29.8853 68.1272 30.8258C65.2763 35.1434 64.3876 41.7792 68.2046 46.1087C68.652 46.6163 69.1375 47.0134 69.6368 47.3133Z" fill="white"/>
<path d="M92.9713 51.9454C90.376 51.4545 87.7138 50.9512 85.0897 50.9512C84.2915 50.9512 83.4972 50.9977 82.7081 51.1058C80.1901 51.4493 77.9972 52.3943 76.3653 53.8381C75.1122 54.9484 74.1632 56.3922 73.6231 58.0123C73.2842 59.0276 73.1367 59.8647 73.1682 60.5548C78.9645 58.0261 85.4509 57.1545 92.5375 58.0274C92.9058 58.0726 93.168 58.4068 93.1221 58.7751C93.0775 59.1434 92.7407 59.4134 92.3749 59.359C85.4693 58.5124 79.1639 59.3702 73.5488 61.8538C73.5984 61.932 73.643 62.0131 73.7031 62.0854C74.2536 62.7454 75.0991 63.1799 75.8541 63.5175C79.1389 64.9862 82.9938 65.6887 87.0008 65.5472C91.1559 65.401 94.8916 64.3518 97.8002 62.5127C101.493 60.1802 104.131 56.463 106.224 52.9121C101.691 53.5937 97.0845 52.7233 92.9713 51.9454Z" fill="white"/>
<path d="M90.715 79.6367C88.1931 79.6367 85.7786 80.5706 83.9174 82.2654C83.751 82.4161 83.5229 82.4771 83.3027 82.42C83.0851 82.3656 82.9081 82.2057 82.8334 81.9941C80.7034 76.0111 75.0016 71.991 68.647 71.991C62.0224 71.991 56.2459 76.2366 54.2732 82.555C54.209 82.7582 54.053 82.9194 53.8511 82.9896C53.6519 83.0584 53.4291 83.0295 53.2521 82.9083C51.708 81.848 49.8965 81.2876 48.013 81.2876C43.234 81.2876 39.2269 84.9931 38.7773 89.6797H100.817C100.784 84.1365 96.2648 79.6367 90.715 79.6367Z" fill="white"/>
<path d="M71.8741 61.1249C71.2296 61.4397 70.6027 61.796 69.9766 62.154C70.0021 58.0472 70.1738 53.1882 70.7149 49.1561L69.4156 48.7334C68.976 51.877 68.764 55.4974 68.676 58.8979C68.0688 57.7089 67.4127 56.6169 66.7232 55.6193L65.9609 56.895C66.9557 58.396 67.8729 60.1024 68.6258 62.0299C68.5988 66.1959 68.7247 69.5959 68.7698 70.6533L70.1155 70.7219C70.0852 70.002 69.9805 67.2502 69.9732 63.6878C70.7374 63.2263 71.5139 62.7925 72.3079 62.3996L71.8741 61.1249Z" fill="white"/>
<g clip-path="url(#clip0_10_8138)" filter="url(#filter0_b_10_8138)">
<g filter="url(#filter1_d_10_8138)">
<path d="M41.1281 18.4178L41.0868 18.7699L41.4323 18.6906C41.9046 18.5822 42.403 18.4552 42.9083 18.3264L42.9147 18.3248C45.3304 17.7092 48.3112 16.9523 51.4234 17.3791C54.5187 17.8036 57.7667 19.4037 60.7026 23.5584C63.4944 27.5096 64.3534 32.8784 63.1455 39.1095C62.4321 42.7882 61.002 46.5382 59.2173 49.7125C57.4298 52.8916 55.3002 55.4691 53.2014 56.8279C50.8456 58.353 48.6673 58.8453 46.7523 58.8453C44.4799 58.8453 42.5658 58.1532 41.1351 57.6347L41.0499 57.8697L41.1351 57.6347L41.1294 57.6326C40.8122 57.5177 40.4511 57.3869 40.1308 57.2846C39.9696 57.2332 39.8154 57.1879 39.68 57.1553C39.5492 57.1238 39.4188 57.0996 39.312 57.0996C39.2052 57.0996 39.0747 57.1237 38.9439 57.1553C38.8085 57.1879 38.6543 57.2332 38.4931 57.2846C38.1713 57.3873 37.8083 57.5189 37.4899 57.6343L37.4888 57.6347C34.8597 58.5875 30.5486 60.1468 25.4225 56.8279L25.2867 57.0378L25.4225 56.8279C23.3237 55.4692 21.194 52.8917 19.4066 49.7126C17.6218 46.5384 16.1917 42.7884 15.4784 39.1095C14.27 32.8786 15.1289 27.5099 17.9209 23.5587L17.7167 23.4144L17.9209 23.5587C20.8566 19.4039 24.1046 17.8038 27.1999 17.3794C30.312 16.9526 33.2929 17.7095 35.7087 18.325C36.2994 18.4756 36.8806 18.6236 37.4227 18.7428L37.6989 18.8035L37.7253 18.522C37.7866 17.8699 37.8753 17.2312 37.993 16.6068L38.0441 16.3356L37.7692 16.3115C34.1323 15.9923 31.2856 14.811 29.2651 12.801L29.0887 12.9782L29.2651 12.801C26.8111 10.3598 25.58 6.7088 25.6475 1.90623L25.6705 0.275463L27.3109 0.252644L27.3109 0.252644C32.139 0.185128 35.8102 1.41053 38.2641 3.85176C39.5396 5.12071 40.4806 6.71718 41.0843 8.62853L41.2285 9.08492L41.5207 8.70586C43.1066 6.64866 45.1755 4.82823 47.7309 3.25763L49.4789 6.12692C44.4975 9.19618 41.736 13.2364 41.1281 18.4178Z" fill="white" fill-opacity="0.4" stroke="url(#paint0_linear_10_8138)" stroke-width="0.5"/>
</g>
</g>
<defs>
<filter id="filter0_b_10_8138" x="-4" y="-4" width="84" height="81" filterUnits="userSpaceOnUse" color-interpolation-filters="sRGB">
<feFlood flood-opacity="0" result="BackgroundImageFix"/>
<feGaussianBlur in="BackgroundImageFix" stdDeviation="2"/>
<feComposite in2="SourceAlpha" operator="in" result="effect1_backgroundBlur_10_8138"/>
<feBlend mode="normal" in="SourceGraphic" in2="effect1_backgroundBlur_10_8138" result="shape"/>
</filter>
<filter id="filter1_d_10_8138" x="2.69531" y="-5" width="73.2329" height="83.0952" filterUnits="userSpaceOnUse" color-interpolation-filters="sRGB">
<feFlood flood-opacity="0" result="BackgroundImageFix"/>
<feColorMatrix in="SourceAlpha" type="matrix" values="0 0 0 0 0 0 0 0 0 0 0 0 0 0 0 0 0 0 127 0" result="hardAlpha"/>
<feOffset dy="7"/>
<feGaussianBlur stdDeviation="6"/>
<feComposite in2="hardAlpha" operator="out"/>
<feColorMatrix type="matrix" values="0 0 0 0 0.368627 0 0 0 0 0 0 0 0 0 0 0 0 0 0.46 0"/>
<feBlend mode="normal" in2="BackgroundImageFix" result="effect1_dropShadow_10_8138"/>
<feBlend mode="normal" in="SourceGraphic" in2="effect1_dropShadow_10_8138" result="shape"/>
</filter>
<linearGradient id="paint0_linear_10_8138" x1="15" y1="52.5" x2="64" y2="11" gradientUnits="userSpaceOnUse">
<stop stop-color="white"/>
<stop offset="1" stop-color="white" stop-opacity="0"/>
</linearGradient>
<clipPath id="clip0_10_8138">
<rect width="76" height="73" fill="white"/>
</clipPath>
</defs>
</svg>
