<svg width="85" height="78" viewBox="0 0 85 78" fill="none" xmlns="http://www.w3.org/2000/svg">
<path d="M37.8773 40.4039C38.5552 41.0357 39.2467 41.7834 39.9902 42.6897C40.7641 43.6318 41.4977 44.6282 42.2079 45.5914C42.6908 46.2459 43.1727 46.9008 43.6693 47.5421C44.9712 49.2235 46.5806 51.0577 48.6484 51.9182C49.8601 52.4214 51.5752 52.6063 52.7575 51.6163C53.0668 51.3564 53.2997 51.0341 53.4977 50.6998C50.4054 46.2067 46.6814 44.3285 46.6325 44.3042C46.3807 44.1809 46.2691 43.861 46.3837 43.5897C46.4983 43.3188 46.7961 43.1992 47.0478 43.322C47.2527 43.4222 50.8539 45.2365 53.9936 49.5979C54.0386 49.457 54.0858 49.3133 54.1181 49.1856C54.4374 47.9194 54.3865 46.5483 53.9761 45.3259C53.4951 43.8905 52.4754 42.5222 51.0276 41.3687C48.9344 39.6995 46.2965 38.6783 43.4 38.4143C41.9914 38.2873 38.6708 38.1245 36.1465 39.0872C36.3013 39.2015 36.4619 39.3148 36.6255 39.4307C37.0467 39.7284 37.4826 40.0362 37.8773 40.4039Z" fill="#CF0713"/>
<path d="M56.8614 43.9379C56.935 43.4779 57.015 43.0346 57.1027 42.6138C58.285 36.9377 61.7516 30.5663 65.9352 26.382C66.138 26.1796 66.4553 26.1907 66.6444 26.4099C66.8335 26.6281 66.8217 26.9695 66.6189 27.1724C62.5724 31.2181 59.2224 37.3719 58.0822 42.8498C57.9839 43.3218 57.8959 43.8265 57.8157 44.3527C58.036 44.4037 58.2622 44.4376 58.5083 44.4384C59.2097 44.4379 59.9561 44.2529 60.916 43.8488C65.8343 41.7807 69.9376 37.1296 71.8928 31.4078C73.607 26.3888 73.7323 20.6022 72.265 15C70.0904 18.0762 67.095 20.3309 64.1906 22.5176C61.8035 24.3149 59.3351 26.1728 57.3642 28.4623C56.7461 29.1794 56.1976 29.9261 55.7333 30.6822C53.6028 34.1535 52.9386 39.4886 55.7911 42.9694C56.1255 43.3776 56.4883 43.6968 56.8614 43.9379Z" fill="#CF0713"/>
<path d="M74.2904 47.662C72.3509 47.2673 70.3614 46.8627 68.4004 46.8627C67.8039 46.8627 67.2103 46.9001 66.6206 46.987C64.7389 47.2631 63.1001 48.023 61.8806 49.1838C60.9441 50.0764 60.2349 51.2372 59.8314 52.5397C59.5781 53.356 59.4678 54.0291 59.4914 54.5839C63.823 52.5509 68.6703 51.8501 73.9662 52.5519C74.2414 52.5882 74.4373 52.8569 74.403 53.153C74.3697 53.4491 74.118 53.6662 73.8447 53.6225C68.6841 52.9418 63.972 53.6314 59.7758 55.6283C59.8129 55.6911 59.8462 55.7563 59.8911 55.8145C60.3025 56.3451 60.9343 56.6944 61.4985 56.9658C63.9533 58.1466 66.8341 58.7115 69.8285 58.5977C72.9337 58.4802 75.7254 57.6366 77.899 56.158C80.6584 54.2827 82.6302 51.2941 84.1945 48.4392C80.8063 48.9872 77.3641 48.2875 74.2904 47.662Z" fill="#CF0713"/>
<path d="M72.6102 69.9254C70.7255 69.9254 68.9212 70.6763 67.5303 72.0388C67.4059 72.16 67.2355 72.209 67.0709 72.1632C66.9083 72.1194 66.7761 71.9909 66.7202 71.8207C65.1285 67.0105 60.8674 63.7783 56.1187 63.7783C51.168 63.7783 46.8512 67.1917 45.377 72.2717C45.329 72.4351 45.2125 72.5647 45.0616 72.6211C44.9127 72.6764 44.7462 72.6532 44.614 72.5557C43.46 71.7032 42.1063 71.2527 40.6988 71.2527C37.1273 71.2527 34.1329 74.2319 33.7969 77.9999H80.1595C80.135 73.5432 76.7576 69.9254 72.6102 69.9254Z" fill="#CF0713"/>
<path d="M58.5302 55.0421C58.0486 55.2952 57.5801 55.5816 57.1122 55.8695C57.1313 52.5677 57.2597 48.6611 57.664 45.4193L56.693 45.0795C56.3645 47.6069 56.2061 50.5176 56.1403 53.2516C55.6866 52.2957 55.1962 51.4177 54.6809 50.6156L54.1113 51.6413C54.8547 52.8481 55.5401 54.22 56.1028 55.7697C56.0826 59.1191 56.1767 61.8527 56.2104 62.7028L57.2161 62.758C57.1934 62.1792 57.1152 59.9667 57.1097 57.1026C57.6808 56.7316 58.2611 56.3828 58.8545 56.0669L58.5302 55.0421Z" fill="#CF0713"/>
<g filter="url(#filter0_bd_10_4162)">
<path d="M49.0641 11.2413C41.156 11.2413 35.0976 8.9819 29.9744 4C24.8519 8.9819 18.7938 11.2413 10.8863 11.2413C10.8863 24.214 8.20188 42.7984 29.9744 50.3449C51.7484 42.7982 49.0641 24.214 49.0641 11.2413Z" fill="white" fill-opacity="0.24" shape-rendering="crispEdges"/>
</g>
<g filter="url(#filter1_bd_10_4162)">
<path fill-rule="evenodd" clip-rule="evenodd" d="M29.9744 4C24.8519 8.9819 18.7938 11.2413 10.8863 11.2413C10.8863 12.4878 10.8615 13.786 10.836 15.1213C10.5962 27.6834 10.2938 43.5235 29.9744 50.3449C49.6565 43.5233 49.3542 27.683 49.1144 15.1209C49.0889 13.7858 49.0641 12.4876 49.0641 11.2413C41.156 11.2413 35.0976 8.9819 29.9744 4ZM48.3535 11.9482C40.8766 11.8193 34.9854 9.63545 29.9744 4.98354C24.9641 9.63544 19.0732 11.8193 11.5969 11.9482C11.5901 13.0011 11.5697 14.0813 11.5489 15.1816C11.443 20.789 11.3272 26.9208 12.9515 32.6329C14.9253 39.5744 19.4795 45.8829 29.9744 49.5896C40.4701 45.8828 45.0247 39.5743 46.9987 32.6328C48.6232 26.9206 48.5074 20.7888 48.4015 15.1813C48.3807 14.081 48.3603 13.001 48.3535 11.9482Z" fill="url(#paint0_linear_10_4162)" fill-opacity="0.8" shape-rendering="crispEdges"/>
</g>
<defs>
<filter id="filter0_bd_10_4162" x="0.58125" y="-0.7" width="58.7887" height="68.245" filterUnits="userSpaceOnUse" color-interpolation-filters="sRGB">
<feFlood flood-opacity="0" result="BackgroundImageFix"/>
<feGaussianBlur in="BackgroundImageFix" stdDeviation="2.35"/>
<feComposite in2="SourceAlpha" operator="in" result="effect1_backgroundBlur_10_4162"/>
<feColorMatrix in="SourceAlpha" type="matrix" values="0 0 0 0 0 0 0 0 0 0 0 0 0 0 0 0 0 0 127 0" result="hardAlpha"/>
<feOffset dy="7"/>
<feGaussianBlur stdDeviation="5.1"/>
<feComposite in2="hardAlpha" operator="out"/>
<feColorMatrix type="matrix" values="0 0 0 0 0.713854 0 0 0 0 0.719417 0 0 0 0 0.741667 0 0 0 1 0"/>
<feBlend mode="normal" in2="effect1_backgroundBlur_10_4162" result="effect2_dropShadow_10_4162"/>
<feBlend mode="normal" in="SourceGraphic" in2="effect2_dropShadow_10_4162" result="shape"/>
</filter>
<filter id="filter1_bd_10_4162" x="0.58125" y="-0.7" width="58.7887" height="68.245" filterUnits="userSpaceOnUse" color-interpolation-filters="sRGB">
<feFlood flood-opacity="0" result="BackgroundImageFix"/>
<feGaussianBlur in="BackgroundImageFix" stdDeviation="2.35"/>
<feComposite in2="SourceAlpha" operator="in" result="effect1_backgroundBlur_10_4162"/>
<feColorMatrix in="SourceAlpha" type="matrix" values="0 0 0 0 0 0 0 0 0 0 0 0 0 0 0 0 0 0 127 0" result="hardAlpha"/>
<feOffset dy="7"/>
<feGaussianBlur stdDeviation="5.1"/>
<feComposite in2="hardAlpha" operator="out"/>
<feColorMatrix type="matrix" values="0 0 0 0 0.713854 0 0 0 0 0.719417 0 0 0 0 0.741667 0 0 0 1 0"/>
<feBlend mode="normal" in2="effect1_backgroundBlur_10_4162" result="effect2_dropShadow_10_4162"/>
<feBlend mode="normal" in="SourceGraphic" in2="effect2_dropShadow_10_4162" result="shape"/>
</filter>
<linearGradient id="paint0_linear_10_4162" x1="9.94493" y1="4.86574" x2="49.0994" y2="49.4139" gradientUnits="userSpaceOnUse">
<stop stop-color="#CF0713"/>
<stop offset="0.658514" stop-color="#CF0713" stop-opacity="0"/>
</linearGradient>
</defs>
</svg>
