<svg width="89" height="78" viewBox="0 0 89 78" fill="none" xmlns="http://www.w3.org/2000/svg">
<path d="M43.0532 40.4039C43.7257 41.0357 44.4118 41.7834 45.1494 42.6897C45.9171 43.6318 46.6451 44.6282 47.3496 45.5914C47.8287 46.2459 48.3068 46.9008 48.7995 47.5421C50.0911 49.2235 51.6878 51.0577 53.7394 51.9182C54.9415 52.4214 56.6431 52.6063 57.8161 51.6162C58.123 51.3564 58.354 51.0341 58.5505 50.6998C55.4825 46.2067 51.7879 44.3285 51.7393 44.3042C51.4896 44.1809 51.3788 43.861 51.4925 43.5896C51.6062 43.3188 51.9016 43.1992 52.1514 43.322C52.3547 43.4222 55.9275 45.2365 59.0425 49.5979C59.0871 49.457 59.134 49.3133 59.166 49.1856C59.4828 47.9194 59.4323 46.5483 59.0251 45.3259C58.5479 43.8905 57.5362 42.5222 56.0999 41.3687C54.0231 39.6994 51.406 38.6783 48.5323 38.4143C47.1348 38.2873 43.8403 38.1245 41.3359 39.0872C41.4895 39.2015 41.6489 39.3148 41.8112 39.4307C42.229 39.7284 42.6615 40.0362 43.0532 40.4039Z" fill="#CF0713"/>
<path d="M61.8888 43.9379C61.9618 43.4779 62.0412 43.0346 62.1281 42.6137C63.3011 36.9377 66.7404 30.5662 70.8911 26.382C71.0923 26.1796 71.4071 26.1907 71.5947 26.4099C71.7823 26.628 71.7706 26.9695 71.5694 27.1723C67.5548 31.2181 64.2312 37.3719 63.1 42.8498C63.0024 43.3218 62.9151 43.8265 62.8356 44.3526C63.0541 44.4037 63.2785 44.4376 63.5227 44.4384C64.2186 44.4379 64.959 44.2529 65.9114 43.8488C70.791 41.7807 74.8619 37.1295 76.8017 31.4077C78.5024 26.3888 78.6268 20.6022 77.171 15C75.0135 18.0762 72.0417 20.3309 69.1603 22.5176C66.7919 24.3149 64.3429 26.1728 62.3876 28.4622C61.7744 29.1794 61.2302 29.926 60.7695 30.6822C58.6558 34.1535 57.9969 39.4885 60.8269 42.9694C61.1586 43.3776 61.5186 43.6968 61.8888 43.9379Z" fill="#CF0713"/>
<path d="M79.1699 47.6621C77.2457 47.2675 75.2719 46.8628 73.3263 46.8628C72.7345 46.8628 72.1455 46.9002 71.5605 46.9871C69.6936 47.2633 68.0677 48.0231 66.8578 49.1839C65.9287 50.0765 65.2251 51.2373 64.8247 52.5398C64.5735 53.3561 64.4641 54.0292 64.4875 54.584C68.785 52.551 73.5941 51.8502 78.8482 52.552C79.1213 52.5883 79.3157 52.857 79.2816 53.1531C79.2486 53.4492 78.9988 53.6663 78.7277 53.6226C73.6077 52.9419 68.9328 53.6316 64.7696 55.6284C64.8064 55.6912 64.8394 55.7564 64.884 55.8146C65.2922 56.3452 65.919 56.6946 66.4788 56.9659C68.9142 58.1467 71.7724 58.7116 74.7432 58.5978C77.8239 58.4803 80.5936 57.6367 82.75 56.1581C85.4877 54.2828 87.444 51.2942 88.996 48.4393C85.6344 48.9873 82.2194 48.2876 79.1699 47.6621Z" fill="#CF0713"/>
<path d="M77.5076 69.9254C75.6378 69.9254 73.8477 70.6762 72.4677 72.0388C72.3443 72.16 72.1752 72.209 72.0119 72.1632C71.8506 72.1194 71.7194 71.9909 71.664 71.8207C70.0848 67.0105 65.8573 63.7783 61.146 63.7783C56.2343 63.7783 51.9515 67.1917 50.4889 72.2717C50.4413 72.435 50.3257 72.5647 50.176 72.6211C50.0283 72.6764 49.8631 72.6532 49.7319 72.5557C48.5871 71.7032 47.244 71.2527 45.8475 71.2527C42.3042 71.2527 39.3333 74.2318 39 77.9999H84.9974C84.9731 73.5432 81.6223 69.9254 77.5076 69.9254Z" fill="#CF0713"/>
<path d="M63.5404 55.0422C63.0625 55.2953 62.5977 55.5817 62.1335 55.8696C62.1525 52.5678 62.2798 48.6612 62.6809 45.4195L61.7176 45.0796C61.3916 47.607 61.2345 50.5177 61.1693 53.2517C60.7191 52.2958 60.2326 51.4179 59.7214 50.6158L59.1562 51.6414C59.8938 52.8482 60.5738 54.2201 61.132 55.7698C61.112 59.1192 61.2054 61.8527 61.2388 62.7029L62.2365 62.7581C62.2141 62.1792 62.1364 59.9668 62.131 57.1027C62.6976 56.7317 63.2734 56.3829 63.862 56.067L63.5404 55.0422Z" fill="#CF0713"/>
<g filter="url(#filter0_bd_10_4145)">
<path d="M55.0178 33.3661C53.7239 30.5114 51.3258 28.4923 48.2649 27.68C44.2519 26.615 39.4989 27.5073 35.6435 29.858C33.9462 28.7402 31.9488 28.1356 29.8947 28.1356C28.0817 28.1356 26.3092 28.608 24.7499 29.489C24.63 24.8019 25.6821 17.6618 26.157 14.713L32.0167 15.9593L37.451 13.6954C38.2899 13.3459 38.8977 12.6401 39.1181 11.7584C39.3389 10.8768 39.1353 9.96798 38.5598 9.26485L34.2514 4H20.7331L17.6499 12.0018C13.0325 21.1634 11.121 35.228 11.0011 41.9564C10.9681 43.8182 11.6686 45.5754 12.9742 46.904C14.2804 48.2334 16.0264 48.9657 17.8906 48.9657H28.811C30.4417 48.9657 32.049 48.5835 33.4964 47.8578C33.9448 47.9281 34.4101 48.0047 34.896 48.0844C37.4414 48.5015 40.482 49 43.4203 49C44.1705 49 44.9146 48.9674 45.6412 48.8929C50.0247 48.4424 53.0932 46.5089 54.7609 43.146C56.3181 40.006 56.4119 36.4413 55.0178 33.3661Z" fill="#979797" fill-opacity="0.15" shape-rendering="crispEdges"/>
</g>
<g filter="url(#filter1_bd_10_4145)">
<path fill-rule="evenodd" clip-rule="evenodd" d="M54.3747 33.6575C53.1694 30.9981 50.9423 29.1209 48.0838 28.3623C44.2863 27.3545 39.73 28.1932 36.0111 30.4607L35.6289 30.6937L35.2551 30.4475C33.6726 29.4052 31.8101 28.8415 29.8947 28.8415C28.2043 28.8415 26.5513 29.282 25.0972 30.1035L24.0742 30.6815L24.0441 29.507C23.9223 24.7443 24.9865 17.541 25.46 14.6008L25.578 13.8682L31.9484 15.2231L37.1795 13.0439C37.8125 12.7801 38.2669 12.2523 38.4332 11.5872C38.5998 10.9221 38.4476 10.2424 38.0134 9.7119L33.9169 4.70588H21.2177L18.2961 12.2882L18.2804 12.3195C13.7302 21.3477 11.8259 35.2927 11.707 41.9689M20.7331 4H34.2514L38.5598 9.26485C39.1353 9.96798 39.3389 10.8768 39.1181 11.7584C38.8977 12.6401 38.2899 13.3459 37.451 13.6954L32.0167 15.9593L26.157 14.713C26.1229 14.9249 26.0858 15.1585 26.0464 15.4112C25.5673 18.4811 24.7442 24.3809 24.7405 28.6911C24.7402 28.9638 24.7433 29.2301 24.7499 29.489C24.9785 29.3598 25.2118 29.2394 25.449 29.128C26.8299 28.4796 28.3475 28.1356 29.8947 28.1356C31.9488 28.1356 33.9462 28.7402 35.6435 29.858C39.4989 27.5073 44.2519 26.615 48.2649 27.68C51.3258 28.4923 53.7239 30.5114 55.0178 33.3661C56.4119 36.4413 56.3181 40.006 54.7609 43.146C53.0932 46.5089 50.0247 48.4424 45.6412 48.8929C44.9146 48.9674 44.1705 49 43.4203 49C40.4834 49 37.4442 48.502 34.8995 48.0849L34.783 48.0658C34.3378 47.9928 33.9099 47.9227 33.4964 47.8578C32.049 48.5835 30.4417 48.9657 28.811 48.9657H17.8906C16.0264 48.9657 14.2804 48.2334 12.9742 46.904C11.6686 45.5754 10.9681 43.8182 11.0011 41.9564C11.121 35.228 13.0325 21.1634 17.6499 12.0018L20.7331 4ZM35.0101 47.3878C37.5649 47.8064 40.549 48.2941 43.4203 48.2941C44.1504 48.2941 44.8701 48.2624 45.5692 48.1907C49.7605 47.76 52.5885 45.9374 54.1284 42.8324C55.5956 39.8739 55.6775 36.5312 54.3747 33.6575M35.0101 47.3878L34.8969 47.3692C34.4523 47.2963 34.022 47.2257 33.6058 47.1604L33.3822 47.1253L33.1798 47.2268C31.8307 47.9034 30.3317 48.2598 28.811 48.2598H17.8906C16.2158 48.2598 14.6512 47.6036 13.4778 46.4093C12.305 45.2158 11.6774 43.6414 11.707 41.9689" fill="url(#paint0_linear_10_4145)" fill-opacity="0.8" shape-rendering="crispEdges"/>
</g>
<defs>
<filter id="filter0_bd_10_4145" x="0.8" y="0.8" width="65.4" height="65.4" filterUnits="userSpaceOnUse" color-interpolation-filters="sRGB">
<feFlood flood-opacity="0" result="BackgroundImageFix"/>
<feGaussianBlur in="BackgroundImageFix" stdDeviation="1.55"/>
<feComposite in2="SourceAlpha" operator="in" result="effect1_backgroundBlur_10_4145"/>
<feColorMatrix in="SourceAlpha" type="matrix" values="0 0 0 0 0 0 0 0 0 0 0 0 0 0 0 0 0 0 127 0" result="hardAlpha"/>
<feOffset dy="7"/>
<feGaussianBlur stdDeviation="5.1"/>
<feComposite in2="hardAlpha" operator="out"/>
<feColorMatrix type="matrix" values="0 0 0 0 0.713854 0 0 0 0 0.719417 0 0 0 0 0.741667 0 0 0 1 0"/>
<feBlend mode="normal" in2="effect1_backgroundBlur_10_4145" result="effect2_dropShadow_10_4145"/>
<feBlend mode="normal" in="SourceGraphic" in2="effect2_dropShadow_10_4145" result="shape"/>
</filter>
<filter id="filter1_bd_10_4145" x="0.8" y="0.8" width="65.4" height="65.4" filterUnits="userSpaceOnUse" color-interpolation-filters="sRGB">
<feFlood flood-opacity="0" result="BackgroundImageFix"/>
<feGaussianBlur in="BackgroundImageFix" stdDeviation="1.55"/>
<feComposite in2="SourceAlpha" operator="in" result="effect1_backgroundBlur_10_4145"/>
<feColorMatrix in="SourceAlpha" type="matrix" values="0 0 0 0 0 0 0 0 0 0 0 0 0 0 0 0 0 0 127 0" result="hardAlpha"/>
<feOffset dy="7"/>
<feGaussianBlur stdDeviation="5.1"/>
<feComposite in2="hardAlpha" operator="out"/>
<feColorMatrix type="matrix" values="0 0 0 0 0.713854 0 0 0 0 0.719417 0 0 0 0 0.741667 0 0 0 1 0"/>
<feBlend mode="normal" in2="effect1_backgroundBlur_10_4145" result="effect2_dropShadow_10_4145"/>
<feBlend mode="normal" in="SourceGraphic" in2="effect2_dropShadow_10_4145" result="shape"/>
</filter>
<linearGradient id="paint0_linear_10_4145" x1="10.0196" y1="4.84061" x2="46.5014" y2="54.9515" gradientUnits="userSpaceOnUse">
<stop stop-color="#CF0713"/>
<stop offset="0.658514" stop-color="#CF0713" stop-opacity="0"/>
</linearGradient>
</defs>
</svg>
