<svg width="375" height="154" viewBox="0 0 375 154" fill="none" xmlns="http://www.w3.org/2000/svg">
<g clip-path="url(#clip0_1_671)">
<path d="M301.619 2.38492C302.131 1.59165 303.261 0.291716 300.975 0.286599C290.535 0.276363 280.094 0.296834 269.654 0.296834C268.953 0.296834 268.498 0.424781 268.043 1.15663C264.176 7.35946 260.222 13.5111 256.288 19.6781C250.165 29.269 244.048 38.8598 237.919 48.4507C232.303 57.238 226.681 66.0254 221.044 74.7973C219.965 76.4811 219.643 76.476 218.564 74.7718C212.916 65.8513 207.3 56.9156 201.627 48.0105C200.972 46.9818 201.064 46.1988 201.699 45.2469C206.057 38.7063 210.389 32.1554 214.717 25.5944C219.934 17.6822 225.126 9.7495 230.364 1.84754C231.178 0.624377 230.978 0.240538 229.51 0.245656C219.136 0.281481 208.763 0.286599 198.394 0.271245C197.412 0.271245 196.844 0.552727 196.292 1.44323C192.819 7.01657 189.248 12.5285 185.719 18.066C184.44 20.0722 184.107 20.0876 182.87 18.1274C179.361 12.5746 175.826 7.03192 172.363 1.44835C171.872 0.660202 171.401 0.291716 170.46 0.291716C159.544 0.30707 148.628 0.291716 137.718 0.261009C136.28 0.261009 136.27 0.757441 136.971 1.81172C140.598 7.28781 144.194 12.7844 147.795 18.281C153.851 27.5136 159.897 36.7461 165.964 45.9736C166.624 46.9767 166.711 47.8058 165.984 48.9215C160.347 57.6065 154.777 66.3427 149.217 75.0788C148.449 76.2815 147.907 76.4709 147.068 75.1249C142.889 68.3949 138.664 61.6905 134.444 54.9862C129.175 46.6185 123.896 38.261 118.628 29.8933C112.674 20.4407 106.704 10.9931 100.817 1.49953C100.259 0.598787 99.6912 0.286599 98.7347 0.286599C87.8853 0.291716 77.0411 0.286599 66.1917 0.276363C65.005 0.276363 64.4935 0.475959 65.358 1.78101C70.0946 8.95112 74.7495 16.1775 79.4606 23.3732C88.2434 36.7922 97.0518 50.1959 105.835 63.6097C114.331 76.5835 122.781 89.5828 131.334 102.516C132.326 104.015 132.797 105.458 132.792 107.229C132.761 128.325 132.792 149.416 132.735 170.511C132.735 172.303 133.211 172.819 135.012 172.804C143.621 172.717 152.23 172.727 160.838 172.804C162.624 172.819 163.11 172.267 163.094 170.486C163.007 159.702 163.053 148.919 163.053 138.136H163.064C163.064 127.486 163.084 116.84 163.043 106.19C163.038 104.706 163.365 103.483 164.204 102.219C170.22 93.2165 176.153 84.163 182.113 75.1198C183.463 73.0726 183.637 73.0573 184.946 75.0532C191.039 84.3268 197.121 93.6003 203.187 102.884C203.878 103.943 204.471 104.998 204.466 106.421C204.41 127.788 204.44 149.149 204.369 170.516C204.364 172.359 204.942 172.809 206.676 172.794C215.218 172.722 223.761 172.697 232.298 172.804C234.267 172.83 234.63 172.164 234.625 170.348C234.564 148.914 234.595 127.48 234.564 106.047C234.564 104.767 234.83 103.662 235.536 102.608C237.152 100.187 238.723 97.7355 240.324 95.3097C249.48 81.471 258.657 67.6477 267.792 53.7988C276.401 40.7483 284.969 27.6722 293.558 14.6115C296.238 10.5376 298.964 6.48943 301.609 2.39003L301.619 2.38492Z" fill="#9E9E9E" fill-opacity="0.04"/>
<path d="M-4.95961 0.240479C-53.0323 0.240479 -92 38.8649 -92 86.5172C-92 134.169 -53.0323 172.794 -4.95961 172.794C43.1131 172.794 82.0808 134.164 82.0808 86.5172C82.0808 38.87 43.108 0.240479 -4.95961 0.240479ZM-5.30745 144.467C-36.6739 144.467 -62.1016 118.202 -62.1016 85.8058C-62.1016 53.4098 -36.6739 27.145 -5.30745 27.145C26.059 27.145 51.4867 53.4098 51.4867 85.8058C51.4867 118.202 26.059 144.467 -5.30745 144.467Z" fill="#9E9E9E" fill-opacity="0.04"/>
<path d="M371.962 0C323.89 0 284.922 38.6295 284.922 86.2767C284.922 133.924 323.89 172.553 371.962 172.553C420.035 172.553 459.003 133.924 459.003 86.2767C459.003 38.6295 420.03 0 371.962 0ZM371.614 144.226C340.248 144.226 314.82 117.961 314.82 85.5653C314.82 53.1693 340.248 26.9045 371.614 26.9045C402.981 26.9045 428.409 53.1693 428.409 85.5653C428.409 117.961 402.981 144.226 371.614 144.226Z" fill="#9E9E9E" fill-opacity="0.04"/>
</g>
<defs>
<clipPath id="clip0_1_671">
<rect width="375" height="154" fill="white"/>
</clipPath>
</defs>
</svg>
