<svg width="184" height="184" viewBox="0 0 184 184" fill="none" xmlns="http://www.w3.org/2000/svg">
<path d="M175.926 92.0068C175.926 138.348 138.346 175.915 91.9898 175.915C45.6331 175.915 8.05356 138.348 8.05356 92.0068C8.05356 45.6656 45.6331 8.09863 91.9898 8.09863C138.346 8.09863 175.926 45.6656 175.926 92.0068Z" fill="white" fill-opacity="0.06"/>
<path d="M166.624 92.7924L166.574 93.727L163.902 93.5826L163.757 96.2547L166.329 98.2444L166.27 99.3348L163.328 97.0727L159.634 99.1564L159.695 98.042L162.892 96.244L163.039 93.5359L159.947 93.3688L159.998 92.4342L166.624 92.7924Z" fill="white" fill-opacity="0.32"/>
<path d="M164.695 104.234L161.194 101.965L160.47 106.102L164.526 105.204L164.695 104.234ZM165.634 103.814L165.26 105.953L158.237 107.588L158.406 106.619L159.551 106.344L160.405 101.462L159.422 100.815L159.596 99.8218L165.634 103.814Z" fill="white" fill-opacity="0.32"/>
<path d="M164.401 110.234L162.416 116.767L161.589 116.516L162.444 113.703L156.921 112.026L157.196 111.119L162.719 112.796L163.574 109.983L164.401 110.234Z" fill="white" fill-opacity="0.32"/>
<path d="M159.701 121.184L156.845 118.142L155.151 121.986L159.304 122.084L159.701 121.184ZM160.713 121L159.836 122.988L152.626 122.893L153.023 121.992L154.2 122L156.199 117.465L155.4 116.601L155.806 115.679L160.713 121Z" fill="white" fill-opacity="0.32"/>
<path d="M156.892 128.774L154.265 133.146L148.576 129.729L149.058 128.927L154.006 131.899L155.749 128.998L152.581 126.186C152.178 125.832 151.945 125.444 151.88 125.023C151.816 124.602 151.916 124.172 152.179 123.733L152.464 123.26L153.246 123.729L152.998 124.141C152.689 124.655 152.739 125.086 153.146 125.433L156.892 128.774Z" fill="white" fill-opacity="0.32"/>
<path d="M149.792 133.754C149.147 133.254 148.48 133.059 147.792 133.168C147.099 133.283 146.505 133.654 146.008 134.282C145.517 134.903 145.295 135.564 145.343 136.264C145.397 136.97 145.741 137.573 146.375 138.074C147.009 138.575 147.672 138.768 148.365 138.653C149.064 138.543 149.659 138.177 150.151 137.556C150.647 136.928 150.871 136.264 150.824 135.564C150.771 134.87 150.427 134.266 149.792 133.754ZM148.41 139.545C147.471 139.7 146.596 139.458 145.787 138.818C144.977 138.178 144.537 137.381 144.465 136.427C144.395 135.484 144.689 134.595 145.349 133.761C146.01 132.926 146.809 132.431 147.748 132.276C148.688 132.132 149.563 132.38 150.372 133.02C151.182 133.66 151.622 134.451 151.692 135.394C151.764 136.348 151.47 137.242 150.81 138.077C150.15 138.911 149.35 139.4 148.41 139.545Z" fill="white" fill-opacity="0.32"/>
<path d="M146.942 142.486L142.724 146.702L142.113 146.092L145.669 142.537L141.587 138.456L142.249 137.794L146.942 142.486Z" fill="white" fill-opacity="0.32"/>
<path d="M138.448 150.402L133.256 154.178L129.351 148.812L130.108 148.262L133.511 152.938L137.19 150.264L133.786 145.587L134.543 145.036L138.448 150.402Z" fill="white" fill-opacity="0.32"/>
<path d="M131.611 155.236L128.255 157.152C127.595 157.529 126.926 157.639 126.247 157.483C125.572 157.334 125.05 156.936 124.681 156.29C124.308 155.637 124.229 154.982 124.443 154.326C124.662 153.676 125.101 153.163 125.761 152.786L128.304 151.334L127.506 149.938L128.319 149.474L131.611 155.236ZM130.369 154.95L128.733 152.085L126.2 153.53C125.742 153.792 125.445 154.127 125.31 154.536C125.179 154.952 125.24 155.382 125.494 155.826C125.744 156.264 126.085 156.53 126.517 156.624C126.945 156.73 127.385 156.653 127.837 156.396L130.369 154.95Z" fill="white" fill-opacity="0.32"/>
<path d="M122.239 156.569C121.916 155.819 121.428 155.326 120.773 155.088C120.111 154.853 119.411 154.89 118.673 155.199C117.943 155.505 117.429 155.976 117.131 156.612C116.837 157.255 116.846 157.95 117.158 158.695C117.47 159.44 117.957 159.93 118.619 160.165C119.284 160.407 119.982 160.375 120.712 160.069C121.45 159.761 121.968 159.288 122.266 158.652C122.556 158.019 122.547 157.325 122.239 156.569ZM118.226 160.967C117.329 160.648 116.682 160.013 116.283 159.061C115.885 158.109 115.885 157.198 116.284 156.329C116.679 155.47 117.367 154.835 118.349 154.424C119.33 154.013 120.269 153.967 121.166 154.286C122.058 154.615 122.704 155.256 123.102 156.207C123.501 157.159 123.503 158.065 123.108 158.924C122.709 159.793 122.018 160.433 121.037 160.844C120.055 161.255 119.118 161.296 118.226 160.967Z" fill="white" fill-opacity="0.32"/>
<path d="M113.706 163.358L108.846 164.694L107.315 159.129L106.516 159.349L105.921 157.185L106.673 156.978L107.132 158.283L113.102 156.642L112.84 155.282L113.592 155.076L114.188 157.239L113.343 157.471L113.706 163.358ZM112.754 162.749L112.371 157.739L108.217 158.881L109.526 163.636L112.754 162.749Z" fill="white" fill-opacity="0.32"/>
<path d="M106.661 165.181L105.7 165.326L104.218 162.589C104.006 162.209 103.675 162.052 103.224 162.121L101.112 162.44L100.503 166.113L99.5657 166.254L100.499 160.713C100.567 160.306 100.741 159.96 101.021 159.675C101.295 159.399 101.642 159.229 102.061 159.165L103.734 158.912L103.858 159.731L102.268 159.972C101.754 160.049 101.457 160.305 101.376 160.738L101.22 161.55L103.166 161.256C103.577 161.193 103.955 161.254 104.298 161.436C104.633 161.62 104.903 161.903 105.106 162.285L106.661 165.181Z" fill="white" fill-opacity="0.32"/>
<path d="M97.9797 166.367L97.0444 166.403L96.9411 163.729L94.2671 163.832L92.5238 166.578L91.4326 166.62L93.4129 163.481L90.9966 159.996L92.1117 159.953L94.1978 162.97L96.9078 162.866L96.7883 159.772L97.7236 159.736L97.9797 166.367Z" fill="white" fill-opacity="0.32"/>
<path d="M89.2577 166.583L88.325 166.504L88.8144 160.752L84.3305 160.371L83.8412 166.122L82.8966 166.042L83.3859 160.291L82.6327 160.227L82.8229 157.991L83.6001 158.057L83.5907 159.441L89.8202 159.971L89.2577 166.583Z" fill="white" fill-opacity="0.32"/>
<path d="M79.8513 165.65L78.9361 165.454L80.072 160.162L74.149 164.427L73.2104 164.225L74.6031 157.737L75.5183 157.934L74.39 163.19L80.2937 158.958L81.244 159.162L79.8513 165.65Z" fill="white" fill-opacity="0.32"/>
<path d="M70.6276 163.536L69.7452 163.223L71.5515 158.122L65.1296 161.59L64.2246 161.27L66.4394 155.015L67.3218 155.327L65.5275 160.395L71.9261 156.956L72.8424 157.28L70.6276 163.536Z" fill="white" fill-opacity="0.32"/>
<path d="M53.3942 155.879L52.6157 155.36L54.1019 153.134L51.8761 151.649L48.8528 152.848L47.9445 152.242L51.3906 150.863L51.4802 146.624L52.4085 147.243L52.326 150.91L54.5817 152.416L56.3012 149.841L57.0797 150.361L53.3942 155.879Z" fill="white" fill-opacity="0.32"/>
<path d="M44.5652 148.42L48.298 146.555L45.1 143.832L43.8159 147.782L44.5652 148.42ZM44.4512 149.442L42.7974 148.034L44.9535 141.154L45.7027 141.792L45.3587 142.918L49.1324 146.13L50.1891 145.612L50.9567 146.265L44.4512 149.442Z" fill="white" fill-opacity="0.32"/>
<path d="M39.6045 145.169L34.9723 140.152L35.6073 139.566L37.6018 141.726L41.8437 137.812L42.4868 138.509L38.2449 142.423L40.2395 144.583L39.6045 145.169Z" fill="white" fill-opacity="0.32"/>
<path d="M32.5131 135.547L36.5824 134.623L34.1236 131.218L31.937 134.749L32.5131 135.547ZM32.1594 136.512L30.8878 134.751L34.6182 128.582L35.1942 129.38L34.5924 130.391L37.4938 134.409L38.6435 134.157L39.2336 134.974L32.1594 136.512Z" fill="white" fill-opacity="0.32"/>
<path d="M27.4007 129.32L24.9532 124.846L30.776 121.663L31.2252 122.484L26.1605 125.252L27.7845 128.221L31.8125 126.908C32.3219 126.739 32.7746 126.733 33.1707 126.891C33.5668 127.048 33.8877 127.351 34.1334 127.8L34.3983 128.285L33.598 128.722L33.3677 128.301C33.0797 127.774 32.683 127.599 32.1775 127.775L27.4007 129.32Z" fill="white" fill-opacity="0.32"/>
<path d="M26.7379 120.788C27.4946 120.483 27.9991 120.006 28.2514 119.357C28.5008 118.7 28.4793 118 28.187 117.255C27.8976 116.518 27.4382 115.993 26.8087 115.682C26.1719 115.373 25.4774 115.366 24.7252 115.661C23.973 115.956 23.4722 116.432 23.2228 117.088C22.966 117.748 22.9823 118.446 23.2717 119.183C23.564 119.928 24.0249 120.456 24.6543 120.768C25.2808 121.072 25.9753 121.079 26.7379 120.788ZM22.4299 116.678C22.7684 115.789 23.418 115.156 24.3788 114.779C25.3395 114.402 26.2501 114.423 27.1106 114.841C27.9607 115.256 28.5802 115.958 28.969 116.948C29.3578 117.939 29.3829 118.878 29.0443 119.767C28.6954 120.652 28.0406 121.283 27.0799 121.66C26.1192 122.036 25.2138 122.018 24.3636 121.604C23.5031 121.185 22.8785 120.48 22.4897 119.49C22.1009 118.5 22.081 117.562 22.4299 116.678Z" fill="white" fill-opacity="0.32"/>
<path d="M20.6142 113.886L19.1194 108.112L19.9559 107.896L21.216 112.763L26.804 111.318L27.0386 112.224L20.6142 113.886Z" fill="white" fill-opacity="0.32"/>
<path d="M18.0909 102.55L17.4728 96.1597L24.078 95.5212L24.1681 96.4528L18.4109 97.0093L18.8488 101.536L24.606 100.98L24.6961 101.911L18.0909 102.55Z" fill="white" fill-opacity="0.32"/>
<path d="M17.374 93.8535L17.4486 89.9902C17.4633 89.2304 17.7116 88.599 18.1934 88.0962C18.6672 87.5933 19.276 87.349 20.0199 87.3633C20.7717 87.3778 21.3747 87.6455 21.8287 88.1663C22.2747 88.687 22.4904 89.3273 22.4757 90.0871L22.4191 93.0146L24.0268 93.0456L24.0088 93.9814L17.374 93.8535ZM18.2559 92.9343L21.5553 92.9979L21.6116 90.0825C21.6218 89.5546 21.4861 89.1279 21.2043 88.8024C20.9145 88.4768 20.5137 88.309 20.0018 88.2991C19.4979 88.2894 19.0948 88.4457 18.7925 88.7679C18.4824 89.082 18.3223 89.499 18.3122 90.0189L18.2559 92.9343Z" fill="white" fill-opacity="0.32"/>
<path d="M21.0107 85.1157C21.82 85.2205 22.4938 85.052 23.032 84.6102C23.5714 84.1604 23.8964 83.5393 24.007 82.747C24.1165 81.9626 23.9735 81.2803 23.578 80.7001C23.1745 80.1188 22.5726 79.7723 21.7723 79.6606C20.9721 79.5489 20.3023 79.718 19.7629 80.1678C19.2156 80.6165 18.8872 81.233 18.7777 82.0174C18.6671 82.8097 18.8095 83.496 19.2051 84.0762C19.6018 84.6485 20.2036 84.995 21.0107 85.1157ZM19.2735 79.421C20.0047 78.8122 20.8813 78.5791 21.9034 78.7217C22.9255 78.8643 23.7088 79.329 24.2532 80.1158C24.7909 80.8936 24.9861 81.8093 24.839 82.8631C24.6918 83.9169 24.2527 84.7482 23.5215 85.357C22.7834 85.9567 21.9034 86.1853 20.8813 86.0427C19.8592 85.9001 19.0793 85.4399 18.5417 84.6622C17.9973 83.8754 17.7986 82.9551 17.9457 81.9013C18.0929 80.8475 18.5355 80.0208 19.2735 79.421Z" fill="white" fill-opacity="0.32"/>
<path d="M19.4752 74.4523L20.7938 69.5878L26.365 71.0971L26.5817 70.2979L28.7476 70.8847L28.5435 71.6375L27.1864 71.3693L25.5663 77.3456L26.87 77.8107L26.666 78.5636L24.5 77.9768L24.7292 77.1313L19.4752 74.4523ZM20.4837 73.9423L24.993 76.1584L26.1201 72.0005L21.3597 70.7109L20.4837 73.9423Z" fill="white" fill-opacity="0.32"/>
<path d="M21.4611 67.4683L21.8264 66.5676L24.9368 66.6889C25.3721 66.7013 25.6754 66.4962 25.8468 66.0736L26.6496 64.0942L23.8018 61.6969L24.1581 60.8184L28.4486 64.4479C28.7638 64.7137 28.9724 65.04 29.0746 65.4267C29.1723 65.803 29.1415 66.1876 28.9822 66.5805L28.3462 68.1484L27.5789 67.8374L28.1832 66.3473C28.3787 65.8654 28.3107 65.4796 27.9793 65.1899L27.3601 64.6412L26.6205 66.4649C26.4641 66.8504 26.2198 67.1441 25.8875 67.3461C25.5583 67.5407 25.1775 67.628 24.7453 67.6082L21.4611 67.4683Z" fill="white" fill-opacity="0.32"/>
<path d="M24.9352 59.2006L25.3844 58.3794L27.7325 59.663L29.0167 57.3153L27.5555 54.4104L28.0796 53.4524L29.7568 56.7625L33.9887 56.4774L33.4532 57.4565L29.7921 57.6981L28.4906 60.0774L31.2072 61.5624L30.758 62.3836L24.9352 59.2006Z" fill="white" fill-opacity="0.32"/>
<path d="M28.9135 52.0483L29.4559 51.2854L34.161 54.6287L36.7687 50.9612L32.0635 47.618L32.6129 46.8454L37.318 50.1886L37.7561 49.5725L39.5853 50.8723L39.1334 51.508L37.9458 50.7967L34.3229 55.892L28.9135 52.0483Z" fill="white" fill-opacity="0.32"/>
<path d="M34.5751 44.2912L35.2101 43.6035L39.1874 47.2737L38.5316 40.0065L39.1829 39.3012L44.0597 43.8015L43.4247 44.4892L39.4739 40.8434L40.1114 48.0774L39.452 48.7915L34.5751 44.2912Z" fill="white" fill-opacity="0.32"/>
<path d="M40.8317 37.634L41.5466 37.0298L45.0412 41.1623L45.2862 33.8696L46.0194 33.25L50.3044 38.3171L49.5894 38.9213L46.1181 34.8163L45.8591 42.0737L45.1167 42.7011L40.8317 37.634Z" fill="white" fill-opacity="0.32"/>
<path d="M56.0127 26.6093L56.8531 26.1973L58.0318 28.5997L60.4345 27.4217L60.9151 24.2057L61.8956 23.725L61.3579 27.3966L64.9801 29.6033L63.9781 30.0946L60.8474 28.1815L58.4123 29.3754L59.776 32.1549L58.9356 32.5669L56.0127 26.6093Z" fill="white" fill-opacity="0.32"/>
<path d="M67.3046 22.5544L67.0164 26.7165L70.9863 25.3454L68.2347 22.2331L67.3046 22.5544ZM66.4819 21.9372L68.5349 21.2281L73.368 26.5795L72.4379 26.9007L71.6428 26.0327L66.9583 27.6506L66.8687 28.8242L65.916 29.1533L66.4819 21.9372Z" fill="white" fill-opacity="0.32"/>
<path d="M72.7064 19.8961L79.3825 18.464L79.5639 19.3087L76.6893 19.9254L77.9007 25.5688L76.9738 25.7677L75.7624 20.1242L72.8878 20.7409L72.7064 19.8961Z" fill="white" fill-opacity="0.32"/>
<path d="M84.4259 18.7038L83.1558 22.6781L87.3379 22.2901L85.4057 18.6129L84.4259 18.7038ZM83.7736 17.9087L85.9363 17.708L89.3577 24.0551L88.3779 24.146L87.8121 23.1138L82.8773 23.5717L82.5111 24.6903L81.5074 24.7834L83.7736 17.9087Z" fill="white" fill-opacity="0.32"/>
<path d="M92.5188 17.4436L97.6157 17.6209L97.3855 24.2529L96.45 24.2203L96.6503 18.4518L93.2684 18.3342L92.3443 22.4686C92.2301 22.9929 92.0043 23.3853 91.6671 23.6458C91.3298 23.9062 90.9054 24.0275 90.3937 24.0097L89.842 23.9905L89.8737 23.0791L90.3534 23.0958C90.953 23.1166 91.306 22.8647 91.4122 22.3401L92.5188 17.4436Z" fill="white" fill-opacity="0.32"/>
<path d="M100.373 21.2096C100.249 22.0162 100.402 22.6936 100.832 23.2419C101.269 23.7914 101.882 24.1305 102.672 24.2593C103.453 24.3867 104.139 24.2594 104.728 23.8772C105.319 23.4872 105.679 22.8934 105.809 22.096C105.939 21.2985 105.786 20.625 105.348 20.0755C104.912 19.5181 104.304 19.1756 103.522 19.0482C102.732 18.9194 102.043 19.0462 101.454 19.4283C100.872 19.8118 100.512 20.4055 100.373 21.2096ZM106.106 19.6033C106.698 20.3483 106.911 21.23 106.745 22.2485C106.579 23.2671 106.096 24.0395 105.297 24.5657C104.507 25.0853 103.587 25.2595 102.536 25.0883C101.486 24.9171 100.665 24.459 100.074 23.7141C99.491 22.9625 99.2829 22.0775 99.449 21.0589C99.6152 20.0404 100.093 19.2713 100.883 18.7517C101.682 18.2254 102.607 18.0479 103.657 18.2192C104.707 18.3904 105.524 18.8518 106.106 19.6033Z" fill="white" fill-opacity="0.32"/>
<path d="M109.667 19.5005L115.393 21.1687L115.151 21.9982L110.323 20.5918L108.708 26.1331L107.809 25.8713L109.667 19.5005Z" fill="white" fill-opacity="0.32"/>
<path d="M120.375 22.9733L126.191 25.692L123.379 31.7029L122.531 31.3065L124.982 26.0673L120.862 24.1414L118.411 29.3805L117.563 28.9841L120.375 22.9733Z" fill="white" fill-opacity="0.32"/>
<path d="M128.154 26.7211L131.444 28.7468C132.092 29.1452 132.509 29.6796 132.698 30.3499C132.89 31.0133 132.792 31.6618 132.401 32.2952C132.007 32.9355 131.47 33.319 130.791 33.4456C130.116 33.5654 129.454 33.4261 128.807 33.0277L126.314 31.4927L125.47 32.8618L124.673 32.3711L128.154 26.7211ZM128.498 27.9475L126.767 30.7571L129.25 32.2858C129.7 32.5626 130.136 32.6623 130.56 32.5848C130.988 32.5006 131.336 32.2405 131.604 31.8046C131.869 31.3754 131.939 30.9489 131.815 30.5249C131.702 30.0983 131.424 29.7487 130.981 29.4761L128.498 27.9475Z" fill="white" fill-opacity="0.32"/>
<path d="M133.576 34.0878C133.076 34.7327 132.881 35.3991 132.989 36.0868C133.105 36.7794 133.476 37.3738 134.104 37.8698C134.725 38.361 135.386 38.5826 136.087 38.5349C136.792 38.4808 137.396 38.137 137.897 37.5032C138.398 36.8695 138.591 36.2063 138.476 35.5136C138.366 34.8147 138 34.2197 137.379 33.7286C136.751 33.2325 136.087 33.0084 135.386 33.0561C134.692 33.1088 134.088 33.4527 133.576 34.0878ZM139.368 35.4692C139.524 36.4077 139.281 37.2816 138.641 38.0911C138.001 38.9005 137.203 39.3411 136.249 39.4128C135.306 39.4831 134.417 39.1885 133.582 38.5287C132.748 37.8689 132.253 37.0698 132.097 36.1312C131.953 35.1914 132.201 34.3168 132.842 33.5074C133.482 32.6979 134.273 32.258 135.217 32.1876C136.171 32.1159 137.065 32.41 137.9 33.0697C138.735 33.7295 139.224 34.5293 139.368 35.4692Z" fill="white" fill-opacity="0.32"/>
<path d="M143.794 38.353L147.319 41.9549L143.193 45.9909L143.772 46.5826L142.168 48.1517L141.622 47.5943L142.541 46.5607L138.21 42.1356L137.148 43.0234L136.603 42.4659L138.207 40.8968L138.82 41.5229L143.794 38.353ZM143.722 39.4807L139.525 42.2432L142.538 45.322L146.064 41.8733L143.722 39.4807Z" fill="white" fill-opacity="0.32"/>
<path d="M148.912 43.7149L149.504 44.486L147.824 47.1056C147.593 47.4745 147.616 47.8398 147.894 48.2016L149.194 49.896L152.704 48.6555L153.282 49.4076L147.978 51.2676C147.589 51.4046 147.202 51.4192 146.816 51.3114C146.442 51.2051 146.126 50.9838 145.868 50.6474L144.838 49.3052L145.495 48.8012L146.474 50.0769C146.79 50.4894 147.158 50.6262 147.575 50.4872L148.362 50.2315L147.164 48.6703C146.911 48.3403 146.781 47.9809 146.775 47.5922C146.774 47.2099 146.892 46.8374 147.128 46.4749L148.912 43.7149Z" fill="white" fill-opacity="0.32"/>
<path d="M154.242 50.8286L154.724 51.6309L152.43 53.0085L153.808 55.3023L157.054 55.5086L157.616 56.4446L153.911 56.2199L152.02 60.0152L151.445 59.0587L153.086 55.7779L151.689 53.4533L149.035 55.0472L148.553 54.2449L154.242 50.8286Z" fill="white" fill-opacity="0.32"/>
<path d="M158.445 57.9446L158.829 58.7982L153.564 61.1644L155.41 65.2685L160.674 62.9022L161.063 63.7668L155.799 66.133L156.109 66.8225L154.062 67.7424L153.742 67.0311L154.956 66.3668L152.392 60.665L158.445 57.9446Z" fill="white" fill-opacity="0.32"/>
<path d="M162.227 66.6243L162.499 67.5198L157.32 69.0925L163.922 72.2043L164.202 73.1228L157.852 75.0512L157.58 74.1556L162.724 72.5934L156.16 69.4826L155.877 68.5526L162.227 66.6243Z" fill="white" fill-opacity="0.32"/>
<path d="M164.905 75.8789L165.06 76.8021L159.722 77.6935L165.867 81.6311L166.025 82.578L159.479 83.671L159.325 82.7478L164.628 81.8623L158.52 77.9306L158.36 76.9719L164.905 75.8789Z" fill="white" fill-opacity="0.32"/>
</svg>
