<svg width="987" height="306" viewBox="0 0 987 306" fill="none" xmlns="http://www.w3.org/2000/svg">
<path d="M705.082 4.22247C705.998 2.81808 708.023 0.516693 703.927 0.507632C685.226 0.489511 666.525 0.525753 647.824 0.525753C646.569 0.525753 645.753 0.752268 644.938 2.04793C638.011 13.0293 630.928 23.9202 623.882 34.8381C612.914 51.8176 601.955 68.7972 590.978 85.7767C580.918 101.334 570.848 116.891 560.75 132.42C558.817 135.401 558.24 135.392 556.307 132.375C546.191 116.583 536.13 100.763 525.969 84.9975C524.796 83.1763 524.961 81.79 526.097 80.1048C533.904 68.5253 541.665 56.9278 549.416 45.3122C558.762 31.3045 568.062 17.2606 577.445 3.27111C578.902 1.10563 578.544 0.426087 575.915 0.435148C557.333 0.498572 538.751 0.507632 520.178 0.480451C518.419 0.480451 517.402 0.978782 516.412 2.55532C510.191 12.4223 503.795 22.1805 497.473 31.9841C495.182 35.5358 494.586 35.563 492.369 32.0928C486.083 22.2621 479.752 12.4495 473.549 2.56438C472.669 1.16905 471.826 0.516693 470.14 0.516693C450.587 0.543875 431.034 0.516693 411.49 0.462329C408.915 0.462329 408.897 1.3412 410.152 3.20768C416.648 12.9025 423.09 22.6335 429.54 32.3646C440.389 48.7099 451.219 65.0551 462.086 81.3913C463.268 83.1672 463.424 84.635 462.123 86.6102C452.026 101.986 442.047 117.452 432.087 132.919C430.713 135.048 429.742 135.383 428.239 133C420.753 121.086 413.185 109.216 405.626 97.347C396.188 82.533 386.732 67.7371 377.294 52.923C366.629 36.1882 355.936 19.4623 345.39 2.65499C344.391 1.06033 343.374 0.507632 341.661 0.507632C322.226 0.516693 302.801 0.507632 283.367 0.489511C281.242 0.489511 280.325 0.842874 281.874 3.15332C290.358 15.8472 298.697 28.6407 307.135 41.3799C322.868 65.1367 338.646 88.8663 354.378 112.614C369.598 135.583 384.735 158.596 400.055 181.493C401.832 184.147 402.675 186.702 402.666 189.837C402.611 227.185 402.666 264.524 402.565 301.871C402.565 305.043 403.417 305.958 406.643 305.93C422.063 305.776 437.484 305.795 452.905 305.93C456.103 305.958 456.973 304.979 456.946 301.826C456.79 282.735 456.873 263.645 456.873 244.554H456.891C456.891 225.699 456.928 206.853 456.854 187.998C456.845 185.37 457.432 183.205 458.934 180.967C469.71 165.029 480.338 149.001 491.013 132.991C493.432 129.367 493.743 129.34 496.089 132.874C507.002 149.291 517.896 165.709 528.763 182.145C530 184.02 531.063 185.887 531.054 188.406C530.953 226.234 531.008 264.052 530.88 301.88C530.871 305.142 531.906 305.94 535.012 305.912C550.314 305.785 565.616 305.74 580.909 305.93C584.436 305.976 585.087 304.798 585.078 301.581C584.968 263.636 585.023 225.69 584.968 187.744C584.968 185.479 585.444 183.522 586.709 181.656C589.604 177.37 592.417 173.03 595.285 168.735C611.686 144.235 628.124 119.763 644.489 95.245C659.91 72.1405 675.257 48.9907 690.641 25.8682C695.443 18.656 700.326 11.489 705.063 4.23153L705.082 4.22247Z" fill="url(#paint0_linear_1_117)" fill-opacity="0.19"/>
<path d="M155.913 0.426025C69.8017 0.426025 0 68.8062 0 153.169C0 237.532 69.8017 305.912 155.913 305.912C242.024 305.912 311.826 237.523 311.826 153.169C311.826 68.8152 242.015 0.426025 155.913 0.426025ZM155.29 255.762C99.1041 255.762 53.5562 209.263 53.5562 151.91C53.5562 94.5563 99.1041 48.0574 155.29 48.0574C211.476 48.0574 257.024 94.5563 257.024 151.91C257.024 209.263 211.476 255.762 155.29 255.762Z" fill="url(#paint1_linear_1_117)" fill-opacity="0.19"/>
<path d="M831.087 0C744.975 0 675.174 68.3892 675.174 152.743C675.174 237.097 744.975 305.486 831.087 305.486C917.198 305.486 987 237.097 987 152.743C987 68.3892 917.189 0 831.087 0ZM830.464 255.336C774.278 255.336 728.73 208.837 728.73 151.484C728.73 94.1303 774.278 47.6314 830.464 47.6314C886.649 47.6314 932.197 94.1303 932.197 151.484C932.197 208.837 886.649 255.336 830.464 255.336Z" fill="url(#paint2_linear_1_117)" fill-opacity="0.19"/>
<defs>
<linearGradient id="paint0_linear_1_117" x1="494.128" y1="0.435059" x2="490.05" y2="305.887" gradientUnits="userSpaceOnUse">
<stop stop-color="white"/>
<stop offset="1" stop-color="white" stop-opacity="0"/>
</linearGradient>
<linearGradient id="paint1_linear_1_117" x1="156.191" y1="0.426026" x2="150.63" y2="305.821" gradientUnits="userSpaceOnUse">
<stop stop-color="white"/>
<stop offset="1" stop-color="white" stop-opacity="0"/>
</linearGradient>
<linearGradient id="paint2_linear_1_117" x1="831.365" y1="1.76634e-07" x2="825.804" y2="305.395" gradientUnits="userSpaceOnUse">
<stop stop-color="white"/>
<stop offset="1" stop-color="white" stop-opacity="0"/>
</linearGradient>
</defs>
</svg>
