<svg width="212" height="212" viewBox="0 0 212 212" fill="none" xmlns="http://www.w3.org/2000/svg">
<path d="M201.266 105.953C201.266 158.591 158.58 201.262 105.925 201.262C53.2702 201.262 10.5847 158.591 10.5847 105.953C10.5847 53.3156 53.2702 10.6444 105.925 10.6444C158.58 10.6444 201.266 53.3156 201.266 105.953Z" fill="white" fill-opacity="0.06"/>
<path d="M186.493 115.045L186.041 114.127C186.975 113.522 187.488 112.586 187.581 111.321C187.651 110.371 187.427 109.592 186.91 108.983C186.403 108.375 185.693 108.037 184.781 107.97C183.887 107.905 183.131 108.139 182.511 108.674C181.891 109.218 181.547 109.951 181.479 110.873C181.388 112.111 181.769 113.112 182.62 113.876L182.038 114.732C180.882 113.786 180.364 112.489 180.485 110.842C180.577 109.585 181.02 108.583 181.815 107.837C182.608 107.1 183.624 106.777 184.862 106.867C186.09 106.958 187.038 107.43 187.706 108.284C188.382 109.147 188.674 110.198 188.583 111.436C188.461 113.102 187.764 114.305 186.493 115.045Z" fill="white" fill-opacity="0.52"/>
<path d="M187.573 119.703L187.332 120.768L184.287 120.078L183.597 123.122L186.165 125.915L185.884 127.158L182.943 123.979L178.287 125.652L178.575 124.382L182.605 122.941L183.304 119.855L179.781 119.057L180.022 117.992L187.573 119.703Z" fill="white" fill-opacity="0.52"/>
<path d="M182.351 134.797L178.889 131.375L177.082 135.929L181.928 135.864L182.351 134.797ZM183.523 134.538L182.588 136.894L174.179 137.097L174.602 136.03L175.975 135.987L178.107 130.612L177.137 129.64L177.571 128.547L183.523 134.538Z" fill="white" fill-opacity="0.52"/>
<path d="M179.421 144.095L178.855 145.045L176.474 143.627C175.872 143.269 175.328 143.151 174.842 143.274C174.351 143.405 173.931 143.764 173.583 144.349L171.992 147.019L176.19 149.52L175.624 150.47L168.972 146.508L169.538 145.557L171.126 146.503L172.867 143.581C173.311 142.835 173.904 142.368 174.647 142.18C175.384 142 176.133 142.137 176.895 142.591L179.421 144.095Z" fill="white" fill-opacity="0.52"/>
<path d="M169.704 156.96L167.465 152.638L164.343 156.414L168.973 157.845L169.704 156.96ZM170.899 157.075L169.284 159.028L161.221 156.631L161.952 155.746L163.271 156.128L166.956 151.672L166.333 150.448L167.082 149.542L170.899 157.075Z" fill="white" fill-opacity="0.52"/>
<path d="M164.332 164.631L158.362 169.906L157.695 169.15L160.265 166.879L155.806 161.833L156.635 161.1L161.094 166.147L163.664 163.876L164.332 164.631Z" fill="white" fill-opacity="0.52"/>
<path d="M154.642 172.839L153.729 173.439L152.653 171.801L149.974 173.561C149.233 174.048 148.477 174.232 147.706 174.113C146.936 173.994 146.312 173.572 145.835 172.846C145.354 172.113 145.208 171.365 145.4 170.603C145.591 169.841 146.058 169.216 146.799 168.729L150.391 166.369L154.642 172.839ZM152.1 170.958L150.032 167.811L147.422 169.525C146.892 169.874 146.567 170.289 146.447 170.769C146.328 171.25 146.432 171.74 146.76 172.239C147.088 172.738 147.491 173.021 147.969 173.086C148.453 173.159 148.96 173.021 149.49 172.673L152.1 170.958Z" fill="white" fill-opacity="0.52"/>
<path d="M140.015 181.388L133.033 184.098L130.232 176.881L131.25 176.486L133.691 182.777L138.638 180.857L136.196 174.566L137.214 174.171L140.015 181.388Z" fill="white" fill-opacity="0.52"/>
<path d="M126.641 182.075C126.432 181.146 125.978 180.475 125.279 180.062C124.57 179.651 123.759 179.544 122.847 179.739C121.943 179.933 121.253 180.363 120.775 181.029C120.299 181.704 120.16 182.502 120.358 183.423C120.556 184.345 121.009 185.012 121.718 185.423C122.429 185.843 123.236 185.956 124.139 185.762C125.052 185.566 125.747 185.136 126.224 184.47C126.693 183.806 126.832 183.008 126.641 182.075ZM121.095 186.258C120.136 185.7 119.53 184.833 119.277 183.656C119.024 182.478 119.22 181.434 119.865 180.522C120.502 179.622 121.427 179.042 122.641 178.781C123.855 178.521 124.941 178.669 125.901 179.227C126.854 179.796 127.456 180.669 127.709 181.846C127.962 183.023 127.769 184.062 127.132 184.963C126.488 185.874 125.558 186.46 124.345 186.72C123.131 186.981 122.048 186.827 121.095 186.258Z" fill="white" fill-opacity="0.52"/>
<path d="M112.836 188.346L106.893 188.645L106.505 180.912L107.596 180.858L107.933 187.583L111.876 187.385L112.542 182.488C112.623 181.867 112.846 181.388 113.213 181.052C113.579 180.716 114.06 180.533 114.657 180.503L115.3 180.471L115.353 181.534L114.794 181.562C114.095 181.597 113.71 181.924 113.638 182.545L112.836 188.346Z" fill="white" fill-opacity="0.52"/>
<path d="M101.289 188.591L100.203 188.469L100.563 185.27L95.0393 184.65L94.68 187.849L93.581 187.726L94.4446 180.032L95.5437 180.156L95.1517 183.648L100.675 184.268L101.067 180.776L102.152 180.898L101.289 188.591Z" fill="white" fill-opacity="0.52"/>
<path d="M80.8265 184.756L79.7747 184.462L81.8563 177.005L82.9081 177.299L80.8265 184.756ZM88.9172 187.014L87.8654 186.721L88.3924 184.833L85.3044 183.971C84.4504 183.733 83.815 183.284 83.3982 182.625C82.9813 181.966 82.8896 181.218 83.123 180.382C83.3589 179.537 83.827 178.936 84.5274 178.58C85.2278 178.223 86.005 178.163 86.859 178.402L90.9988 179.557L88.9172 187.014ZM88.6634 183.862L89.676 180.235L86.6689 179.395C86.0576 179.225 85.5315 179.252 85.0906 179.478C84.6496 179.704 84.3489 180.104 84.1883 180.68C84.0277 181.255 84.08 181.744 84.3453 182.148C84.608 182.56 85.0451 182.852 85.6564 183.023L88.6634 183.862Z" fill="white" fill-opacity="0.52"/>
<path d="M75.1285 182.754L68.9184 179.906L69.3327 179.003L74.5502 181.395L75.5015 179.321L70.8184 177.173L71.2328 176.27L75.9158 178.417L76.9429 176.178L71.5345 173.698L71.9547 172.781L78.3557 175.717L75.1285 182.754Z" fill="white" fill-opacity="0.52"/>
<path d="M60.2127 174.959L59.1823 174.186L59.3391 170.244L58.6895 169.757L54.9151 170.986L53.9183 170.238L58.2051 168.886L58.3395 163.877L59.3811 164.658L59.2579 168.905L59.9859 169.451L64.0403 168.152L65.0707 168.925L60.3247 170.423L60.2127 174.959Z" fill="white" fill-opacity="0.52"/>
<path d="M48.3634 163.854L52.9035 162.099L49.4894 158.584L47.5635 163.031L48.3634 163.854ZM48.1186 165.029L46.353 163.211L49.6141 155.457L50.414 156.28L49.8906 157.55L53.9192 161.697L55.2035 161.211L56.0229 162.055L48.1186 165.029Z" fill="white" fill-opacity="0.52"/>
<path d="M41.1889 157.508L38.5772 153.834C38.0635 153.111 37.858 152.347 37.9608 151.541C38.0559 150.74 38.4573 150.089 39.1648 149.586C39.8799 149.077 40.6311 148.91 41.4183 149.083C42.198 149.262 42.8447 149.712 43.3584 150.435L45.3375 153.219L46.8666 152.133L47.4992 153.023L41.1889 157.508ZM41.3778 156.034L44.5159 153.803L42.5449 151.031C42.188 150.528 41.7645 150.223 41.2744 150.113C40.7766 150.009 40.2843 150.13 39.7974 150.476C39.3181 150.816 39.0486 151.243 38.9888 151.755C38.9161 152.264 39.0554 152.767 39.4069 153.261L41.3778 156.034Z" fill="white" fill-opacity="0.52"/>
<path d="M33.345 143.379L38.2046 143.098L36.0306 138.707L32.8356 142.351L33.345 143.379ZM32.7523 144.423L31.628 142.152L37.1066 135.768L37.616 136.797L36.729 137.846L39.2943 143.027L40.6658 142.958L41.1875 144.012L32.7523 144.423Z" fill="white" fill-opacity="0.52"/>
<path d="M28.4279 135.049L28.1026 134.006L31.0829 133.076L30.1528 130.096L26.5303 128.968L26.1508 127.752L30.2885 129.027L33.4787 125.245L33.8666 126.488L31.1025 129.756L32.0451 132.776L35.4931 131.7L35.8184 132.742L28.4279 135.049Z" fill="white" fill-opacity="0.52"/>
<path d="M25.0498 123.695L23.8278 115.823L24.8238 115.669L25.35 119.058L32.0043 118.025L32.174 119.118L25.5197 120.151L26.0459 123.54L25.0498 123.695Z" fill="white" fill-opacity="0.52"/>
<path d="M23.3514 111.119L23.2723 104.288L24.2663 104.276L24.3327 110.016L26.6146 109.989L26.5549 104.838L27.5489 104.826L27.6085 109.978L30.0724 109.949L30.0034 104L31.0114 103.988L31.0929 111.029L23.3514 111.119Z" fill="white" fill-opacity="0.52"/>
<path d="M23.4147 99.4204L24.0207 94.9533C24.1399 94.0747 24.5124 93.3765 25.1384 92.8586C25.7551 92.3394 26.4936 92.1382 27.3537 92.2549C28.223 92.3728 28.8858 92.7642 29.3419 93.4288C29.7888 94.0923 29.9526 94.8633 29.8334 95.7419L29.3742 99.1269L31.2332 99.3791L31.0864 100.461L23.4147 99.4204ZM24.5603 98.4738L28.3754 98.9914L28.8327 95.6203C28.9155 95.0099 28.8155 94.4971 28.5328 94.082C28.2408 93.6656 27.7988 93.4173 27.2069 93.337C26.6242 93.2579 26.1361 93.3848 25.7424 93.7176C25.3408 94.0398 25.0992 94.5016 25.0176 95.1027L24.5603 98.4738Z" fill="white" fill-opacity="0.52"/>
<path d="M25.2503 87.3692L25.5559 86.3209L31.6177 88.0875L27.1541 80.837L27.4674 79.7617L34.9002 81.9279L34.5947 82.9763L28.5732 81.2214L33.0004 88.4467L32.6831 89.5354L25.2503 87.3692Z" fill="white" fill-opacity="0.52"/>
<path d="M33.8288 68.8774L33.9244 69.8958C32.8366 70.1289 32.0238 70.8204 31.4861 71.9702C31.0829 72.8326 31.0143 73.6403 31.2804 74.3932C31.5381 75.1422 32.0812 75.7104 32.9097 76.0979C33.7214 76.4774 34.5118 76.5276 35.2812 76.2486C36.0544 75.961 36.6367 75.3988 37.0281 74.5618C37.554 73.4373 37.5551 72.3663 37.0315 71.3487L37.8803 70.7565C38.6241 72.0522 38.6461 73.4483 37.9463 74.9448C37.4126 76.0862 36.6418 76.8642 35.6339 77.279C34.6299 77.6853 33.5657 77.6256 32.4412 77.0997C31.3252 76.5779 30.6075 75.7992 30.288 74.7637C29.9641 73.7158 30.065 72.6297 30.5908 71.5052C31.2985 69.9918 32.3778 69.1159 33.8288 68.8774Z" fill="white" fill-opacity="0.52"/>
<path d="M34.1251 64.6921L38.5239 58.0508L39.3643 58.6074L37.4703 61.467L43.0845 65.1855L42.4738 66.1076L36.8596 62.3891L34.9655 65.2488L34.1251 64.6921Z" fill="white" fill-opacity="0.52"/>
<path d="M41.361 54.1456L42.0929 53.3352L46.7788 57.567L45.9212 49.096L46.6719 48.2648L52.4176 53.4537L51.6857 54.2642L47.031 50.0605L47.8667 58.4929L47.1067 59.3345L41.361 54.1456Z" fill="white" fill-opacity="0.52"/>
<path d="M49.8197 45.0896L50.6639 44.3968L52.6445 46.8102L55.0578 44.8296L54.7438 41.0485L55.7286 40.2403L56.0995 44.5542L60.8024 46.0916L59.796 46.9176L55.7297 45.5821L53.2839 47.5894L55.5754 50.3814L54.7313 51.0742L49.8197 45.0896Z" fill="white" fill-opacity="0.52"/>
<path d="M59.5836 37.3503L60.5218 36.7914L63.7532 42.2158L65.429 33.8681L66.3912 33.2949L70.3535 39.9461L69.4153 40.505L66.2054 35.1166L64.5201 43.4212L63.5459 44.0015L59.5836 37.3503Z" fill="white" fill-opacity="0.52"/>
<path d="M79.1153 28.7882L78.6872 33.6372L83.3479 32.1246L80.2072 28.4339L79.1153 28.7882ZM78.1693 28.0502L80.5795 27.268L86.0987 33.6163L85.0068 33.9707L84.0985 32.9408L78.5989 34.7256L78.4685 36.0926L77.35 36.4557L78.1693 28.0502Z" fill="white" fill-opacity="0.52"/>
<path d="M88.257 25.0839L95.1243 23.9638L95.2866 24.9586L89.4971 25.9029L90.5811 32.5491L89.5034 32.7249L88.257 25.0839Z" fill="white" fill-opacity="0.52"/>
<path d="M99.4955 23.412L104.003 23.325C104.889 23.3079 105.636 23.5688 106.244 24.1079C106.852 24.6376 107.164 25.3363 107.181 26.2042C107.198 27.0813 106.913 27.7963 106.326 28.3491C105.739 28.8925 105.002 29.1728 104.116 29.1899L100.7 29.2558L100.737 31.1315L99.6449 31.1525L99.4955 23.412ZM100.607 24.3987L100.681 28.248L104.082 28.1823C104.698 28.1705 105.19 27.9929 105.556 27.6498C105.923 27.2973 106.101 26.8225 106.089 26.2253C106.078 25.6374 105.877 25.1745 105.488 24.8366C105.108 24.4892 104.615 24.3214 104.008 24.3331L100.607 24.3987Z" fill="white" fill-opacity="0.52"/>
<path d="M112.456 27.3181C112.334 28.2622 112.53 29.0483 113.046 29.6762C113.571 30.3055 114.295 30.6846 115.22 30.8136C116.135 30.9413 116.931 30.7744 117.608 30.3129C118.286 29.8422 118.69 29.14 118.821 28.2063C118.951 27.2727 118.754 26.4913 118.229 25.8621C117.706 25.2236 116.986 24.8405 116.071 24.7127C115.147 24.5837 114.346 24.75 113.669 25.2115C113.001 25.6743 112.597 26.3765 112.456 27.3181ZM119.1 25.291C119.811 26.1441 120.082 27.1668 119.916 28.3592C119.75 29.5517 119.207 30.4655 118.289 31.1007C117.382 31.728 116.314 31.9558 115.084 31.7842C113.855 31.6126 112.885 31.1003 112.175 30.2473C111.475 29.3863 111.208 28.3596 111.375 27.1671C111.541 25.9747 112.078 25.0648 112.986 24.4376C113.904 23.8024 114.977 23.5706 116.207 23.7422C117.436 23.9137 118.401 24.43 119.1 25.291Z" fill="white" fill-opacity="0.52"/>
<path d="M125.139 25.3865L126.371 25.7609L127.571 29.5197L128.348 29.7558L131.475 27.3113L132.667 27.6735L129.1 30.4087L130.685 35.1626L129.439 34.7841L128.104 30.7499L127.233 30.4854L123.866 33.0912L122.634 32.7169L126.583 29.6879L125.139 25.3865Z" fill="white" fill-opacity="0.52"/>
<path d="M137.468 29.3871L138.452 29.8607L135.713 35.55L143.598 32.3378L144.608 32.8235L141.25 39.7996L140.266 39.326L142.986 33.6745L135.132 36.855L134.11 36.3632L137.468 29.3871Z" fill="white" fill-opacity="0.52"/>
<path d="M148.636 34.8973L150.119 35.9517L149.036 43.203L149.093 43.2435L155.528 39.7963L156.989 40.8345L152.504 47.1448L151.602 46.504L155.382 41.1865L155.211 41.0648L148.784 44.5006L147.905 43.8761L148.98 36.6362L148.809 36.5146L145.029 41.8322L144.151 41.2076L148.636 34.8973Z" fill="white" fill-opacity="0.52"/>
<path d="M160.937 44.0708L161.71 44.843L157.245 49.3077L165.749 48.882L166.541 49.6739L161.066 55.1484L160.294 54.3762L164.729 49.9412L156.265 50.3471L155.463 49.5453L160.937 44.0708Z" fill="white" fill-opacity="0.52"/>
<path d="M169.585 53.0108L170.234 53.8892L167.723 55.7441L169.578 58.2553L173.37 58.1346L174.127 59.1593L169.8 59.3097L168.024 63.9281L167.251 62.8808L168.792 58.888L166.912 56.343L164.007 58.489L163.358 57.6106L169.585 53.0108Z" fill="white" fill-opacity="0.52"/>
<path d="M177.79 67.1086L172.937 67.4799L175.192 71.8302L178.319 68.1278L177.79 67.1086ZM178.364 66.0546L179.53 68.3043L174.17 74.7881L173.642 73.7688L174.51 72.7042L171.849 67.5709L170.479 67.666L169.938 66.6219L178.364 66.0546Z" fill="white" fill-opacity="0.52"/>
<path d="M182.748 74.9689L185.264 82.5271L184.307 82.8455L183.224 79.5911L176.835 81.718L176.485 80.6687L182.875 78.5417L181.791 75.2873L182.748 74.9689Z" fill="white" fill-opacity="0.52"/>
<path d="M186.225 90.9477L181.492 89.8079L182.3 94.6409L186.414 92.08L186.225 90.9477ZM187.094 90.1211L187.512 92.6205L180.418 97.1411L180.229 96.0088L181.381 95.2627L180.429 89.5597L179.096 89.2288L178.902 88.0688L187.094 90.1211Z" fill="white" fill-opacity="0.52"/>
</svg>
