<svg width="307" height="988" viewBox="0 0 307 988" fill="none" xmlns="http://www.w3.org/2000/svg">
<path d="M4.75616 282.384C3.35177 281.468 1.05038 279.443 1.04132 283.538C1.0232 302.239 1.05944 320.941 1.05944 339.642C1.05944 340.897 1.28596 341.712 2.58162 342.528C13.563 349.455 24.4538 356.538 35.3718 363.584C52.3513 374.552 69.3308 385.51 86.3104 396.487C101.867 406.548 117.424 416.618 132.954 426.715C135.935 428.648 135.926 429.226 132.909 431.159C117.116 441.275 101.297 451.335 85.5311 461.497C83.71 462.67 82.3237 462.505 80.6384 461.369C69.059 453.562 57.4615 445.801 45.8458 438.049C31.8382 428.703 17.7943 419.403 3.8048 410.021C1.63932 408.564 0.959779 408.921 0.968839 411.551C1.03226 430.133 1.04132 448.715 1.01414 467.288C1.01414 469.047 1.51247 470.064 3.08901 471.054C12.956 477.275 22.7142 483.671 32.5177 489.993C36.0695 492.284 36.0967 492.879 32.6265 495.097C22.7958 501.382 12.9832 507.714 3.09807 513.917C1.70275 514.796 1.05038 515.639 1.05038 517.325C1.07757 536.879 1.05038 556.432 0.996021 575.976C0.996021 578.551 1.8749 578.569 3.74137 577.314C13.4362 570.817 23.1672 564.376 32.8983 557.925C49.2436 547.077 65.5888 536.246 81.925 525.379C83.7009 524.197 85.1687 524.042 87.1439 525.343C102.52 535.44 117.986 545.418 133.453 555.378C135.582 556.752 135.917 557.724 133.534 559.226C121.619 566.712 109.75 574.281 97.8807 581.84C83.0667 591.278 68.2708 600.734 53.4567 610.171C36.7219 620.837 19.996 631.529 3.18868 642.076C1.59402 643.075 1.04132 644.092 1.04132 645.805C1.05038 665.239 1.04132 684.664 1.0232 704.098C1.0232 706.224 1.37656 707.14 3.68701 705.592C16.3809 697.107 29.1744 688.769 41.9136 680.33C65.6704 664.598 89.4 648.82 113.148 633.087C136.116 617.868 159.13 602.731 182.026 587.411C184.681 585.633 187.236 584.79 190.371 584.8C227.719 584.855 265.057 584.8 302.405 584.9C305.576 584.9 306.491 584.048 306.464 580.823C306.31 565.402 306.328 549.981 306.464 534.56C306.491 531.363 305.513 530.492 302.36 530.52C283.269 530.675 264.178 530.593 245.088 530.593V530.575C226.233 530.575 207.387 530.538 188.532 530.611C185.904 530.62 183.739 530.034 181.501 528.531C165.563 517.756 149.535 507.127 133.525 496.453C129.901 494.034 129.874 493.722 133.407 491.376C149.825 480.464 166.243 469.569 182.679 458.702C184.554 457.465 186.421 456.402 188.939 456.411C226.767 456.512 264.586 456.457 302.414 456.586C305.676 456.595 306.473 455.559 306.446 452.453C306.319 437.151 306.274 421.85 306.464 406.557C306.509 403.029 305.332 402.379 302.115 402.388C264.169 402.498 226.224 402.443 188.278 402.498C186.013 402.498 184.056 402.022 182.189 400.757C177.904 397.862 173.564 395.049 169.269 392.181C144.769 375.779 120.297 359.342 95.7787 342.977C72.6742 327.556 49.5244 312.208 26.4019 296.824C19.1896 292.023 12.0227 287.139 4.76522 282.402L4.75616 282.384Z" fill="url(#paint0_linear_10_8094)" fill-opacity="0.19"/>
<path d="M0.960938 831.553C0.960938 917.664 69.3411 987.466 153.704 987.466C238.067 987.466 306.447 917.664 306.447 831.553C306.447 745.441 238.058 675.64 153.704 675.64C69.3501 675.64 0.960938 745.45 0.960938 831.553ZM256.297 832.176C256.297 888.361 209.798 933.909 152.445 933.909C95.0912 933.909 48.5924 888.361 48.5924 832.176C48.5924 775.99 95.0912 730.442 152.445 730.442C209.798 730.442 256.297 775.99 256.297 832.176Z" fill="url(#paint1_linear_10_8094)" fill-opacity="0.19"/>
<path d="M0.535156 156.379C0.535156 242.49 68.9244 312.292 153.278 312.292C237.632 312.292 306.021 242.49 306.021 156.379C306.021 70.2674 237.632 0.465852 153.278 0.465852C68.9244 0.465852 0.535156 70.2766 0.535156 156.379ZM255.871 157.002C255.871 213.188 209.372 258.736 152.019 258.736C94.6654 258.736 48.1666 213.188 48.1666 157.002C48.1666 100.816 94.6654 55.2681 152.019 55.2681C209.372 55.2681 255.871 100.816 255.871 157.002Z" fill="url(#paint2_linear_10_8094)" fill-opacity="0.19"/>
<defs>
<linearGradient id="paint0_linear_10_8094" x1="0.96875" y1="493.337" x2="306.421" y2="497.416" gradientUnits="userSpaceOnUse">
<stop stop-color="white"/>
<stop offset="1" stop-color="white" stop-opacity="0"/>
</linearGradient>
<linearGradient id="paint1_linear_10_8094" x1="0.960938" y1="831.274" x2="306.356" y2="836.835" gradientUnits="userSpaceOnUse">
<stop stop-color="white"/>
<stop offset="1" stop-color="white" stop-opacity="0"/>
</linearGradient>
<linearGradient id="paint2_linear_10_8094" x1="0.535156" y1="156.1" x2="305.93" y2="161.662" gradientUnits="userSpaceOnUse">
<stop stop-color="white"/>
<stop offset="1" stop-color="white" stop-opacity="0"/>
</linearGradient>
</defs>
</svg>
