<svg width="117" height="250" viewBox="0 0 117 250" fill="none" xmlns="http://www.w3.org/2000/svg">
<g clip-path="url(#clip0_4030_5)">
<mask id="mask0_4030_5" style="mask-type:luminance" maskUnits="userSpaceOnUse" x="-11" y="0" width="138" height="250">
<path d="M-11 0V250H127V0H-11Z" fill="white"/>
</mask>
<g mask="url(#mask0_4030_5)">
<path d="M1.70261 44.3876C1.16591 44.0412 0.286606 43.2757 0.283106 44.8241C0.276206 51.8941 0.290006 58.9641 0.290006 66.0341C0.290006 66.5086 0.376606 66.8169 0.871706 67.1252C5.06771 69.744 9.22921 72.4217 13.401 75.0855C19.8889 79.2319 26.3769 83.3748 32.8649 87.5247C38.8093 91.3282 44.7537 95.1351 50.6877 98.9524C51.8268 99.6833 51.8233 99.9015 50.6704 100.632C44.636 104.457 38.5912 108.26 32.5671 112.102C31.8712 112.545 31.3415 112.483 30.6976 112.053C26.273 109.102 21.8416 106.168 17.4032 103.237C12.0508 99.7041 6.68451 96.1881 1.33901 92.641C0.511606 92.0902 0.251906 92.2253 0.255406 93.2195C0.279606 100.244 0.283107 107.269 0.272707 114.291C0.272707 114.956 0.463106 115.341 1.06551 115.715C4.83581 118.067 8.56441 120.485 12.3104 122.875C13.6676 123.741 13.6779 123.966 12.352 124.804C8.59561 127.18 4.84611 129.574 1.06901 131.919C0.535806 132.252 0.286606 132.57 0.286606 133.208C0.297006 140.6 0.286607 147.992 0.265807 155.381C0.265807 156.354 0.601606 156.361 1.31481 155.887C5.01921 153.431 8.73751 150.995 12.4558 148.557C18.7014 144.455 24.9471 140.361 31.1892 136.253C31.8678 135.806 32.4286 135.747 33.1834 136.239C39.0586 140.056 44.9683 143.828 50.8781 147.594C51.6917 148.113 51.8198 148.481 50.9093 149.049C46.3566 151.879 41.8213 154.74 37.286 157.598C31.6254 161.166 25.9718 164.741 20.3113 168.308C13.9168 172.341 7.52581 176.383 1.10361 180.37C0.494306 180.748 0.283106 181.132 0.283106 181.78C0.286606 189.127 0.283107 196.471 0.276207 203.818C0.276207 204.621 0.411206 204.968 1.29401 204.382C6.14441 201.175 11.0329 198.023 15.9006 194.832C24.9782 188.885 34.0454 182.92 43.1196 176.972C51.896 171.218 60.6897 165.496 69.4384 159.704C70.4528 159.032 71.4291 158.713 72.627 158.717C86.8978 158.737 101.165 158.717 115.436 158.755C116.648 158.755 116.997 158.433 116.987 157.213C116.928 151.383 116.935 145.553 116.987 139.724C116.997 138.515 116.623 138.186 115.419 138.196C108.124 138.255 100.829 138.224 93.535 138.224V138.217C86.33 138.217 79.1288 138.203 71.9242 138.231C70.9202 138.234 70.0928 138.012 69.2376 137.444C63.1478 133.371 57.0234 129.352 50.9058 125.317C49.521 124.402 49.5106 124.285 50.8608 123.398C57.1341 119.272 63.4075 115.153 69.6877 111.045C70.4044 110.578 71.1175 110.176 72.08 110.179C86.5342 110.217 100.985 110.197 115.439 110.245C116.686 110.248 116.99 109.857 116.98 108.683C116.931 102.898 116.914 97.113 116.987 91.3316C117.004 89.998 116.554 89.752 115.325 89.7555C100.826 89.7971 86.3265 89.7763 71.8273 89.7971C70.9618 89.7971 70.2139 89.6169 69.5007 89.1389C67.8632 88.0443 66.2048 86.9808 64.5638 85.8966C55.2023 79.6961 45.8512 73.4817 36.4828 67.295C27.6544 61.4651 18.8088 55.6629 9.97351 49.8468C7.21771 48.0317 4.47921 46.1854 1.70601 44.3945L1.70261 44.3876Z" fill="#D8DBE6" fill-opacity="0.32"/>
<path d="M0.251953 252.002C0.251953 284.557 26.3804 310.945 58.6159 310.945C90.852 310.945 116.98 284.557 116.98 252.002C116.98 219.447 90.848 193.059 58.6159 193.059C26.3838 193.059 0.251953 219.451 0.251953 252.002ZM97.817 252.238C97.817 273.479 80.0498 290.698 58.1347 290.698C36.2197 290.698 18.4522 273.479 18.4522 252.238C18.4522 230.996 36.2197 213.777 58.1347 213.777C80.0498 213.777 97.817 230.996 97.817 252.238Z" fill="#D8DBE6" fill-opacity="0.32"/>
<path d="M0.0891113 -3.24922C0.0891113 29.3054 26.221 55.6941 58.4531 55.6941C90.6849 55.6941 116.817 29.3054 116.817 -3.24922C116.817 -35.8038 90.6849 -62.1925 58.4531 -62.1925C26.221 -62.1925 0.0891113 -35.8004 0.0891113 -3.24922ZM97.6549 -3.01365C97.6549 18.2276 79.887 35.4471 57.9719 35.4471C36.0568 35.4471 18.2894 18.2276 18.2894 -3.01365C18.2894 -24.2549 36.0568 -41.4744 57.9719 -41.4744C79.887 -41.4744 97.6549 -24.2549 97.6549 -3.01365Z" fill="#D8DBE6" fill-opacity="0.32"/>
</g>
</g>
<defs>
<clipPath id="clip0_4030_5">
<rect width="117" height="250" fill="white"/>
</clipPath>
</defs>
</svg>
