<svg width="307" height="673" viewBox="0 0 307 673" fill="none" xmlns="http://www.w3.org/2000/svg">
<g clip-path="url(#clip0_4003_10)">
<path d="M4.75591 126.384C3.35153 125.468 1.05014 123.443 1.04108 127.538C1.02296 146.239 1.0592 164.941 1.0592 183.642C1.0592 184.897 1.28572 185.712 2.58138 186.528C13.5628 193.455 24.4536 200.538 35.3716 207.584C52.3511 218.552 69.3306 229.51 86.3101 240.487C101.867 250.548 117.424 260.618 132.954 270.715C135.935 272.648 135.926 273.226 132.909 275.159C117.116 285.275 101.296 295.335 85.5309 305.497C83.7097 306.67 82.3235 306.505 80.6382 305.369C69.0588 297.562 57.4613 289.801 45.8456 282.049C31.838 272.703 17.7941 263.403 3.80455 254.021C1.63908 252.564 0.959534 252.921 0.968595 255.551C1.03202 274.133 1.04108 292.715 1.0139 311.288C1.0139 313.047 1.51223 314.064 3.08877 315.054C12.9557 321.275 22.714 327.671 32.5175 333.993C36.0692 336.284 36.0964 336.879 32.6262 339.097C22.7955 345.382 12.9829 351.714 3.09783 357.917C1.7025 358.796 1.05014 359.639 1.05014 361.325C1.07732 380.879 1.05014 400.432 0.995777 419.976C0.995777 422.551 1.87465 422.569 3.74113 421.314C13.4359 414.817 23.167 408.376 32.8981 401.925C49.2433 391.077 65.5886 380.246 81.9248 369.379C83.7007 368.197 85.1685 368.042 87.1437 369.343C102.519 379.44 117.986 389.418 133.452 399.378C135.581 400.752 135.917 401.724 133.534 403.226C121.619 410.712 109.75 418.281 97.8805 425.84C83.0664 435.278 68.2705 444.734 53.4565 454.171C36.7216 464.837 19.9958 475.529 3.18844 486.076C1.59377 487.075 1.04108 488.092 1.04108 489.805C1.05014 509.239 1.04108 528.664 1.02296 548.098C1.02296 550.224 1.37632 551.14 3.68677 549.592C16.3806 541.107 29.1742 532.769 41.9133 524.33C65.6701 508.598 89.3998 492.82 113.148 477.087C136.116 461.868 159.13 446.731 182.026 431.411C184.681 429.633 187.236 428.79 190.371 428.8C227.718 428.855 265.057 428.8 302.405 428.9C305.576 428.9 306.491 428.048 306.464 424.823C306.31 409.402 306.328 393.981 306.464 378.56C306.491 375.363 305.513 374.492 302.359 374.52C283.269 374.675 264.178 374.593 245.088 374.593V374.575C226.233 374.575 207.387 374.538 188.531 374.611C185.904 374.62 183.738 374.034 181.5 372.531C165.563 361.756 149.535 351.127 133.525 340.453C129.901 338.034 129.873 337.722 133.407 335.376C149.825 324.464 166.242 313.569 182.678 302.702C184.554 301.465 186.42 300.402 188.939 300.411C226.767 300.512 264.586 300.457 302.414 300.586C305.676 300.595 306.473 299.559 306.446 296.453C306.319 281.151 306.274 265.85 306.464 250.557C306.509 247.029 305.331 246.379 302.115 246.388C264.169 246.498 226.223 246.443 188.278 246.498C186.013 246.498 184.056 246.022 182.189 244.757C177.903 241.862 173.563 239.049 169.269 236.181C144.769 219.779 120.296 203.342 95.7784 186.977C72.674 171.556 49.5242 156.208 26.4016 140.824C19.1894 136.023 12.0225 131.139 4.76497 126.402L4.75591 126.384Z" fill="url(#paint0_linear_4003_10)" fill-opacity="0.19"/>
<path d="M0.960693 675.553C0.960693 761.664 69.3408 831.466 153.704 831.466C238.067 831.466 306.447 761.664 306.447 675.553C306.447 589.441 238.058 519.64 153.704 519.64C69.3499 519.64 0.960693 589.45 0.960693 675.553ZM256.297 676.176C256.297 732.361 209.798 777.909 152.444 777.909C95.091 777.909 48.5921 732.361 48.5921 676.176C48.5921 619.99 95.091 574.442 152.444 574.442C209.798 574.442 256.297 619.99 256.297 676.176Z" fill="url(#paint1_linear_4003_10)" fill-opacity="0.19"/>
<path d="M0.534912 0.379028C0.534912 86.49 68.9241 156.292 153.278 156.292C237.632 156.292 306.021 86.49 306.021 0.379028C306.021 -85.7326 237.632 -155.534 153.278 -155.534C68.9241 -155.534 0.534912 -85.7234 0.534912 0.379028ZM255.871 1.00203C255.871 57.188 209.372 102.736 152.019 102.736C94.6652 102.736 48.1663 57.188 48.1663 1.00203C48.1663 -55.184 94.6652 -100.732 152.019 -100.732C209.372 -100.732 255.871 -55.184 255.871 1.00203Z" fill="url(#paint2_linear_4003_10)" fill-opacity="0.19"/>
</g>
<defs>
<linearGradient id="paint0_linear_4003_10" x1="0.968506" y1="337.337" x2="306.421" y2="341.416" gradientUnits="userSpaceOnUse">
<stop stop-color="white"/>
<stop offset="1" stop-color="white" stop-opacity="0"/>
</linearGradient>
<linearGradient id="paint1_linear_4003_10" x1="0.960694" y1="675.274" x2="306.356" y2="680.835" gradientUnits="userSpaceOnUse">
<stop stop-color="white"/>
<stop offset="1" stop-color="white" stop-opacity="0"/>
</linearGradient>
<linearGradient id="paint2_linear_4003_10" x1="0.534912" y1="0.100019" x2="305.93" y2="5.66202" gradientUnits="userSpaceOnUse">
<stop stop-color="white"/>
<stop offset="1" stop-color="white" stop-opacity="0"/>
</linearGradient>
<clipPath id="clip0_4003_10">
<rect width="307" height="673" fill="white"/>
</clipPath>
</defs>
</svg>
