<svg width="456" height="277" viewBox="0 0 456 277" fill="none" xmlns="http://www.w3.org/2000/svg">
<g clip-path="url(#clip0_1_534)">
<path d="M374.918 2.96253C375.552 1.97717 376.954 0.362453 374.119 0.356096C361.178 0.343381 348.237 0.36881 335.296 0.36881C334.427 0.36881 333.863 0.527739 333.298 1.43681C328.505 9.14167 323.604 16.783 318.728 24.4433C311.138 36.3566 303.554 48.2699 295.958 60.1832C288.996 71.0984 282.028 82.0136 275.041 92.9098C273.703 95.0013 273.303 94.995 271.965 92.878C264.965 81.7975 258.003 70.6979 250.972 59.6365C250.16 58.3587 250.274 57.3861 251.06 56.2036C256.463 48.0792 261.833 39.9421 267.197 31.7922C273.665 21.964 280.1 12.1105 286.593 2.29503C287.601 0.775667 287.354 0.298881 285.534 0.305238C272.676 0.349738 259.817 0.356096 246.964 0.337024C245.747 0.337024 245.043 0.686667 244.358 1.79281C240.053 8.71574 235.627 15.5624 231.252 22.4408C229.667 24.9328 229.255 24.9519 227.72 22.5171C223.371 15.6196 218.989 8.73482 214.697 1.79917C214.088 0.820167 213.505 0.362453 212.338 0.362453C198.807 0.381524 185.276 0.362453 171.752 0.32431C169.97 0.32431 169.957 0.940953 170.826 2.25053C175.322 9.05267 179.779 15.8803 184.243 22.7078C191.75 34.1761 199.245 45.6444 206.765 57.1064C207.583 58.3524 207.69 59.3822 206.79 60.7681C199.803 71.5561 192.898 82.4078 186.005 93.2594C185.054 94.7534 184.382 94.9886 183.342 93.3167C178.162 84.957 172.925 76.6292 167.694 68.3013C161.163 57.9074 154.619 47.5261 148.089 37.1322C140.708 25.3905 133.309 13.6552 126.01 1.86274C125.319 0.743882 124.616 0.356096 123.43 0.356096C109.981 0.362453 96.5392 0.356096 83.0907 0.343381C81.6197 0.343381 80.9856 0.59131 82.0572 2.21238C87.9286 11.1187 93.6986 20.095 99.5383 29.0332C110.425 45.7016 121.344 62.351 132.231 79.0131C142.762 95.1285 153.237 111.276 163.839 127.34C165.069 129.203 165.652 130.995 165.646 133.195C165.608 159.399 165.646 185.597 165.576 211.801C165.576 214.026 166.166 214.668 168.398 214.649C179.069 214.541 189.74 214.554 200.411 214.649C202.624 214.668 203.227 213.982 203.208 211.769C203.1 198.375 203.157 184.98 203.157 171.586H203.17C203.17 158.357 203.195 145.134 203.144 131.905C203.138 130.061 203.544 128.542 204.584 126.971C212.04 115.789 219.395 104.543 226.782 93.3103C228.456 90.7674 228.672 90.7484 230.295 93.2277C237.846 104.747 245.385 116.266 252.905 127.798C253.761 129.114 254.497 130.423 254.491 132.191C254.421 158.732 254.459 185.266 254.37 211.808C254.364 214.096 255.08 214.656 257.23 214.636C267.819 214.547 278.407 214.516 288.99 214.649C291.431 214.681 291.881 213.855 291.875 211.598C291.799 184.974 291.837 158.35 291.799 131.727C291.799 130.137 292.129 128.764 293.004 127.455C295.007 124.448 296.954 121.403 298.938 118.389C310.288 101.2 321.663 84.0289 332.988 66.8264C343.659 50.6157 354.279 34.3732 364.925 18.1498C368.248 13.0895 371.627 8.06096 374.906 2.96888L374.918 2.96253Z" fill="white" fill-opacity="0.08"/>
<path d="M-5.10783 0.298828C-64.6971 0.298828 -113 48.2762 -113 107.468C-113 166.659 -64.6971 214.636 -5.10783 214.636C54.4814 214.636 102.784 166.653 102.784 107.468C102.784 48.2826 54.4751 0.298828 -5.10783 0.298828ZM-5.539 179.45C-44.4197 179.45 -75.939 146.825 -75.939 106.584C-75.939 66.3432 -44.4197 33.7184 -5.539 33.7184C33.3417 33.7184 64.861 66.3432 64.861 106.584C64.861 146.825 33.3417 179.45 -5.539 179.45Z" fill="white" fill-opacity="0.08"/>
<path d="M462.115 0C402.526 0 354.223 47.9838 354.223 107.169C354.223 166.354 402.526 214.338 462.115 214.338C521.704 214.338 570.007 166.354 570.007 107.169C570.007 47.9838 521.698 0 462.115 0ZM461.684 179.151C422.803 179.151 391.284 146.526 391.284 106.285C391.284 66.0444 422.803 33.4195 461.684 33.4195C500.564 33.4195 532.084 66.0444 532.084 106.285C532.084 146.526 500.564 179.151 461.684 179.151Z" fill="white" fill-opacity="0.08"/>
<path d="M41.7817 262.169C41.7817 257.287 43.0879 253.466 45.7066 250.701C48.3189 247.942 51.6985 246.556 55.8326 246.556C58.54 246.556 60.9812 247.204 63.156 248.501C65.3308 249.798 66.9857 251.61 68.127 253.93C69.2684 256.25 69.839 258.882 69.839 261.826C69.839 264.769 69.2366 267.477 68.0383 269.829C66.8399 272.181 65.1343 273.968 62.9341 275.176C60.7339 276.383 58.3561 276.994 55.8072 276.994C53.0427 276.994 50.5762 276.326 48.4013 274.985C46.2265 273.65 44.5779 271.819 43.4557 269.505C42.3334 267.191 41.7754 264.743 41.7754 262.162L41.7817 262.169ZM45.7827 262.232C45.7827 265.78 46.7338 268.57 48.6359 270.611C50.5381 272.652 52.9222 273.669 55.7882 273.669C58.6542 273.669 61.1143 272.639 63.0038 270.579C64.8933 268.52 65.8381 265.595 65.8381 261.813C65.8381 259.416 65.4323 257.331 64.627 255.545C63.8218 253.758 62.6361 252.372 61.0826 251.393C59.5291 250.408 57.7855 249.919 55.8516 249.919C53.1061 249.919 50.741 250.866 48.7564 252.76C46.7781 254.655 45.7827 257.814 45.7827 262.239V262.232Z" fill="white" fill-opacity="0.08"/>
<path d="M74.9043 276.498V247.083H87.9153C90.5276 247.083 92.5186 247.35 93.8818 247.878C95.245 248.406 96.3293 249.34 97.1409 250.675C97.9525 252.01 98.3646 253.491 98.3646 255.112C98.3646 257.197 97.6925 258.958 96.342 260.389C94.9914 261.819 92.9117 262.728 90.0964 263.116C91.1236 263.612 91.9035 264.101 92.4361 264.578C93.5711 265.621 94.6427 266.924 95.6572 268.488L100.761 276.491H95.8791L91.9986 270.369C90.8637 268.602 89.9316 267.254 89.1961 266.314C88.4606 265.379 87.8075 264.724 87.2241 264.349C86.6408 263.974 86.0511 263.714 85.4551 263.567C85.0176 263.472 84.2948 263.427 83.2929 263.427H78.7911V276.491H74.9106L74.9043 276.498ZM78.7848 260.065H87.129C88.9044 260.065 90.293 259.88 91.2885 259.511C92.2903 259.143 93.0512 258.558 93.5711 257.744C94.091 256.937 94.351 256.053 94.351 255.106C94.351 253.714 93.8501 252.569 92.8419 251.673C91.8338 250.777 90.2423 250.332 88.0674 250.332H78.7848V260.065Z" fill="white" fill-opacity="0.08"/>
<path d="M118.167 264.96V261.508L130.595 261.489V272.404C128.686 273.93 126.721 275.074 124.692 275.843C122.663 276.612 120.583 276.994 118.446 276.994C115.568 276.994 112.949 276.377 110.59 275.137C108.238 273.898 106.456 272.111 105.258 269.772C104.059 267.433 103.457 264.813 103.457 261.927C103.457 259.041 104.053 256.39 105.245 253.911C106.437 251.432 108.155 249.588 110.4 248.38C112.645 247.179 115.225 246.575 118.142 246.575C120.266 246.575 122.181 246.918 123.893 247.611C125.605 248.297 126.949 249.257 127.926 250.491C128.902 251.724 129.637 253.326 130.145 255.303L126.645 256.269C126.207 254.769 125.656 253.593 125.002 252.735C124.349 251.877 123.417 251.196 122.2 250.681C120.989 250.166 119.638 249.906 118.155 249.906C116.379 249.906 114.845 250.179 113.551 250.72C112.258 251.26 111.212 251.972 110.419 252.856C109.626 253.739 109.005 254.705 108.568 255.767C107.819 257.585 107.445 259.562 107.445 261.686C107.445 264.305 107.895 266.498 108.796 268.265C109.696 270.033 111.009 271.342 112.727 272.2C114.445 273.059 116.278 273.485 118.212 273.485C119.892 273.485 121.534 273.16 123.132 272.512C124.73 271.863 125.947 271.171 126.772 270.433V264.953H118.148L118.167 264.96Z" fill="white" fill-opacity="0.08"/>
<path d="M133.1 276.498L144.367 247.083H148.552L160.561 276.498H156.135L152.711 267.591H140.442L137.221 276.498H133.1ZM141.564 264.419H151.513L148.45 256.276C147.518 253.803 146.821 251.768 146.371 250.173C145.996 252.061 145.47 253.93 144.792 255.793L141.571 264.419H141.564Z" fill="white" fill-opacity="0.08"/>
<path d="M163.617 276.498V247.083H167.599L183.007 270.179V247.083H186.729V276.498H182.747L167.339 253.383V276.498H163.617Z" fill="white" fill-opacity="0.08"/>
<path d="M193.918 276.498V247.083H197.799V276.498H193.918Z" fill="white" fill-opacity="0.08"/>
<path d="M225.577 266.186L229.457 267.172C228.645 270.369 227.181 272.804 225.063 274.483C222.952 276.161 220.365 277 217.308 277C214.252 277 211.577 276.352 209.592 275.061C207.614 273.771 206.105 271.902 205.071 269.454C204.038 267.007 203.518 264.375 203.518 261.571C203.518 258.507 204.101 255.837 205.268 253.555C206.434 251.273 208.096 249.543 210.251 248.361C212.407 247.179 214.779 246.587 217.366 246.587C220.301 246.587 222.768 247.338 224.771 248.831C226.775 250.332 228.164 252.436 228.956 255.15L225.133 256.053C224.454 253.911 223.465 252.353 222.172 251.381C220.878 250.402 219.249 249.919 217.289 249.919C215.032 249.919 213.149 250.459 211.634 251.546C210.118 252.627 209.053 254.082 208.444 255.907C207.829 257.731 207.525 259.613 207.525 261.552C207.525 264.05 207.886 266.237 208.615 268.106C209.345 269.975 210.473 271.368 212.008 272.289C213.542 273.211 215.203 273.675 216.991 273.675C219.166 273.675 221.005 273.046 222.514 271.787C224.023 270.528 225.044 268.666 225.577 266.186Z" fill="white" fill-opacity="0.08"/>
<path d="M245.709 276.498V247.083H266.925V250.554H249.596V259.562H265.828V263.014H249.596V273.027H267.61V276.498H245.715H245.709Z" fill="white" fill-opacity="0.08"/>
<path d="M272.93 276.498V247.083H276.912L292.319 270.179V247.083H296.041V276.498H292.059L276.652 253.383V276.498H272.93Z" fill="white" fill-opacity="0.08"/>
<path d="M302.646 276.498V247.083H323.862V250.554H306.533V259.562H322.765V263.014H306.533V273.027H324.547V276.498H302.653H302.646Z" fill="white" fill-opacity="0.08"/>
<path d="M329.963 276.498V247.083H342.974C345.586 247.083 347.577 247.35 348.94 247.878C350.304 248.406 351.388 249.34 352.199 250.675C353.011 252.01 353.423 253.491 353.423 255.112C353.423 257.197 352.751 258.958 351.4 260.389C350.056 261.819 347.97 262.728 345.155 263.116C346.182 263.612 346.962 264.101 347.495 264.578C348.63 265.621 349.701 266.924 350.716 268.488L355.82 276.491H350.938L347.057 270.369C345.922 268.602 344.99 267.254 344.255 266.314C343.519 265.379 342.866 264.724 342.283 264.349C341.706 263.974 341.11 263.714 340.514 263.567C340.076 263.472 339.353 263.427 338.351 263.427H333.85V276.491H329.969L329.963 276.498ZM333.843 260.065H342.188C343.963 260.065 345.352 259.88 346.353 259.511C347.355 259.143 348.116 258.558 348.636 257.744C349.156 256.937 349.416 256.053 349.416 255.106C349.416 253.714 348.915 252.569 347.907 251.673C346.899 250.777 345.307 250.332 343.132 250.332H333.85V260.065H333.843Z" fill="white" fill-opacity="0.08"/>
<path d="M373.232 264.96V261.508L385.659 261.489V272.404C383.751 273.93 381.785 275.074 379.756 275.843C377.727 276.612 375.647 276.994 373.511 276.994C370.626 276.994 368.013 276.377 365.655 275.137C363.302 273.898 361.521 272.111 360.322 269.772C359.124 267.433 358.521 264.813 358.521 261.927C358.521 259.041 359.117 256.39 360.316 253.911C361.508 251.432 363.226 249.588 365.471 248.38C367.715 247.179 370.296 246.575 373.213 246.575C375.337 246.575 377.252 246.918 378.964 247.611C380.676 248.297 382.02 249.257 382.996 250.491C383.973 251.724 384.708 253.326 385.216 255.303L381.715 256.269C381.278 254.769 380.726 253.593 380.073 252.735C379.42 251.877 378.488 251.196 377.271 250.681C376.06 250.166 374.709 249.906 373.225 249.906C371.45 249.906 369.916 250.179 368.622 250.72C367.329 251.26 366.282 251.972 365.49 252.856C364.697 253.739 364.082 254.705 363.638 255.767C362.89 257.585 362.516 259.562 362.516 261.686C362.516 264.305 362.966 266.498 363.867 268.265C364.767 270.033 366.08 271.342 367.798 272.2C369.516 273.059 371.349 273.485 373.282 273.485C374.963 273.485 376.605 273.16 378.203 272.512C379.801 271.863 381.018 271.171 381.842 270.433V264.953H373.219L373.232 264.96Z" fill="white" fill-opacity="0.08"/>
<path d="M399.647 276.498V264.038L388.342 247.083H393.066L398.848 255.951C399.913 257.611 400.909 259.27 401.828 260.929C402.71 259.391 403.775 257.662 405.03 255.735L410.712 247.09H415.232L403.528 264.044V276.504H399.647V276.498Z" fill="white" fill-opacity="0.08"/>
</g>
<defs>
<clipPath id="clip0_1_534">
<rect width="456" height="277" fill="white"/>
</clipPath>
</defs>
</svg>
